<?xml version="1.0" encoding="UTF-8"?>
<svg id="Layer_2" data-name="Layer 2" xmlns="http://www.w3.org/2000/svg" viewBox="0 0 390.69 110.5">
  <defs>
    <style>
      .cls-1 {
        fill: #1a1a1a;
      }
    </style>
  </defs>
  <g id="Layer_1-2" data-name="Layer 1">
    <path class="cls-1" d="M18.97,85.18C6.14,77-6.67,61.73,3.94,47.08c4.27-5.9,10.06-9.78,16.03-13.93C40.26,19.04,67.06,1.36,92.52.08c22.49-1.13,44.13,9.35,57.57,27.35,10.58,14.18,12.16,32.79,3.4,48.34-12.16,21.56-35.4,35.08-60.14,34.71-26.45-.39-52.2-11.19-74.38-25.31ZM108.78,80.56c12.04-3.29,22.32-11.78,24.27-24.19,1.74-11.11-5.07-21.63-14.82-26.81-24.37-12.94-54.15,2.33-70.58,20.14-14.81,16.06,30.46,39.24,61.13,30.86Z"/>
    <path class="cls-1" d="M376.49,99.07c-7.74,1.66-16.09,1.3-22.75-2.28-1.64-.88-.29-6.76,1.55-6.97,5.84.5,16.36,5.64,21.98-.9,2.67-3.1,3.88-7.15,2.72-11.87-4,4.75-8.82,6.47-14.78,6.2-7.83-.36-14.39-5.62-14.61-13.76-.22-8.07-.26-15.73-.03-24,3.31-.97,7.17-1.05,10.43.05,1,8.34-.85,16.35.73,24.27.95,4.74,5.69,6.2,9.81,5.65,3.78-.5,8.23-3.66,8.32-8.44l.41-21.54c3.24-1.05,6.71-.81,10.43-.13l-.03,36.03c0,8.68-5.12,15.75-14.17,17.69Z"/>
    <path class="cls-1" d="M315.1,67.29c-.88,5.81,4.74,8.88,10.13,9.47s9.01-2.3,14.05-3.04c1.99-.29,3.73,5.56,1.75,6.68-8.91,5.03-20.85,5.32-29.63-.27-7.97-5.07-9.7-15.12-6.65-23.72,2.78-7.85,11.41-12.93,20.43-12.82,7.03.09,13.85,2.4,16.81,8.85,1.26,2.75,1.56,6.27-.07,9.1-3.8,6.61-17.91,5.6-26.81,5.75ZM332.76,57.67c.41-1.45.09-3.15-1.27-4.6-2.65-2.82-7.88-2.55-11.67-.85-2.67,1.2-5.47,4.46-5.1,8.46,5.42.15,16.85,1.16,18.04-3.01Z"/>
    <path class="cls-1" d="M251.65,76.29c-4.88,6.9-12.92,8.28-20.39,7.93-11.03-.51-18.9-7.9-20.02-18.69-1.24-11.91,6.93-21.25,18.99-21.95,7.74-.44,15.63.83,20.65,7.31,5.41,6.98,6.14,17.8.77,25.39ZM244.79,63.19c-.36-5.98-3.45-10.84-8.31-11.83s-10.99.09-13.24,5.07c-2.12,4.71-1.71,10.89.73,15.4,2.82,5.2,8.89,6.13,14.14,4.15,4.61-1.73,7.04-6.75,6.68-12.79Z"/>
    <path class="cls-1" d="M196.35,53.65l-.62,28.96c-3.35.33-6.42.48-9.73-.19l-.64-28.07c-.05-2.19-4.5-.8-5.89-1.58-1.91-1.07-2.26-6.93-.21-7.18l4.71-.58c3.64-.45-1.28-13.94,8.28-18.38,5.37-2.49,12.95-2.44,18.23-.4,1.54,1.15.62,6.88-1.22,7.17-3.55.56-7.25-1.71-10.6.73-2.57,1.87-4.11,8.33-1.56,10.27l10.2,1.24c1.74.21,1.62,6.4-.24,7.14-3.34,1.34-6.62.02-10.71.87Z"/>
    <path class="cls-1" d="M290.93,46.17c1.27-2.97,7.69-1.06,10.81-.84l-16.54,37.11c-3.79.84-7.4.57-11.53.04l-17.27-37.13c3.82-1.18,7.4-.88,11.34-.23l11.76,27.68,11.42-26.65Z"/>
    <path class="cls-1" d="M115.17,62.03c-3.9,6.29-10.61,8.87-17.41,8.41-6.34-.43-12.62-4.64-15.21-11.38-2.13-5.54-.56-11.91,2.9-15.94,7.47-8.72,22.8-7.4,29.1,1.76,3.57,5.2,4.05,11.62.62,17.15Z"/>
  </g>
</svg>