<?xml version="1.0" encoding="UTF-8"?>
<svg id="Layer_2" data-name="Layer 2" xmlns="http://www.w3.org/2000/svg" viewBox="0 0 159.17 110.5">
  <defs>
    <style>
      .cls-1 {
        fill: #fff;
      }

      .cls-2 {
        fill: #fcad1f;
      }

      .cls-3 {
        fill: #7647be;
      }
    </style>
  </defs>
  <g id="Layer_1-2" data-name="Layer 1">
    <g>
      <ellipse class="cls-1" cx="91.06" cy="57.05" rx="48.49" ry="31.21" transform="translate(-8.38 16.32) rotate(-9.79)"/>
      <path class="cls-2" d="M18.97,85.18C6.14,77-6.67,61.73,3.94,47.08c4.27-5.9,10.06-9.78,16.03-13.93C40.26,19.04,67.06,1.36,92.52.08c22.49-1.13,44.13,9.35,57.57,27.35,10.58,14.18,12.16,32.79,3.4,48.34-12.16,21.56-35.4,35.08-60.14,34.71-26.45-.39-52.2-11.19-74.38-25.31ZM108.78,80.56c12.04-3.29,22.32-11.78,24.27-24.19,1.74-11.11-5.07-21.63-14.82-26.81-24.37-12.94-54.15,2.33-70.58,20.14-14.81,16.06,30.46,39.24,61.13,30.86Z"/>
      <path class="cls-3" d="M115.17,62.03c-3.9,6.29-10.61,8.87-17.41,8.41-6.34-.43-12.62-4.64-15.21-11.38-2.13-5.54-.56-11.91,2.9-15.94,7.47-8.72,22.8-7.4,29.1,1.76,3.57,5.2,4.05,11.62.62,17.15Z"/>
    </g>
  </g>
</svg>