<?xml version="1.0" encoding="UTF-8"?>
<svg id="Layer_2" data-name="Layer 2" xmlns="http://www.w3.org/2000/svg" viewBox="0 0 655.26 939.32">
  <defs>
    <style>
      .cls-1 {
        fill: #020202;
      }

      .cls-2 {
        fill: #1e1e1e;
      }

      .cls-3 {
        fill: #fcad1f;
      }
    </style>
  </defs>
  <g id="Layer_1-2" data-name="Layer 1">
    <g>
      <polygon class="cls-3" points="324.06 80.61 335.91 101.13 312.21 101.13 324.06 80.61"/>
      <path class="cls-2" d="M337.37,47.53h-26.63l13.31-23.06,13.31,23.06ZM313.68,45.84h20.76l-10.38-17.98-10.38,17.98Z"/>
      <polygon class="cls-2" points="324.06 107.69 335.91 128.21 312.21 128.21 324.06 107.69"/>
      <polygon class="cls-3" points="570.33 875.61 582.18 896.12 558.49 896.12 570.33 875.61"/>
      <path class="cls-2" d="M583.65,842.53h-26.63l13.31-23.06,13.31,23.06ZM559.95,840.83h20.76l-10.38-17.98-10.38,17.98Z"/>
      <polygon class="cls-2" points="570.33 902.68 582.18 923.2 558.49 923.2 570.33 902.68"/>
      <polygon class="cls-3" points="537.33 369.19 526.11 357.97 537.33 346.75 530.88 340.29 519.65 351.52 508.43 340.29 501.98 346.75 513.2 357.97 501.98 369.19 508.43 375.65 519.65 364.43 530.88 375.65 537.33 369.19"/>
      <polygon class="cls-2" points="645.76 656.89 634.54 645.67 645.76 634.44 639.31 627.99 628.09 639.21 616.86 627.99 610.41 634.44 621.63 645.67 610.41 656.89 616.86 663.34 628.09 652.12 639.31 663.34 645.76 656.89"/>
      <polygon class="cls-3" points="428.51 821.26 417.29 810.03 428.51 798.81 422.06 792.35 410.83 803.58 399.61 792.35 393.15 798.81 404.38 810.03 393.15 821.26 399.61 827.71 410.83 816.49 422.06 827.71 428.51 821.26"/>
      <path class="cls-2" d="M451.74,828.91l-7.65-7.65,11.22-11.22-11.22-11.22,7.65-7.65,11.22,11.22,11.22-11.22,7.65,7.65-11.22,11.22,11.22,11.22-7.65,7.65-11.22-11.22-11.22,11.22ZM462.96,815.29l11.22,11.22,5.26-5.26-11.22-11.22,11.22-11.22-5.26-5.26-11.22,11.22-11.22-11.22-5.26,5.26,11.22,11.22-11.22,11.22,5.26,5.26,11.22-11.22Z"/>
      <polygon class="cls-3" points="35.36 234.47 24.13 223.25 35.36 212.02 28.9 205.57 17.68 216.79 6.45 205.57 0 212.02 11.22 223.25 0 234.47 6.45 240.92 17.68 229.7 28.9 240.92 35.36 234.47"/>
      <polygon class="cls-2" points="35.36 281.35 24.13 270.13 35.36 258.91 28.9 252.45 17.68 263.68 6.45 252.45 0 258.91 11.22 270.13 0 281.35 6.45 287.81 17.68 276.58 28.9 287.81 35.36 281.35"/>
      <polygon class="cls-3" points="210.99 508.41 199.77 497.19 210.99 485.97 204.54 479.51 193.31 490.74 182.09 479.51 175.63 485.97 186.86 497.19 175.63 508.41 182.09 514.87 193.31 503.65 204.54 514.87 210.99 508.41"/>
      <path class="cls-3" d="M410.6,180.64c-11.94,0-21.63,9.68-21.63,21.63s9.68,21.63,21.63,21.63,21.63-9.68,21.63-21.63-9.68-21.63-21.63-21.63ZM410.6,210.83c-4.73,0-8.56-3.83-8.56-8.56s3.83-8.56,8.56-8.56,8.56,3.83,8.56,8.56-3.83,8.56-8.56,8.56Z"/>
      <path class="cls-3" d="M77.47,882.57c-11.94,0-21.63,9.68-21.63,21.63s9.68,21.63,21.63,21.63,21.63-9.68,21.63-21.63-9.68-21.63-21.63-21.63ZM77.47,912.76c-4.73,0-8.56-3.83-8.56-8.56s3.83-8.56,8.56-8.56,8.56,3.83,8.56,8.56-3.83,8.56-8.56,8.56Z"/>
      <path class="cls-2" d="M604.76,202.89c0-19.9-16.13-36.04-36.04-36.04v72.07c19.9,0,36.04-16.13,36.04-36.04Z"/>
      <path class="cls-2" d="M363.01,589.28c0-19.9-16.13-36.04-36.04-36.04v72.07c19.9,0,36.04-16.13,36.04-36.04Z"/>
      <g>
        <polygon class="cls-3" points="159.25 223.72 168.3 232.76 173.29 227.77 159.25 213.73 145.22 227.77 150.21 232.76 159.25 223.72"/>
        <polygon class="cls-3" points="145.22 262.16 150.21 267.15 159.25 258.11 168.3 267.15 173.29 262.16 159.25 248.13 145.22 262.16"/>
        <polygon class="cls-3" points="145.22 296.56 150.21 301.55 159.25 292.51 168.3 301.55 173.29 296.56 159.25 282.53 145.22 296.56"/>
      </g>
      <g>
        <path class="cls-2" d="M279.02,346.43c-.1,0-.2,0-.3,0-3.21-.15-5.85-2.87-5.88-6.06-.01-1.65.69-3.29,1.93-4.48,1.24-1.19,2.88-1.82,4.54-1.74h0c1.68.09,3.21.85,4.32,2.15,1.1,1.29,1.64,2.99,1.46,4.67-.33,3.12-2.97,5.46-6.09,5.46ZM279.04,335.84c-1.11,0-2.23.46-3.08,1.27-.91.87-1.42,2.05-1.41,3.24.02,2.3,1.93,4.27,4.26,4.38,2.37.15,4.37-1.58,4.62-3.94.13-1.21-.26-2.45-1.07-3.39-.8-.94-1.91-1.49-3.12-1.55h0c-.07,0-.14,0-.21,0Z"/>
        <path class="cls-2" d="M279.1,266.08c-2.32.04-4.4-2.09-4.31-4.4.09-2.2,1.93-3.99,4.15-4.03,2.43-.05,4.37,1.93,4.27,4.36-.09,2.21-1.93,4.03-4.12,4.07Z"/>
        <path class="cls-2" d="M279.05,320.48c-1.49,0-2.95-.54-4.09-1.54-1.28-1.12-2.03-2.66-2.09-4.34-.07-1.62.59-3.26,1.81-4.5,1.22-1.24,2.84-1.95,4.47-1.91,3.19.06,5.88,2.72,6,5.94.12,3.3-2.25,6.02-5.53,6.33-.19.02-.38.03-.57.03ZM279.04,309.88c-1.14,0-2.28.51-3.16,1.4-.89.91-1.37,2.09-1.33,3.25h0c.05,1.21.59,2.32,1.52,3.13.94.83,2.15,1.21,3.39,1.1,2.37-.22,4.08-2.19,3.99-4.58-.09-2.33-2.04-4.26-4.34-4.31-.02,0-.05,0-.07,0Z"/>
        <path class="cls-2" d="M279.06,293.95c-1.47,0-2.95-.58-4.12-1.63-1.29-1.16-2.06-2.76-2.1-4.39h0c-.08-3.18,2.48-5.98,5.7-6.23,1.72-.14,3.35.42,4.61,1.55,1.25,1.13,1.96,2.7,1.99,4.41.07,3.25-2.4,6.01-5.62,6.28-.15.01-.31.02-.46.02ZM274.53,287.88c.03,1.17.59,2.32,1.54,3.17.95.85,2.16,1.28,3.31,1.19,2.33-.2,4.12-2.2,4.07-4.55-.03-1.24-.54-2.38-1.44-3.19-.9-.82-2.09-1.21-3.34-1.12-2.3.18-4.2,2.24-4.14,4.5h0Z"/>
        <path class="cls-2" d="M279.06,242.04c-1.47,0-2.95-.58-4.12-1.63-1.29-1.16-2.06-2.76-2.1-4.39h0c-.08-3.18,2.48-5.98,5.7-6.23,1.72-.14,3.35.42,4.61,1.55,1.25,1.13,1.96,2.7,1.99,4.41.07,3.25-2.4,6.01-5.62,6.28-.15.01-.31.02-.46.02ZM274.53,235.98c.03,1.17.59,2.32,1.54,3.17.95.85,2.16,1.27,3.31,1.19,2.33-.2,4.12-2.2,4.07-4.55-.03-1.24-.54-2.38-1.44-3.19-.9-.82-2.09-1.22-3.34-1.12-2.3.18-4.2,2.24-4.14,4.5h0Z"/>
      </g>
      <g>
        <path class="cls-2" d="M621.96,497.13c-.1,0-.2,0-.3,0-3.22-.15-5.85-2.87-5.88-6.06-.01-1.65.69-3.29,1.93-4.48,1.24-1.19,2.88-1.82,4.54-1.74h0c1.68.09,3.21.85,4.32,2.15,1.1,1.29,1.64,2.99,1.46,4.67-.33,3.12-2.97,5.46-6.09,5.46ZM621.97,486.54c-1.11,0-2.23.46-3.08,1.27-.91.87-1.42,2.05-1.41,3.24.02,2.3,1.93,4.27,4.26,4.38,2.37.15,4.37-1.58,4.62-3.94.13-1.21-.26-2.45-1.07-3.39-.8-.94-1.91-1.49-3.12-1.55h0c-.07,0-.14,0-.21,0Z"/>
        <path class="cls-2" d="M622.03,416.77c-2.32.04-4.4-2.09-4.31-4.4.09-2.2,1.93-3.99,4.15-4.03,2.43-.05,4.37,1.93,4.27,4.36-.09,2.21-1.93,4.03-4.12,4.07Z"/>
        <path class="cls-2" d="M621.98,471.18c-1.49,0-2.95-.54-4.09-1.54-1.28-1.12-2.03-2.66-2.09-4.34-.07-1.62.59-3.26,1.81-4.5,1.22-1.24,2.84-1.95,4.47-1.91,3.19.06,5.88,2.72,6,5.94.12,3.3-2.25,6.02-5.53,6.32-.19.02-.38.03-.57.03ZM621.98,460.58c-1.14,0-2.28.51-3.16,1.4-.89.91-1.37,2.09-1.33,3.25h0c.05,1.21.59,2.32,1.52,3.13.94.83,2.15,1.21,3.39,1.1,2.37-.22,4.08-2.19,3.99-4.58-.09-2.33-2.04-4.26-4.34-4.31-.02,0-.05,0-.07,0Z"/>
        <path class="cls-2" d="M621.99,444.65c-1.47,0-2.95-.58-4.12-1.63-1.29-1.16-2.06-2.76-2.1-4.39h0c-.08-3.18,2.48-5.98,5.7-6.23,1.72-.14,3.35.42,4.61,1.55,1.25,1.13,1.96,2.7,1.99,4.41.07,3.25-2.4,6.01-5.62,6.28-.15.01-.31.02-.46.02ZM617.47,438.58c.03,1.17.59,2.32,1.54,3.17.95.85,2.16,1.28,3.31,1.19,2.33-.2,4.12-2.2,4.07-4.55-.03-1.24-.54-2.38-1.44-3.19-.9-.82-2.09-1.21-3.34-1.12-2.3.18-4.2,2.24-4.14,4.5h0Z"/>
        <path class="cls-2" d="M621.99,392.74c-1.47,0-2.95-.58-4.12-1.63-1.29-1.16-2.06-2.76-2.1-4.39h0c-.08-3.18,2.48-5.98,5.7-6.23,1.72-.14,3.35.42,4.61,1.55,1.25,1.13,1.96,2.7,1.99,4.41.07,3.25-2.4,6.01-5.62,6.28-.15.01-.31.02-.46.02ZM617.47,386.68c.03,1.17.59,2.32,1.54,3.17.95.85,2.16,1.27,3.31,1.19,2.33-.2,4.12-2.2,4.07-4.55-.03-1.24-.54-2.38-1.44-3.19-.9-.82-2.09-1.22-3.34-1.12-2.3.18-4.2,2.24-4.14,4.5h0Z"/>
      </g>
      <g>
        <path class="cls-2" d="M29.23,798.34c-.1,0-.2,0-.3,0-3.22-.15-5.85-2.87-5.88-6.06-.01-1.65.69-3.29,1.93-4.48,1.24-1.19,2.88-1.82,4.54-1.74h0c1.68.09,3.21.85,4.32,2.15,1.1,1.29,1.64,2.99,1.46,4.67-.33,3.12-2.97,5.46-6.09,5.46ZM29.24,787.75c-1.11,0-2.23.46-3.08,1.27-.91.87-1.42,2.05-1.41,3.24.02,2.3,1.93,4.27,4.26,4.38,2.37.15,4.37-1.58,4.62-3.94.13-1.21-.26-2.45-1.07-3.39-.8-.94-1.91-1.49-3.12-1.55h0c-.07,0-.14,0-.21,0Z"/>
        <path class="cls-2" d="M29.31,717.98c-2.32.04-4.4-2.09-4.31-4.4.09-2.2,1.93-3.99,4.15-4.03,2.43-.05,4.37,1.93,4.27,4.36-.09,2.21-1.93,4.03-4.12,4.07Z"/>
        <path class="cls-2" d="M29.25,772.38c-1.49,0-2.95-.54-4.09-1.54-1.28-1.12-2.03-2.66-2.09-4.34-.07-1.62.59-3.26,1.81-4.5,1.22-1.24,2.84-1.95,4.47-1.91,3.19.06,5.88,2.72,6,5.94.12,3.3-2.25,6.02-5.53,6.33-.19.02-.38.03-.57.03ZM29.25,761.79c-1.14,0-2.28.51-3.16,1.4-.89.91-1.37,2.09-1.33,3.25h0c.05,1.21.59,2.32,1.52,3.13.94.83,2.15,1.21,3.39,1.1,2.37-.22,4.08-2.19,3.99-4.58-.09-2.33-2.04-4.26-4.34-4.31-.02,0-.05,0-.07,0Z"/>
        <path class="cls-2" d="M29.26,745.85c-1.47,0-2.95-.58-4.12-1.63-1.29-1.16-2.06-2.76-2.1-4.39h0c-.08-3.18,2.48-5.98,5.7-6.23,1.72-.14,3.35.42,4.61,1.55,1.25,1.13,1.96,2.7,1.99,4.41.07,3.25-2.4,6.01-5.62,6.28-.15.01-.31.02-.46.02ZM24.74,739.79c.03,1.17.59,2.32,1.54,3.17.95.85,2.16,1.28,3.31,1.19,2.33-.2,4.12-2.2,4.07-4.55-.03-1.24-.54-2.38-1.44-3.19-.9-.82-2.09-1.21-3.34-1.12-2.3.18-4.2,2.24-4.14,4.5h0Z"/>
        <path class="cls-2" d="M29.26,693.95c-1.47,0-2.95-.58-4.12-1.63-1.29-1.16-2.06-2.76-2.1-4.39h0c-.08-3.18,2.48-5.98,5.7-6.23,1.72-.14,3.35.42,4.61,1.55,1.25,1.13,1.96,2.7,1.99,4.41.07,3.25-2.4,6.01-5.62,6.28-.15.01-.31.02-.46.02ZM24.74,687.88c.03,1.17.59,2.32,1.54,3.17.95.85,2.16,1.27,3.31,1.19,2.33-.2,4.12-2.2,4.07-4.55-.03-1.24-.54-2.38-1.44-3.19-.9-.82-2.09-1.22-3.34-1.12-2.3.18-4.2,2.24-4.14,4.5h0Z"/>
      </g>
      <g>
        <circle class="cls-1" cx="185.83" cy="150.5" r="2.64"/>
        <circle class="cls-1" cx="161.9" cy="150.5" r="2.64"/>
        <circle class="cls-1" cx="137.97" cy="150.5" r="2.64"/>
        <path class="cls-1" d="M114.03,153.14c1.46,0,2.64-1.18,2.64-2.64s-1.18-2.64-2.64-2.64-2.64,1.18-2.64,2.64,1.18,2.64,2.64,2.64Z"/>
        <circle class="cls-1" cx="90.1" cy="150.5" r="2.64"/>
        <circle class="cls-1" cx="66.16" cy="150.5" r="2.64"/>
        <circle class="cls-1" cx="42.23" cy="150.5" r="2.64"/>
        <circle class="cls-1" cx="185.83" cy="129.09" r="2.64"/>
        <circle class="cls-1" cx="161.9" cy="129.09" r="2.64"/>
        <circle class="cls-1" cx="137.97" cy="129.09" r="2.64"/>
        <path class="cls-1" d="M114.03,131.74c1.46,0,2.64-1.18,2.64-2.64s-1.18-2.64-2.64-2.64-2.64,1.18-2.64,2.64,1.18,2.64,2.64,2.64Z"/>
        <circle class="cls-1" cx="90.1" cy="129.09" r="2.64"/>
        <circle class="cls-1" cx="66.16" cy="129.09" r="2.64"/>
        <circle class="cls-1" cx="42.23" cy="129.09" r="2.64"/>
        <circle class="cls-1" cx="185.83" cy="107.69" r="2.64"/>
        <circle class="cls-1" cx="161.9" cy="107.69" r="2.64"/>
        <circle class="cls-1" cx="137.97" cy="107.69" r="2.64"/>
        <path class="cls-1" d="M114.03,110.33c1.46,0,2.64-1.18,2.64-2.64s-1.18-2.64-2.64-2.64-2.64,1.18-2.64,2.64,1.18,2.64,2.64,2.64Z"/>
        <circle class="cls-1" cx="90.1" cy="107.69" r="2.64"/>
        <circle class="cls-1" cx="66.16" cy="107.69" r="2.64"/>
        <circle class="cls-1" cx="42.23" cy="107.69" r="2.64"/>
        <circle class="cls-1" cx="185.83" cy="86.28" r="2.64"/>
        <circle class="cls-1" cx="161.9" cy="86.28" r="2.64"/>
        <circle class="cls-1" cx="137.97" cy="86.28" r="2.64"/>
        <path class="cls-1" d="M114.03,88.93c1.46,0,2.64-1.18,2.64-2.64s-1.18-2.64-2.64-2.64-2.64,1.18-2.64,2.64,1.18,2.64,2.64,2.64Z"/>
        <circle class="cls-1" cx="90.1" cy="86.28" r="2.64"/>
        <circle class="cls-1" cx="66.16" cy="86.28" r="2.64"/>
        <circle class="cls-1" cx="42.23" cy="86.28" r="2.64"/>
        <circle class="cls-1" cx="185.83" cy="64.88" r="2.64"/>
        <circle class="cls-1" cx="161.9" cy="64.88" r="2.64"/>
        <circle class="cls-1" cx="137.97" cy="64.88" r="2.64"/>
        <path class="cls-1" d="M114.03,67.52c1.46,0,2.64-1.18,2.64-2.64s-1.18-2.64-2.64-2.64-2.64,1.18-2.64,2.64,1.18,2.64,2.64,2.64Z"/>
        <circle class="cls-1" cx="90.1" cy="64.88" r="2.64"/>
        <circle class="cls-1" cx="66.16" cy="64.88" r="2.64"/>
        <circle class="cls-1" cx="42.23" cy="64.88" r="2.64"/>
      </g>
      <g>
        <circle class="cls-1" cx="267.76" cy="835.01" r="2.64"/>
        <path class="cls-1" d="M243.82,837.65c1.46,0,2.64-1.18,2.64-2.64s-1.18-2.64-2.64-2.64-2.64,1.18-2.64,2.64,1.18,2.64,2.64,2.64Z"/>
        <circle class="cls-1" cx="219.89" cy="835.01" r="2.64"/>
        <path class="cls-1" d="M195.96,837.65c1.46,0,2.64-1.18,2.64-2.64s-1.18-2.64-2.64-2.64-2.64,1.18-2.64,2.64,1.18,2.64,2.64,2.64Z"/>
        <circle class="cls-1" cx="172.02" cy="835.01" r="2.64"/>
        <circle class="cls-1" cx="148.09" cy="835.01" r="2.64"/>
        <circle class="cls-1" cx="124.16" cy="835.01" r="2.64"/>
        <circle class="cls-1" cx="267.76" cy="813.6" r="2.64"/>
        <path class="cls-1" d="M243.82,816.25c1.46,0,2.64-1.18,2.64-2.64s-1.18-2.64-2.64-2.64-2.64,1.18-2.64,2.64,1.18,2.64,2.64,2.64Z"/>
        <circle class="cls-1" cx="219.89" cy="813.6" r="2.64"/>
        <path class="cls-1" d="M195.96,816.25c1.46,0,2.64-1.18,2.64-2.64s-1.18-2.64-2.64-2.64-2.64,1.18-2.64,2.64,1.18,2.64,2.64,2.64Z"/>
        <circle class="cls-1" cx="172.02" cy="813.6" r="2.64"/>
        <circle class="cls-1" cx="148.09" cy="813.6" r="2.64"/>
        <circle class="cls-1" cx="124.16" cy="813.6" r="2.64"/>
        <circle class="cls-1" cx="267.76" cy="792.2" r="2.64"/>
        <path class="cls-1" d="M243.82,794.84c1.46,0,2.64-1.18,2.64-2.64s-1.18-2.64-2.64-2.64-2.64,1.18-2.64,2.64,1.18,2.64,2.64,2.64Z"/>
        <circle class="cls-1" cx="219.89" cy="792.2" r="2.64"/>
        <path class="cls-1" d="M195.96,794.84c1.46,0,2.64-1.18,2.64-2.64s-1.18-2.64-2.64-2.64-2.64,1.18-2.64,2.64,1.18,2.64,2.64,2.64Z"/>
        <circle class="cls-1" cx="172.02" cy="792.2" r="2.64"/>
        <circle class="cls-1" cx="148.09" cy="792.2" r="2.64"/>
        <circle class="cls-1" cx="124.16" cy="792.2" r="2.64"/>
        <circle class="cls-1" cx="267.76" cy="770.79" r="2.64"/>
        <path class="cls-1" d="M243.82,773.44c1.46,0,2.64-1.18,2.64-2.64s-1.18-2.64-2.64-2.64-2.64,1.18-2.64,2.64,1.18,2.64,2.64,2.64Z"/>
        <circle class="cls-1" cx="219.89" cy="770.79" r="2.64"/>
        <path class="cls-1" d="M195.96,773.44c1.46,0,2.64-1.18,2.64-2.64s-1.18-2.64-2.64-2.64-2.64,1.18-2.64,2.64,1.18,2.64,2.64,2.64Z"/>
        <circle class="cls-1" cx="172.02" cy="770.79" r="2.64"/>
        <circle class="cls-1" cx="148.09" cy="770.79" r="2.64"/>
        <circle class="cls-1" cx="124.16" cy="770.79" r="2.64"/>
        <circle class="cls-1" cx="267.76" cy="749.39" r="2.64"/>
        <path class="cls-1" d="M243.82,752.03c1.46,0,2.64-1.18,2.64-2.64s-1.18-2.64-2.64-2.64-2.64,1.18-2.64,2.64,1.18,2.64,2.64,2.64Z"/>
        <circle class="cls-1" cx="219.89" cy="749.39" r="2.64"/>
        <path class="cls-1" d="M195.96,752.03c1.46,0,2.64-1.18,2.64-2.64s-1.18-2.64-2.64-2.64-2.64,1.18-2.64,2.64,1.18,2.64,2.64,2.64Z"/>
        <circle class="cls-1" cx="172.02" cy="749.39" r="2.64"/>
        <circle class="cls-1" cx="148.09" cy="749.39" r="2.64"/>
        <circle class="cls-1" cx="124.16" cy="749.39" r="2.64"/>
      </g>
      <g>
        <path class="cls-1" d="M452.79,560.95c0,1.46,1.18,2.64,2.64,2.64s2.64-1.18,2.64-2.64-1.18-2.64-2.64-2.64-2.64,1.18-2.64,2.64Z"/>
        <circle class="cls-1" cx="455.44" cy="537.01" r="2.64"/>
        <circle class="cls-1" cx="455.44" cy="513.08" r="2.64"/>
        <circle class="cls-1" cx="455.44" cy="489.15" r="2.64"/>
        <path class="cls-1" d="M452.79,465.21c0,1.46,1.18,2.64,2.64,2.64s2.64-1.18,2.64-2.64-1.18-2.64-2.64-2.64-2.64,1.18-2.64,2.64Z"/>
        <circle class="cls-1" cx="455.44" cy="441.28" r="2.64"/>
        <circle class="cls-1" cx="455.44" cy="417.35" r="2.64"/>
        <path class="cls-1" d="M474.2,560.95c0,1.46,1.18,2.64,2.64,2.64s2.64-1.18,2.64-2.64-1.18-2.64-2.64-2.64-2.64,1.18-2.64,2.64Z"/>
        <circle class="cls-1" cx="476.84" cy="537.01" r="2.64"/>
        <circle class="cls-1" cx="476.84" cy="513.08" r="2.64"/>
        <circle class="cls-1" cx="476.84" cy="489.15" r="2.64"/>
        <path class="cls-1" d="M474.2,465.21c0,1.46,1.18,2.64,2.64,2.64s2.64-1.18,2.64-2.64-1.18-2.64-2.64-2.64-2.64,1.18-2.64,2.64Z"/>
        <circle class="cls-1" cx="476.84" cy="441.28" r="2.64"/>
        <circle class="cls-1" cx="476.84" cy="417.35" r="2.64"/>
        <path class="cls-1" d="M495.61,560.95c0,1.46,1.18,2.64,2.64,2.64s2.64-1.18,2.64-2.64-1.18-2.64-2.64-2.64-2.64,1.18-2.64,2.64Z"/>
        <circle class="cls-1" cx="498.25" cy="537.01" r="2.64"/>
        <circle class="cls-1" cx="498.25" cy="513.08" r="2.64"/>
        <circle class="cls-1" cx="498.25" cy="489.15" r="2.64"/>
        <path class="cls-1" d="M495.61,465.21c0,1.46,1.18,2.64,2.64,2.64s2.64-1.18,2.64-2.64-1.18-2.64-2.64-2.64-2.64,1.18-2.64,2.64Z"/>
        <circle class="cls-1" cx="498.25" cy="441.28" r="2.64"/>
        <circle class="cls-1" cx="498.25" cy="417.35" r="2.64"/>
        <path class="cls-1" d="M517.01,560.95c0,1.46,1.18,2.64,2.64,2.64s2.64-1.18,2.64-2.64-1.18-2.64-2.64-2.64-2.64,1.18-2.64,2.64Z"/>
        <circle class="cls-1" cx="519.65" cy="537.01" r="2.64"/>
        <circle class="cls-1" cx="519.65" cy="513.08" r="2.64"/>
        <circle class="cls-1" cx="519.65" cy="489.15" r="2.64"/>
        <path class="cls-1" d="M517.01,465.21c0,1.46,1.18,2.64,2.64,2.64s2.64-1.18,2.64-2.64-1.18-2.64-2.64-2.64-2.64,1.18-2.64,2.64Z"/>
        <circle class="cls-1" cx="519.65" cy="441.28" r="2.64"/>
        <circle class="cls-1" cx="519.65" cy="417.35" r="2.64"/>
        <path class="cls-1" d="M538.42,560.95c0,1.46,1.18,2.64,2.64,2.64s2.64-1.18,2.64-2.64-1.18-2.64-2.64-2.64-2.64,1.18-2.64,2.64Z"/>
        <circle class="cls-1" cx="541.06" cy="537.01" r="2.64"/>
        <circle class="cls-1" cx="541.06" cy="513.08" r="2.64"/>
        <circle class="cls-1" cx="541.06" cy="489.15" r="2.64"/>
        <path class="cls-1" d="M538.42,465.21c0,1.46,1.18,2.64,2.64,2.64s2.64-1.18,2.64-2.64-1.18-2.64-2.64-2.64-2.64,1.18-2.64,2.64Z"/>
        <circle class="cls-1" cx="541.06" cy="441.28" r="2.64"/>
        <circle class="cls-1" cx="541.06" cy="417.35" r="2.64"/>
      </g>
      <g>
        <path class="cls-2" d="M348.81,416.34c.81,0,1.61.03,2.4.09l.41-5.19c-.92-.07-1.86-.11-2.81-.11-19.37,0-35.12,15.76-35.12,35.12s15.76,35.12,35.12,35.12c.95,0,1.88-.04,2.81-.11l-.41-5.19c-.79.06-1.59.09-2.4.09-16.5,0-29.92-13.42-29.92-29.92s13.42-29.92,29.92-29.92Z"/>
        <path class="cls-2" d="M366.57,415.95c-1.7-1-3.5-1.86-5.34-2.56l-1.84,4.87c1.57.59,3.1,1.33,4.54,2.18l2.64-4.49Z"/>
        <path class="cls-2" d="M359.42,474.24l1.84,4.87c1.84-.7,3.64-1.56,5.34-2.56l-2.64-4.48c-1.45.85-2.98,1.59-4.54,2.18Z"/>
        <path class="cls-2" d="M378.43,442.05l5.15-.72c-.27-1.95-.72-3.89-1.32-5.77l-4.96,1.58c.51,1.6.89,3.25,1.12,4.91Z"/>
        <path class="cls-2" d="M378.44,450.44c-.23,1.66-.61,3.31-1.12,4.91l4.96,1.58c.6-1.88,1.04-3.82,1.31-5.77l-5.15-.72Z"/>
        <path class="cls-2" d="M377.98,426.69c-1.1-1.63-2.34-3.19-3.7-4.61l-3.77,3.58c1.16,1.22,2.22,2.54,3.15,3.94l4.32-2.9Z"/>
        <path class="cls-2" d="M370.52,466.84l3.78,3.58c1.36-1.43,2.6-2.99,3.69-4.62l-4.32-2.9c-.94,1.39-2,2.72-3.15,3.94Z"/>
      </g>
      <g>
        <path class="cls-2" d="M351.28,874.28c.81,0,1.61.03,2.39.09l.41-5.19c-.92-.07-1.86-.11-2.81-.11-19.37,0-35.12,15.76-35.12,35.12s15.76,35.12,35.12,35.12c.95,0,1.88-.04,2.81-.11l-.41-5.19c-.79.06-1.59.09-2.39.09-16.5,0-29.92-13.42-29.92-29.92s13.42-29.92,29.92-29.92Z"/>
        <path class="cls-2" d="M369.05,873.89c-1.7-1-3.5-1.86-5.34-2.56l-1.84,4.87c1.57.59,3.1,1.33,4.54,2.18l2.64-4.49Z"/>
        <path class="cls-2" d="M361.89,932.18l1.84,4.87c1.84-.7,3.64-1.56,5.34-2.56l-2.64-4.48c-1.45.85-2.98,1.59-4.54,2.18Z"/>
        <path class="cls-2" d="M380.9,899.99l5.15-.72c-.27-1.95-.72-3.89-1.32-5.77l-4.96,1.58c.51,1.6.89,3.25,1.12,4.91Z"/>
        <path class="cls-2" d="M380.91,908.38c-.23,1.66-.61,3.31-1.12,4.91l4.96,1.58c.6-1.88,1.04-3.82,1.31-5.77l-5.15-.72Z"/>
        <path class="cls-2" d="M380.45,884.63c-1.1-1.63-2.34-3.19-3.7-4.61l-3.77,3.58c1.16,1.22,2.22,2.54,3.15,3.94l4.32-2.9Z"/>
        <path class="cls-2" d="M372.99,924.78l3.78,3.58c1.36-1.43,2.6-2.99,3.69-4.62l-4.32-2.9c-.94,1.39-2,2.72-3.15,3.94Z"/>
      </g>
      <path class="cls-3" d="M432.49,13.37c9.3,0,13.89,7.7,17.95,14.49,3.9,6.55,7.28,12.2,13.91,12.2s10-5.65,13.9-12.2c4.05-6.79,8.65-14.49,17.95-14.49s13.89,7.7,17.94,14.49c3.9,6.54,7.27,12.2,13.89,12.2s9.98-5.65,13.88-12.2c4.05-6.79,8.64-14.49,17.92-14.49s13.88,7.7,17.93,14.49c3.9,6.54,7.27,12.2,13.89,12.2s9.98-5.65,13.88-12.19c4.05-6.79,8.64-14.49,17.93-14.49s13.88,7.7,17.93,14.49c3.9,6.54,7.27,12.2,13.88,12.2v4.71c-9.29,0-13.88-7.7-17.93-14.49-3.9-6.54-7.27-12.2-13.88-12.2s-9.99,5.65-13.89,12.2c-4.05,6.79-8.64,14.49-17.93,14.49s-13.88-7.7-17.93-14.49c-3.9-6.54-7.27-12.2-13.89-12.2s-9.98,5.65-13.88,12.2c-4.05,6.79-8.64,14.49-17.92,14.49s-13.89-7.7-17.94-14.49c-3.9-6.54-7.27-12.2-13.89-12.2s-10,5.65-13.91,12.2c-4.05,6.79-8.65,14.49-17.95,14.49s-13.9-7.7-17.95-14.49c-3.9-6.54-7.28-12.2-13.9-12.2v-4.71Z"/>
      <path class="cls-3" d="M432.49,36.42c9.3,0,13.89,7.7,17.95,14.49,3.9,6.55,7.28,12.2,13.91,12.2s10-5.65,13.9-12.2c4.05-6.79,8.65-14.49,17.95-14.49s13.89,7.7,17.94,14.49c3.9,6.54,7.27,12.2,13.89,12.2s9.98-5.65,13.88-12.2c4.05-6.79,8.64-14.49,17.92-14.49s13.88,7.7,17.93,14.49c3.9,6.54,7.27,12.2,13.89,12.2s9.98-5.65,13.88-12.19c4.05-6.79,8.64-14.49,17.93-14.49s13.88,7.7,17.93,14.49c3.9,6.54,7.27,12.2,13.88,12.2v4.71c-9.29,0-13.88-7.7-17.93-14.49-3.9-6.54-7.27-12.2-13.88-12.2s-9.99,5.65-13.89,12.2c-4.05,6.79-8.64,14.49-17.93,14.49s-13.88-7.7-17.93-14.49c-3.9-6.54-7.27-12.2-13.89-12.2s-9.98,5.65-13.88,12.2c-4.05,6.79-8.64,14.49-17.92,14.49s-13.89-7.7-17.94-14.49c-3.9-6.54-7.27-12.2-13.89-12.2s-10,5.65-13.91,12.2c-4.05,6.79-8.65,14.49-17.95,14.49s-13.9-7.7-17.95-14.49c-3.9-6.54-7.28-12.2-13.9-12.2v-4.71Z"/>
      <path class="cls-2" d="M365.4,685.56c9.3,0,13.89,7.7,17.95,14.49,3.9,6.55,7.28,12.2,13.91,12.2s10-5.65,13.9-12.2c4.05-6.79,8.65-14.49,17.95-14.49s13.89,7.7,17.94,14.49c3.9,6.54,7.27,12.2,13.89,12.2s9.98-5.65,13.88-12.2c4.05-6.79,8.64-14.49,17.92-14.49s13.88,7.7,17.93,14.49c3.9,6.54,7.27,12.2,13.89,12.2s9.98-5.65,13.88-12.19c4.05-6.79,8.64-14.49,17.93-14.49s13.88,7.7,17.93,14.49c3.9,6.54,7.27,12.2,13.88,12.2v4.71c-9.29,0-13.88-7.7-17.93-14.49-3.9-6.54-7.27-12.2-13.88-12.2s-9.99,5.65-13.89,12.2c-4.05,6.79-8.64,14.49-17.93,14.49s-13.88-7.7-17.93-14.49c-3.9-6.54-7.27-12.2-13.89-12.2s-9.98,5.65-13.88,12.2c-4.05,6.79-8.64,14.49-17.92,14.49s-13.89-7.7-17.94-14.49c-3.9-6.54-7.27-12.2-13.89-12.2s-10,5.65-13.91,12.2c-4.05,6.79-8.65,14.49-17.95,14.49s-13.9-7.7-17.95-14.49c-3.9-6.54-7.28-12.2-13.9-12.2v-4.71Z"/>
      <path class="cls-3" d="M365.4,708.61c9.3,0,13.89,7.7,17.95,14.49,3.9,6.55,7.28,12.2,13.91,12.2s10-5.65,13.9-12.2c4.05-6.79,8.65-14.49,17.95-14.49s13.89,7.7,17.94,14.49c3.9,6.54,7.27,12.2,13.89,12.2s9.98-5.65,13.88-12.2c4.05-6.79,8.64-14.49,17.92-14.49s13.88,7.7,17.93,14.49c3.9,6.54,7.27,12.2,13.89,12.2s9.98-5.65,13.88-12.19c4.05-6.79,8.64-14.49,17.93-14.49s13.88,7.7,17.93,14.49c3.9,6.54,7.27,12.2,13.88,12.2v4.71c-9.29,0-13.88-7.7-17.93-14.49-3.9-6.54-7.27-12.2-13.88-12.2s-9.99,5.65-13.89,12.2c-4.05,6.79-8.64,14.49-17.93,14.49s-13.88-7.7-17.93-14.49c-3.9-6.54-7.27-12.2-13.89-12.2s-9.98,5.65-13.88,12.2c-4.05,6.79-8.64,14.49-17.92,14.49s-13.89-7.7-17.94-14.49c-3.9-6.54-7.27-12.2-13.89-12.2s-10,5.65-13.91,12.2c-4.05,6.79-8.65,14.49-17.95,14.49s-13.9-7.7-17.95-14.49c-3.9-6.54-7.28-12.2-13.9-12.2v-4.71Z"/>
      <path class="cls-2" d="M432.49,59.48c9.3,0,13.89,7.7,17.95,14.49,3.9,6.55,7.28,12.2,13.91,12.2s10-5.65,13.9-12.2c4.05-6.79,8.65-14.49,17.95-14.49s13.89,7.7,17.94,14.49c3.9,6.54,7.27,12.2,13.89,12.2s9.98-5.65,13.88-12.2c4.05-6.79,8.64-14.49,17.92-14.49s13.88,7.7,17.93,14.49c3.9,6.54,7.27,12.2,13.89,12.2s9.98-5.65,13.88-12.19c4.05-6.79,8.64-14.49,17.93-14.49s13.88,7.7,17.93,14.49c3.9,6.54,7.27,12.2,13.88,12.2v4.71c-9.29,0-13.88-7.7-17.93-14.49-3.9-6.54-7.27-12.2-13.88-12.2s-9.99,5.65-13.89,12.2c-4.05,6.79-8.64,14.49-17.93,14.49s-13.88-7.7-17.93-14.49c-3.9-6.54-7.27-12.2-13.89-12.2s-9.98,5.65-13.88,12.2c-4.05,6.79-8.64,14.49-17.92,14.49s-13.89-7.7-17.94-14.49c-3.9-6.54-7.27-12.2-13.89-12.2s-10,5.65-13.91,12.2c-4.05,6.79-8.65,14.49-17.95,14.49s-13.9-7.7-17.95-14.49c-3.9-6.54-7.28-12.2-13.9-12.2v-4.71Z"/>
      <path class="cls-2" d="M0,368.91c9.3,0,13.89,7.7,17.95,14.49,3.9,6.55,7.28,12.2,13.91,12.2s10-5.65,13.9-12.2c4.05-6.79,8.65-14.49,17.95-14.49s13.89,7.7,17.94,14.49c3.9,6.54,7.27,12.2,13.89,12.2s9.98-5.65,13.88-12.2c4.05-6.79,8.64-14.49,17.92-14.49s13.88,7.7,17.93,14.49c3.9,6.54,7.27,12.2,13.89,12.2s9.98-5.65,13.88-12.19c4.05-6.79,8.64-14.49,17.93-14.49s13.88,7.7,17.93,14.49c3.9,6.54,7.27,12.2,13.88,12.2v4.71c-9.29,0-13.88-7.7-17.93-14.49-3.9-6.54-7.27-12.2-13.88-12.2s-9.99,5.65-13.89,12.2c-4.05,6.79-8.64,14.49-17.93,14.49s-13.88-7.7-17.93-14.49c-3.9-6.54-7.27-12.2-13.89-12.2s-9.98,5.65-13.88,12.2c-4.05,6.79-8.64,14.49-17.92,14.49s-13.89-7.7-17.94-14.49c-3.9-6.54-7.27-12.2-13.89-12.2s-10,5.65-13.91,12.2c-4.05,6.79-8.65,14.49-17.95,14.49s-13.9-7.7-17.95-14.49c-3.9-6.54-7.28-12.2-13.9-12.2v-4.71Z"/>
      <g>
        <path class="cls-2" d="M424.99,198.25c-.53.1-1.03.24-1.54.36.17.08.36.12.54.12.41,0,.76-.19,1-.47Z"/>
        <path class="cls-2" d="M432.8,198.73c.73,0,1.32-.59,1.32-1.34,0-.14-.02-.29-.07-.41-.86.05-1.71.12-2.56.2h-.02c-.02.07-.02.14-.02.2,0,.75.59,1.34,1.34,1.34Z"/>
        <path class="cls-2" d="M441.61,198.73c.73,0,1.32-.59,1.32-1.34,0-.07,0-.14-.02-.2h-.02c-.85-.08-1.69-.15-2.56-.2-.05.12-.07.27-.07.41,0,.75.59,1.34,1.34,1.34Z"/>
        <path class="cls-2" d="M450.96,198.61c-.51-.12-1.03-.25-1.56-.36.24.29.61.47,1.02.47.2,0,.37-.05.54-.12Z"/>
        <path class="cls-2" d="M412.08,202.89c-.66.34-1.32.69-1.97,1.07.19.1.42.17.66.17.69,0,1.27-.54,1.3-1.24Z"/>
        <path class="cls-2" d="M419.58,201.47c-.73,0-1.33.6-1.33,1.33s.6,1.33,1.33,1.33,1.33-.6,1.33-1.33-.6-1.33-1.33-1.33Z"/>
        <path class="cls-2" d="M428.39,201.47c-.73,0-1.33.6-1.33,1.33s.6,1.33,1.33,1.33,1.33-.6,1.33-1.33-.6-1.33-1.33-1.33Z"/>
        <path class="cls-2" d="M437.2,201.47c-.73,0-1.33.6-1.33,1.33s.6,1.33,1.33,1.33,1.33-.6,1.33-1.33-.6-1.33-1.33-1.33Z"/>
        <path class="cls-2" d="M446.01,201.47c-.73,0-1.33.6-1.33,1.33s.6,1.33,1.33,1.33,1.33-.6,1.33-1.33-.6-1.33-1.33-1.33Z"/>
        <path class="cls-2" d="M454.82,201.47c-.73,0-1.33.6-1.33,1.33s.6,1.33,1.33,1.33,1.33-.6,1.33-1.33-.6-1.33-1.33-1.33Z"/>
        <path class="cls-2" d="M463.63,204.13c.24,0,.47-.07.66-.19-.66-.36-1.32-.71-1.98-1.05.03.69.63,1.24,1.32,1.24Z"/>
        <path class="cls-2" d="M406.37,207.69c-.73,0-1.33.6-1.33,1.33s.6,1.33,1.33,1.33,1.33-.6,1.33-1.33-.6-1.33-1.33-1.33Z"/>
        <path class="cls-2" d="M415.18,207.69c-.73,0-1.33.6-1.33,1.33s.6,1.33,1.33,1.33,1.33-.6,1.33-1.33-.6-1.33-1.33-1.33Z"/>
        <path class="cls-2" d="M423.99,207.69c-.73,0-1.33.6-1.33,1.33s.6,1.33,1.33,1.33,1.33-.6,1.33-1.33-.6-1.33-1.33-1.33Z"/>
        <circle class="cls-2" cx="432.8" cy="209.02" r="1.33"/>
        <circle class="cls-2" cx="441.61" cy="209.02" r="1.33"/>
        <path class="cls-2" d="M450.41,207.69c-.73,0-1.33.6-1.33,1.33s.6,1.33,1.33,1.33,1.33-.6,1.33-1.33-.6-1.33-1.33-1.33Z"/>
        <path class="cls-2" d="M459.22,207.69c-.73,0-1.33.6-1.33,1.33s.6,1.33,1.33,1.33,1.33-.6,1.33-1.33-.6-1.33-1.33-1.33Z"/>
        <path class="cls-2" d="M468.03,207.69c-.73,0-1.33.6-1.33,1.33s.6,1.33,1.33,1.33,1.33-.6,1.33-1.33-.6-1.33-1.33-1.33Z"/>
        <path class="cls-2" d="M401.96,213.1c-.73,0-1.33.6-1.33,1.33s.6,1.33,1.33,1.33,1.33-.6,1.33-1.33-.6-1.33-1.33-1.33Z"/>
        <path class="cls-2" d="M410.77,213.1c-.73,0-1.33.6-1.33,1.33s.6,1.33,1.33,1.33,1.33-.6,1.33-1.33-.6-1.33-1.33-1.33Z"/>
        <path class="cls-2" d="M419.58,213.1c-.73,0-1.33.6-1.33,1.33s.6,1.33,1.33,1.33,1.33-.6,1.33-1.33-.6-1.33-1.33-1.33Z"/>
        <path class="cls-2" d="M428.39,213.1c-.73,0-1.33.6-1.33,1.33s.6,1.33,1.33,1.33,1.33-.6,1.33-1.33-.6-1.33-1.33-1.33Z"/>
        <path class="cls-2" d="M437.2,213.1c-.73,0-1.33.6-1.33,1.33s.6,1.33,1.33,1.33,1.33-.6,1.33-1.33-.6-1.33-1.33-1.33Z"/>
        <path class="cls-2" d="M446.01,213.1c-.73,0-1.33.6-1.33,1.33s.6,1.33,1.33,1.33,1.33-.6,1.33-1.33-.6-1.33-1.33-1.33Z"/>
        <path class="cls-2" d="M454.82,213.1c-.73,0-1.33.6-1.33,1.33s.6,1.33,1.33,1.33,1.33-.6,1.33-1.33-.6-1.33-1.33-1.33Z"/>
        <path class="cls-2" d="M463.63,213.1c-.73,0-1.33.6-1.33,1.33s.6,1.33,1.33,1.33,1.33-.6,1.33-1.33-.6-1.33-1.33-1.33Z"/>
        <path class="cls-2" d="M472.44,213.1c-.73,0-1.33.6-1.33,1.33s.6,1.33,1.33,1.33,1.33-.6,1.33-1.33-.6-1.33-1.33-1.33Z"/>
        <path class="cls-2" d="M397.56,219.32c-.73,0-1.33.6-1.33,1.33s.6,1.33,1.33,1.33,1.33-.6,1.33-1.33-.6-1.33-1.33-1.33Z"/>
        <path class="cls-2" d="M406.37,219.32c-.73,0-1.33.6-1.33,1.33s.6,1.33,1.33,1.33,1.33-.6,1.33-1.33-.6-1.33-1.33-1.33Z"/>
        <path class="cls-2" d="M415.18,219.32c-.73,0-1.33.6-1.33,1.33s.6,1.33,1.33,1.33,1.33-.6,1.33-1.33-.6-1.33-1.33-1.33Z"/>
        <path class="cls-2" d="M423.99,219.32c-.73,0-1.33.6-1.33,1.33s.6,1.33,1.33,1.33,1.33-.6,1.33-1.33-.6-1.33-1.33-1.33Z"/>
        <path class="cls-2" d="M432.8,219.32c-.73,0-1.33.6-1.33,1.33s.6,1.33,1.33,1.33,1.33-.6,1.33-1.33-.6-1.33-1.33-1.33Z"/>
        <path class="cls-2" d="M441.61,219.32c-.73,0-1.33.6-1.33,1.33s.6,1.33,1.33,1.33,1.33-.6,1.33-1.33-.6-1.33-1.33-1.33Z"/>
        <path class="cls-2" d="M450.41,219.32c-.73,0-1.33.6-1.33,1.33s.6,1.33,1.33,1.33,1.33-.6,1.33-1.33-.6-1.33-1.33-1.33Z"/>
        <path class="cls-2" d="M459.22,219.32c-.73,0-1.33.6-1.33,1.33s.6,1.33,1.33,1.33,1.33-.6,1.33-1.33-.6-1.33-1.33-1.33Z"/>
        <path class="cls-2" d="M468.03,219.32c-.73,0-1.33.6-1.33,1.33s.6,1.33,1.33,1.33,1.33-.6,1.33-1.33-.6-1.33-1.33-1.33Z"/>
        <path class="cls-2" d="M476.84,219.32c-.73,0-1.33.6-1.33,1.33s.6,1.33,1.33,1.33,1.33-.6,1.33-1.33-.6-1.33-1.33-1.33Z"/>
        <path class="cls-2" d="M393.15,224.72c-.73,0-1.33.6-1.33,1.33s.6,1.33,1.33,1.33,1.33-.6,1.33-1.33-.6-1.33-1.33-1.33Z"/>
        <path class="cls-2" d="M401.96,224.72c-.73,0-1.33.6-1.33,1.33s.6,1.33,1.33,1.33,1.33-.6,1.33-1.33-.6-1.33-1.33-1.33Z"/>
        <path class="cls-2" d="M410.77,224.72c-.73,0-1.33.6-1.33,1.33s.6,1.33,1.33,1.33,1.33-.6,1.33-1.33-.6-1.33-1.33-1.33Z"/>
        <path class="cls-2" d="M419.58,224.72c-.73,0-1.33.6-1.33,1.33s.6,1.33,1.33,1.33,1.33-.6,1.33-1.33-.6-1.33-1.33-1.33Z"/>
        <path class="cls-2" d="M428.39,224.72c-.73,0-1.33.6-1.33,1.33s.6,1.33,1.33,1.33,1.33-.6,1.33-1.33-.6-1.33-1.33-1.33Z"/>
        <path class="cls-2" d="M437.2,224.72c-.73,0-1.33.6-1.33,1.33s.6,1.33,1.33,1.33,1.33-.6,1.33-1.33-.6-1.33-1.33-1.33Z"/>
        <path class="cls-2" d="M446.01,224.72c-.73,0-1.33.6-1.33,1.33s.6,1.33,1.33,1.33,1.33-.6,1.33-1.33-.6-1.33-1.33-1.33Z"/>
        <path class="cls-2" d="M454.82,224.72c-.73,0-1.33.6-1.33,1.33s.6,1.33,1.33,1.33,1.33-.6,1.33-1.33-.6-1.33-1.33-1.33Z"/>
        <path class="cls-2" d="M463.63,224.72c-.73,0-1.33.6-1.33,1.33s.6,1.33,1.33,1.33,1.33-.6,1.33-1.33-.6-1.33-1.33-1.33Z"/>
        <path class="cls-2" d="M472.44,224.72c-.73,0-1.33.6-1.33,1.33s.6,1.33,1.33,1.33,1.33-.6,1.33-1.33-.6-1.33-1.33-1.33Z"/>
        <path class="cls-2" d="M481.25,224.72c-.73,0-1.33.6-1.33,1.33s.6,1.33,1.33,1.33,1.33-.6,1.33-1.33-.6-1.33-1.33-1.33Z"/>
        <path class="cls-2" d="M388.75,230.94c-.73,0-1.33.6-1.33,1.33s.6,1.33,1.33,1.33,1.33-.6,1.33-1.33-.6-1.33-1.33-1.33Z"/>
        <path class="cls-2" d="M397.56,230.94c-.73,0-1.33.6-1.33,1.33s.6,1.33,1.33,1.33,1.33-.6,1.33-1.33-.6-1.33-1.33-1.33Z"/>
        <path class="cls-2" d="M406.37,230.94c-.73,0-1.33.6-1.33,1.33s.6,1.33,1.33,1.33,1.33-.6,1.33-1.33-.6-1.33-1.33-1.33Z"/>
        <path class="cls-2" d="M415.18,230.94c-.73,0-1.33.6-1.33,1.33s.6,1.33,1.33,1.33,1.33-.6,1.33-1.33-.6-1.33-1.33-1.33Z"/>
        <path class="cls-2" d="M423.99,230.94c-.73,0-1.33.6-1.33,1.33s.6,1.33,1.33,1.33,1.33-.6,1.33-1.33-.6-1.33-1.33-1.33Z"/>
        <path class="cls-2" d="M432.8,230.94c-.73,0-1.33.6-1.33,1.33s.6,1.33,1.33,1.33,1.33-.6,1.33-1.33-.6-1.33-1.33-1.33Z"/>
        <path class="cls-2" d="M441.61,230.94c-.73,0-1.33.6-1.33,1.33s.6,1.33,1.33,1.33,1.33-.6,1.33-1.33-.6-1.33-1.33-1.33Z"/>
        <path class="cls-2" d="M450.41,230.94c-.73,0-1.33.6-1.33,1.33s.6,1.33,1.33,1.33,1.33-.6,1.33-1.33-.6-1.33-1.33-1.33Z"/>
        <path class="cls-2" d="M459.22,230.94c-.73,0-1.33.6-1.33,1.33s.6,1.33,1.33,1.33,1.33-.6,1.33-1.33-.6-1.33-1.33-1.33Z"/>
        <path class="cls-2" d="M468.03,230.94c-.73,0-1.33.6-1.33,1.33s.6,1.33,1.33,1.33,1.33-.6,1.33-1.33-.6-1.33-1.33-1.33Z"/>
        <path class="cls-2" d="M476.84,230.94c-.73,0-1.33.6-1.33,1.33s.6,1.33,1.33,1.33,1.33-.6,1.33-1.33-.6-1.33-1.33-1.33Z"/>
        <path class="cls-2" d="M485.65,230.94c-.73,0-1.33.6-1.33,1.33s.6,1.33,1.33,1.33,1.33-.6,1.33-1.33-.6-1.33-1.33-1.33Z"/>
        <path class="cls-2" d="M385.67,237.67c0-.73-.59-1.32-1.32-1.32-.12,0-.22.02-.32.05-.22.73-.42,1.47-.61,2.24.24.24.56.37.93.37.73,0,1.32-.59,1.32-1.34Z"/>
        <path class="cls-2" d="M393.15,236.35c-.73,0-1.33.6-1.33,1.33s.6,1.33,1.33,1.33,1.33-.6,1.33-1.33-.6-1.33-1.33-1.33Z"/>
        <path class="cls-2" d="M401.96,236.35c-.73,0-1.33.6-1.33,1.33s.6,1.33,1.33,1.33,1.33-.6,1.33-1.33-.6-1.33-1.33-1.33Z"/>
        <circle class="cls-2" cx="410.77" cy="237.68" r="1.33"/>
        <path class="cls-2" d="M419.58,236.35c-.73,0-1.33.6-1.33,1.33s.6,1.33,1.33,1.33,1.33-.6,1.33-1.33-.6-1.33-1.33-1.33Z"/>
        <path class="cls-2" d="M428.39,236.35c-.73,0-1.33.6-1.33,1.33s.6,1.33,1.33,1.33,1.33-.6,1.33-1.33-.6-1.33-1.33-1.33Z"/>
        <path class="cls-2" d="M437.2,236.35c-.73,0-1.33.6-1.33,1.33s.6,1.33,1.33,1.33,1.33-.6,1.33-1.33-.6-1.33-1.33-1.33Z"/>
        <path class="cls-2" d="M446.01,236.35c-.73,0-1.33.6-1.33,1.33s.6,1.33,1.33,1.33,1.33-.6,1.33-1.33-.6-1.33-1.33-1.33Z"/>
        <path class="cls-2" d="M454.82,236.35c-.73,0-1.33.6-1.33,1.33s.6,1.33,1.33,1.33,1.33-.6,1.33-1.33-.6-1.33-1.33-1.33Z"/>
        <path class="cls-2" d="M463.63,236.35c-.73,0-1.33.6-1.33,1.33s.6,1.33,1.33,1.33,1.33-.6,1.33-1.33-.6-1.33-1.33-1.33Z"/>
        <circle class="cls-2" cx="472.44" cy="237.68" r="1.33"/>
        <path class="cls-2" d="M481.25,236.35c-.73,0-1.33.6-1.33,1.33s.6,1.33,1.33,1.33,1.33-.6,1.33-1.33-.6-1.33-1.33-1.33Z"/>
        <path class="cls-2" d="M490.06,239.01c.36,0,.68-.14.93-.37-.19-.76-.39-1.51-.61-2.24-.1-.03-.2-.05-.32-.05-.73,0-1.32.59-1.32,1.32s.59,1.34,1.32,1.34Z"/>
        <path class="cls-2" d="M388.75,242.57c-.73,0-1.33.6-1.33,1.33s.6,1.33,1.33,1.33,1.33-.6,1.33-1.33-.6-1.33-1.33-1.33Z"/>
        <path class="cls-2" d="M397.56,242.57c-.73,0-1.33.6-1.33,1.33s.6,1.33,1.33,1.33,1.33-.6,1.33-1.33-.6-1.33-1.33-1.33Z"/>
        <path class="cls-2" d="M406.37,242.57c-.73,0-1.33.6-1.33,1.33s.6,1.33,1.33,1.33,1.33-.6,1.33-1.33-.6-1.33-1.33-1.33Z"/>
        <path class="cls-2" d="M415.18,242.57c-.73,0-1.33.6-1.33,1.33s.6,1.33,1.33,1.33,1.33-.6,1.33-1.33-.6-1.33-1.33-1.33Z"/>
        <path class="cls-2" d="M423.99,242.57c-.73,0-1.33.6-1.33,1.33s.6,1.33,1.33,1.33,1.33-.6,1.33-1.33-.6-1.33-1.33-1.33Z"/>
        <path class="cls-2" d="M432.8,242.57c-.73,0-1.33.6-1.33,1.33s.6,1.33,1.33,1.33,1.33-.6,1.33-1.33-.6-1.33-1.33-1.33Z"/>
        <path class="cls-2" d="M441.61,242.57c-.73,0-1.33.6-1.33,1.33s.6,1.33,1.33,1.33,1.33-.6,1.33-1.33-.6-1.33-1.33-1.33Z"/>
        <path class="cls-2" d="M450.41,242.57c-.73,0-1.33.6-1.33,1.33s.6,1.33,1.33,1.33,1.33-.6,1.33-1.33-.6-1.33-1.33-1.33Z"/>
        <path class="cls-2" d="M459.22,242.57c-.73,0-1.33.6-1.33,1.33s.6,1.33,1.33,1.33,1.33-.6,1.33-1.33-.6-1.33-1.33-1.33Z"/>
        <path class="cls-2" d="M468.03,242.57c-.73,0-1.33.6-1.33,1.33s.6,1.33,1.33,1.33,1.33-.6,1.33-1.33-.6-1.33-1.33-1.33Z"/>
        <path class="cls-2" d="M476.84,242.57c-.73,0-1.33.6-1.33,1.33s.6,1.33,1.33,1.33,1.33-.6,1.33-1.33-.6-1.33-1.33-1.33Z"/>
        <path class="cls-2" d="M485.65,242.57c-.73,0-1.33.6-1.33,1.33s.6,1.33,1.33,1.33,1.33-.6,1.33-1.33-.6-1.33-1.33-1.33Z"/>
        <path class="cls-2" d="M384.35,247.97c-.73,0-1.33.6-1.33,1.33s.6,1.33,1.33,1.33,1.33-.6,1.33-1.33-.6-1.33-1.33-1.33Z"/>
        <path class="cls-2" d="M393.15,247.97c-.73,0-1.33.6-1.33,1.33s.6,1.33,1.33,1.33,1.33-.6,1.33-1.33-.6-1.33-1.33-1.33Z"/>
        <path class="cls-2" d="M401.96,247.97c-.73,0-1.33.6-1.33,1.33s.6,1.33,1.33,1.33,1.33-.6,1.33-1.33-.6-1.33-1.33-1.33Z"/>
        <path class="cls-2" d="M410.77,247.97c-.73,0-1.33.6-1.33,1.33s.6,1.33,1.33,1.33,1.33-.6,1.33-1.33-.6-1.33-1.33-1.33Z"/>
        <path class="cls-2" d="M419.58,247.97c-.73,0-1.33.6-1.33,1.33s.6,1.33,1.33,1.33,1.33-.6,1.33-1.33-.6-1.33-1.33-1.33Z"/>
        <path class="cls-2" d="M428.39,247.97c-.73,0-1.33.6-1.33,1.33s.6,1.33,1.33,1.33,1.33-.6,1.33-1.33-.6-1.33-1.33-1.33Z"/>
        <path class="cls-2" d="M437.2,247.97c-.73,0-1.33.6-1.33,1.33s.6,1.33,1.33,1.33,1.33-.6,1.33-1.33-.6-1.33-1.33-1.33Z"/>
        <path class="cls-2" d="M446.01,247.97c-.73,0-1.33.6-1.33,1.33s.6,1.33,1.33,1.33,1.33-.6,1.33-1.33-.6-1.33-1.33-1.33Z"/>
        <path class="cls-2" d="M454.82,247.97c-.73,0-1.33.6-1.33,1.33s.6,1.33,1.33,1.33,1.33-.6,1.33-1.33-.6-1.33-1.33-1.33Z"/>
        <path class="cls-2" d="M463.63,247.97c-.73,0-1.33.6-1.33,1.33s.6,1.33,1.33,1.33,1.33-.6,1.33-1.33-.6-1.33-1.33-1.33Z"/>
        <path class="cls-2" d="M472.44,247.97c-.73,0-1.33.6-1.33,1.33s.6,1.33,1.33,1.33,1.33-.6,1.33-1.33-.6-1.33-1.33-1.33Z"/>
        <path class="cls-2" d="M481.25,247.97c-.73,0-1.33.6-1.33,1.33s.6,1.33,1.33,1.33,1.33-.6,1.33-1.33-.6-1.33-1.33-1.33Z"/>
        <path class="cls-2" d="M490.06,250.63c.73,0,1.33-.6,1.33-1.33s-.6-1.33-1.33-1.33-1.33.6-1.33,1.33.6,1.33,1.33,1.33Z"/>
        <path class="cls-2" d="M388.75,254.19c-.73,0-1.33.6-1.33,1.33s.6,1.33,1.33,1.33,1.33-.6,1.33-1.33-.6-1.33-1.33-1.33Z"/>
        <path class="cls-2" d="M397.56,254.19c-.73,0-1.33.6-1.33,1.33s.6,1.33,1.33,1.33,1.33-.6,1.33-1.33-.6-1.33-1.33-1.33Z"/>
        <path class="cls-2" d="M406.37,254.19c-.73,0-1.33.6-1.33,1.33s.6,1.33,1.33,1.33,1.33-.6,1.33-1.33-.6-1.33-1.33-1.33Z"/>
        <path class="cls-2" d="M415.18,254.19c-.73,0-1.33.6-1.33,1.33s.6,1.33,1.33,1.33,1.33-.6,1.33-1.33-.6-1.33-1.33-1.33Z"/>
        <path class="cls-2" d="M423.99,254.19c-.73,0-1.33.6-1.33,1.33s.6,1.33,1.33,1.33,1.33-.6,1.33-1.33-.6-1.33-1.33-1.33Z"/>
        <path class="cls-2" d="M432.8,254.19c-.73,0-1.33.6-1.33,1.33s.6,1.33,1.33,1.33,1.33-.6,1.33-1.33-.6-1.33-1.33-1.33Z"/>
        <path class="cls-2" d="M441.61,254.19c-.73,0-1.33.6-1.33,1.33s.6,1.33,1.33,1.33,1.33-.6,1.33-1.33-.6-1.33-1.33-1.33Z"/>
        <path class="cls-2" d="M450.41,254.19c-.73,0-1.33.6-1.33,1.33s.6,1.33,1.33,1.33,1.33-.6,1.33-1.33-.6-1.33-1.33-1.33Z"/>
        <path class="cls-2" d="M459.22,254.19c-.73,0-1.33.6-1.33,1.33s.6,1.33,1.33,1.33,1.33-.6,1.33-1.33-.6-1.33-1.33-1.33Z"/>
        <path class="cls-2" d="M468.03,254.19c-.73,0-1.33.6-1.33,1.33s.6,1.33,1.33,1.33,1.33-.6,1.33-1.33-.6-1.33-1.33-1.33Z"/>
        <path class="cls-2" d="M476.84,254.19c-.73,0-1.33.6-1.33,1.33s.6,1.33,1.33,1.33,1.33-.6,1.33-1.33-.6-1.33-1.33-1.33Z"/>
        <path class="cls-2" d="M485.65,254.19c-.73,0-1.33.6-1.33,1.33s.6,1.33,1.33,1.33,1.33-.6,1.33-1.33-.6-1.33-1.33-1.33Z"/>
        <path class="cls-2" d="M384.35,259.6c-.73,0-1.33.6-1.33,1.33s.6,1.33,1.33,1.33,1.33-.6,1.33-1.33-.6-1.33-1.33-1.33Z"/>
        <path class="cls-2" d="M393.15,259.6c-.73,0-1.33.6-1.33,1.33s.6,1.33,1.33,1.33,1.33-.6,1.33-1.33-.6-1.33-1.33-1.33Z"/>
        <path class="cls-2" d="M401.96,259.6c-.73,0-1.33.6-1.33,1.33s.6,1.33,1.33,1.33,1.33-.6,1.33-1.33-.6-1.33-1.33-1.33Z"/>
        <path class="cls-2" d="M410.77,259.6c-.73,0-1.33.6-1.33,1.33s.6,1.33,1.33,1.33,1.33-.6,1.33-1.33-.6-1.33-1.33-1.33Z"/>
        <path class="cls-2" d="M419.58,259.6c-.73,0-1.33.6-1.33,1.33s.6,1.33,1.33,1.33,1.33-.6,1.33-1.33-.6-1.33-1.33-1.33Z"/>
        <path class="cls-2" d="M428.39,259.6c-.73,0-1.33.6-1.33,1.33s.6,1.33,1.33,1.33,1.33-.6,1.33-1.33-.6-1.33-1.33-1.33Z"/>
        <path class="cls-2" d="M437.2,259.6c-.73,0-1.33.6-1.33,1.33s.6,1.33,1.33,1.33,1.33-.6,1.33-1.33-.6-1.33-1.33-1.33Z"/>
        <path class="cls-2" d="M446.01,259.6c-.73,0-1.33.6-1.33,1.33s.6,1.33,1.33,1.33,1.33-.6,1.33-1.33-.6-1.33-1.33-1.33Z"/>
        <path class="cls-2" d="M454.82,259.6c-.73,0-1.33.6-1.33,1.33s.6,1.33,1.33,1.33,1.33-.6,1.33-1.33-.6-1.33-1.33-1.33Z"/>
        <path class="cls-2" d="M463.63,259.6c-.73,0-1.33.6-1.33,1.33s.6,1.33,1.33,1.33,1.33-.6,1.33-1.33-.6-1.33-1.33-1.33Z"/>
        <path class="cls-2" d="M472.44,259.6c-.73,0-1.33.6-1.33,1.33s.6,1.33,1.33,1.33,1.33-.6,1.33-1.33-.6-1.33-1.33-1.33Z"/>
        <path class="cls-2" d="M481.25,259.6c-.73,0-1.33.6-1.33,1.33s.6,1.33,1.33,1.33,1.33-.6,1.33-1.33-.6-1.33-1.33-1.33Z"/>
        <path class="cls-2" d="M490.06,259.6c-.73,0-1.33.6-1.33,1.33s.6,1.33,1.33,1.33,1.33-.6,1.33-1.33-.6-1.33-1.33-1.33Z"/>
        <path class="cls-2" d="M388.75,265.82c-.73,0-1.33.6-1.33,1.33s.6,1.33,1.33,1.33,1.33-.6,1.33-1.33-.6-1.33-1.33-1.33Z"/>
        <path class="cls-2" d="M397.56,265.82c-.73,0-1.33.6-1.33,1.33s.6,1.33,1.33,1.33,1.33-.6,1.33-1.33-.6-1.33-1.33-1.33Z"/>
        <path class="cls-2" d="M406.37,265.82c-.73,0-1.33.6-1.33,1.33s.6,1.33,1.33,1.33,1.33-.6,1.33-1.33-.6-1.33-1.33-1.33Z"/>
        <path class="cls-2" d="M415.18,265.82c-.73,0-1.33.6-1.33,1.33s.6,1.33,1.33,1.33,1.33-.6,1.33-1.33-.6-1.33-1.33-1.33Z"/>
        <path class="cls-2" d="M423.99,265.82c-.73,0-1.33.6-1.33,1.33s.6,1.33,1.33,1.33,1.33-.6,1.33-1.33-.6-1.33-1.33-1.33Z"/>
        <path class="cls-2" d="M432.8,265.82c-.73,0-1.33.6-1.33,1.33s.6,1.33,1.33,1.33,1.33-.6,1.33-1.33-.6-1.33-1.33-1.33Z"/>
        <path class="cls-2" d="M441.61,265.82c-.73,0-1.33.6-1.33,1.33s.6,1.33,1.33,1.33,1.33-.6,1.33-1.33-.6-1.33-1.33-1.33Z"/>
        <path class="cls-2" d="M450.41,265.82c-.73,0-1.33.6-1.33,1.33s.6,1.33,1.33,1.33,1.33-.6,1.33-1.33-.6-1.33-1.33-1.33Z"/>
        <path class="cls-2" d="M459.22,265.82c-.73,0-1.33.6-1.33,1.33s.6,1.33,1.33,1.33,1.33-.6,1.33-1.33-.6-1.33-1.33-1.33Z"/>
        <path class="cls-2" d="M468.03,265.82c-.73,0-1.33.6-1.33,1.33s.6,1.33,1.33,1.33,1.33-.6,1.33-1.33-.6-1.33-1.33-1.33Z"/>
        <path class="cls-2" d="M476.84,265.82c-.73,0-1.33.6-1.33,1.33s.6,1.33,1.33,1.33,1.33-.6,1.33-1.33-.6-1.33-1.33-1.33Z"/>
        <path class="cls-2" d="M485.65,265.82c-.73,0-1.33.6-1.33,1.33s.6,1.33,1.33,1.33,1.33-.6,1.33-1.33-.6-1.33-1.33-1.33Z"/>
        <path class="cls-2" d="M385.61,272.94c.05-.12.07-.25.07-.39,0-.47-.25-.9-.64-1.14.19.51.39,1.02.58,1.52Z"/>
        <path class="cls-2" d="M393.15,271.22c-.73,0-1.33.6-1.33,1.33s.6,1.33,1.33,1.33,1.33-.6,1.33-1.33-.6-1.33-1.33-1.33Z"/>
        <path class="cls-2" d="M401.96,271.22c-.73,0-1.33.6-1.33,1.33s.6,1.33,1.33,1.33,1.33-.6,1.33-1.33-.6-1.33-1.33-1.33Z"/>
        <circle class="cls-2" cx="410.77" cy="272.55" r="1.33"/>
        <path class="cls-2" d="M419.58,271.22c-.73,0-1.33.6-1.33,1.33s.6,1.33,1.33,1.33,1.33-.6,1.33-1.33-.6-1.33-1.33-1.33Z"/>
        <path class="cls-2" d="M428.39,271.22c-.73,0-1.33.6-1.33,1.33s.6,1.33,1.33,1.33,1.33-.6,1.33-1.33-.6-1.33-1.33-1.33Z"/>
        <path class="cls-2" d="M437.2,271.22c-.73,0-1.33.6-1.33,1.33s.6,1.33,1.33,1.33,1.33-.6,1.33-1.33-.6-1.33-1.33-1.33Z"/>
        <path class="cls-2" d="M446.01,271.22c-.73,0-1.33.6-1.33,1.33s.6,1.33,1.33,1.33,1.33-.6,1.33-1.33-.6-1.33-1.33-1.33Z"/>
        <path class="cls-2" d="M454.82,271.22c-.73,0-1.33.6-1.33,1.33s.6,1.33,1.33,1.33,1.33-.6,1.33-1.33-.6-1.33-1.33-1.33Z"/>
        <path class="cls-2" d="M463.63,271.22c-.73,0-1.33.6-1.33,1.33s.6,1.33,1.33,1.33,1.33-.6,1.33-1.33-.6-1.33-1.33-1.33Z"/>
        <circle class="cls-2" cx="472.44" cy="272.55" r="1.33"/>
        <path class="cls-2" d="M481.25,271.22c-.73,0-1.33.6-1.33,1.33s.6,1.33,1.33,1.33,1.33-.6,1.33-1.33-.6-1.33-1.33-1.33Z"/>
        <path class="cls-2" d="M488.8,272.94c.19-.51.39-1.02.58-1.52-.39.24-.64.66-.64,1.14,0,.14.02.27.07.39Z"/>
        <path class="cls-2" d="M388.76,277.45c-.36,0-.68.14-.91.36.37.76.8,1.51,1.22,2.25.58-.12,1.02-.64,1.02-1.29,0-.73-.59-1.32-1.32-1.32Z"/>
        <path class="cls-2" d="M397.56,277.44c-.73,0-1.33.6-1.33,1.33s.6,1.33,1.33,1.33,1.33-.6,1.33-1.33-.6-1.33-1.33-1.33Z"/>
        <path class="cls-2" d="M406.37,277.44c-.73,0-1.33.6-1.33,1.33s.6,1.33,1.33,1.33,1.33-.6,1.33-1.33-.6-1.33-1.33-1.33Z"/>
        <path class="cls-2" d="M415.18,277.44c-.73,0-1.33.6-1.33,1.33s.6,1.33,1.33,1.33,1.33-.6,1.33-1.33-.6-1.33-1.33-1.33Z"/>
        <path class="cls-2" d="M423.99,277.44c-.73,0-1.33.6-1.33,1.33s.6,1.33,1.33,1.33,1.33-.6,1.33-1.33-.6-1.33-1.33-1.33Z"/>
        <path class="cls-2" d="M432.8,277.44c-.73,0-1.33.6-1.33,1.33s.6,1.33,1.33,1.33,1.33-.6,1.33-1.33-.6-1.33-1.33-1.33Z"/>
        <path class="cls-2" d="M441.61,277.44c-.73,0-1.33.6-1.33,1.33s.6,1.33,1.33,1.33,1.33-.6,1.33-1.33-.6-1.33-1.33-1.33Z"/>
        <path class="cls-2" d="M450.41,277.44c-.73,0-1.33.6-1.33,1.33s.6,1.33,1.33,1.33,1.33-.6,1.33-1.33-.6-1.33-1.33-1.33Z"/>
        <path class="cls-2" d="M459.22,277.44c-.73,0-1.33.6-1.33,1.33s.6,1.33,1.33,1.33,1.33-.6,1.33-1.33-.6-1.33-1.33-1.33Z"/>
        <path class="cls-2" d="M468.03,277.44c-.73,0-1.33.6-1.33,1.33s.6,1.33,1.33,1.33,1.33-.6,1.33-1.33-.6-1.33-1.33-1.33Z"/>
        <path class="cls-2" d="M476.84,277.44c-.73,0-1.33.6-1.33,1.33s.6,1.33,1.33,1.33,1.33-.6,1.33-1.33-.6-1.33-1.33-1.33Z"/>
        <path class="cls-2" d="M484.33,278.77c0,.64.44,1.17,1.02,1.29.42-.75.85-1.49,1.22-2.25-.24-.22-.56-.36-.91-.36-.73,0-1.32.59-1.32,1.32Z"/>
        <path class="cls-2" d="M393.16,282.85c-.75,0-1.34.59-1.34,1.32,0,.08,0,.17.03.25v.02c.22.3.44.59.66.9.19.1.41.17.64.17.73,0,1.32-.59,1.32-1.34s-.59-1.32-1.32-1.32Z"/>
        <path class="cls-2" d="M401.96,282.85c-.73,0-1.33.6-1.33,1.33s.6,1.33,1.33,1.33,1.33-.6,1.33-1.33-.6-1.33-1.33-1.33Z"/>
        <path class="cls-2" d="M410.77,282.85c-.73,0-1.33.6-1.33,1.33s.6,1.33,1.33,1.33,1.33-.6,1.33-1.33-.6-1.33-1.33-1.33Z"/>
        <path class="cls-2" d="M419.58,282.85c-.73,0-1.33.6-1.33,1.33s.6,1.33,1.33,1.33,1.33-.6,1.33-1.33-.6-1.33-1.33-1.33Z"/>
        <path class="cls-2" d="M428.39,282.85c-.73,0-1.33.6-1.33,1.33s.6,1.33,1.33,1.33,1.33-.6,1.33-1.33-.6-1.33-1.33-1.33Z"/>
        <path class="cls-2" d="M437.2,282.85c-.73,0-1.33.6-1.33,1.33s.6,1.33,1.33,1.33,1.33-.6,1.33-1.33-.6-1.33-1.33-1.33Z"/>
        <path class="cls-2" d="M446.01,282.85c-.73,0-1.33.6-1.33,1.33s.6,1.33,1.33,1.33,1.33-.6,1.33-1.33-.6-1.33-1.33-1.33Z"/>
        <path class="cls-2" d="M454.82,282.85c-.73,0-1.33.6-1.33,1.33s.6,1.33,1.33,1.33,1.33-.6,1.33-1.33-.6-1.33-1.33-1.33Z"/>
        <path class="cls-2" d="M463.63,282.85c-.73,0-1.33.6-1.33,1.33s.6,1.33,1.33,1.33,1.33-.6,1.33-1.33-.6-1.33-1.33-1.33Z"/>
        <path class="cls-2" d="M472.44,282.85c-.73,0-1.33.6-1.33,1.33s.6,1.33,1.33,1.33,1.33-.6,1.33-1.33-.6-1.33-1.33-1.33Z"/>
        <path class="cls-2" d="M481.25,282.85c-.73,0-1.34.59-1.34,1.32s.61,1.34,1.34,1.34c.24,0,.46-.07.64-.17.22-.3.44-.59.64-.9.02-.08.03-.19.03-.27,0-.73-.59-1.32-1.32-1.32Z"/>
        <path class="cls-2" d="M397.57,289.07c-.58,0-1.07.36-1.25.88.54.58,1.08,1.15,1.64,1.71.54-.15.93-.66.93-1.25,0-.75-.59-1.34-1.32-1.34Z"/>
        <path class="cls-2" d="M406.37,289.07c-.73,0-1.33.6-1.33,1.33s.6,1.33,1.33,1.33,1.33-.6,1.33-1.33-.6-1.33-1.33-1.33Z"/>
        <path class="cls-2" d="M415.18,289.07c-.73,0-1.33.6-1.33,1.33s.6,1.33,1.33,1.33,1.33-.6,1.33-1.33-.6-1.33-1.33-1.33Z"/>
        <path class="cls-2" d="M423.99,289.07c-.73,0-1.33.6-1.33,1.33s.6,1.33,1.33,1.33,1.33-.6,1.33-1.33-.6-1.33-1.33-1.33Z"/>
        <path class="cls-2" d="M432.8,289.07c-.73,0-1.33.6-1.33,1.33s.6,1.33,1.33,1.33,1.33-.6,1.33-1.33-.6-1.33-1.33-1.33Z"/>
        <path class="cls-2" d="M441.61,289.07c-.73,0-1.33.6-1.33,1.33s.6,1.33,1.33,1.33,1.33-.6,1.33-1.33-.6-1.33-1.33-1.33Z"/>
        <path class="cls-2" d="M450.41,289.07c-.73,0-1.33.6-1.33,1.33s.6,1.33,1.33,1.33,1.33-.6,1.33-1.33-.6-1.33-1.33-1.33Z"/>
        <path class="cls-2" d="M459.22,289.07c-.73,0-1.33.6-1.33,1.33s.6,1.33,1.33,1.33,1.33-.6,1.33-1.33-.6-1.33-1.33-1.33Z"/>
        <path class="cls-2" d="M468.03,289.07c-.73,0-1.33.6-1.33,1.33s.6,1.33,1.33,1.33,1.33-.6,1.33-1.33-.6-1.33-1.33-1.33Z"/>
        <path class="cls-2" d="M476.84,289.07c-.73,0-1.34.59-1.34,1.34,0,.59.41,1.1.95,1.25.56-.56,1.08-1.12,1.63-1.69-.17-.53-.66-.9-1.24-.9Z"/>
        <path class="cls-2" d="M401.97,294.47c-.27,0-.53.08-.73.22.64.54,1.29,1.08,1.97,1.59.05-.14.08-.3.08-.47,0-.75-.59-1.34-1.32-1.34Z"/>
        <path class="cls-2" d="M410.77,294.47c-.73,0-1.33.6-1.33,1.33s.6,1.33,1.33,1.33,1.33-.6,1.33-1.33-.6-1.33-1.33-1.33Z"/>
        <path class="cls-2" d="M419.58,294.47c-.73,0-1.33.6-1.33,1.33s.6,1.33,1.33,1.33,1.33-.6,1.33-1.33-.6-1.33-1.33-1.33Z"/>
        <path class="cls-2" d="M428.39,294.47c-.73,0-1.33.6-1.33,1.33s.6,1.33,1.33,1.33,1.33-.6,1.33-1.33-.6-1.33-1.33-1.33Z"/>
        <path class="cls-2" d="M437.2,294.47c-.73,0-1.33.6-1.33,1.33s.6,1.33,1.33,1.33,1.33-.6,1.33-1.33-.6-1.33-1.33-1.33Z"/>
        <path class="cls-2" d="M446.01,294.47c-.73,0-1.33.6-1.33,1.33s.6,1.33,1.33,1.33,1.33-.6,1.33-1.33-.6-1.33-1.33-1.33Z"/>
        <path class="cls-2" d="M454.82,294.47c-.73,0-1.33.6-1.33,1.33s.6,1.33,1.33,1.33,1.33-.6,1.33-1.33-.6-1.33-1.33-1.33Z"/>
        <path class="cls-2" d="M463.63,294.47c-.73,0-1.33.6-1.33,1.33s.6,1.33,1.33,1.33,1.33-.6,1.33-1.33-.6-1.33-1.33-1.33Z"/>
        <path class="cls-2" d="M471.1,295.81c0,.17.03.34.1.49.68-.53,1.32-1.07,1.97-1.61-.22-.14-.46-.22-.73-.22-.73,0-1.34.59-1.34,1.34Z"/>
        <path class="cls-2" d="M415.18,300.69c-.75,0-1.34.59-1.34,1.34,0,.36.15.69.39.93.29.14.58.25.86.37l.02.02h.07c.73,0,1.32-.59,1.32-1.32s-.59-1.34-1.32-1.34Z"/>
        <path class="cls-2" d="M423.99,300.69c-.73,0-1.33.6-1.33,1.33s.6,1.33,1.33,1.33,1.33-.6,1.33-1.33-.6-1.33-1.33-1.33Z"/>
        <path class="cls-2" d="M432.8,300.69c-.73,0-1.33.6-1.33,1.33s.6,1.33,1.33,1.33,1.33-.6,1.33-1.33-.6-1.33-1.33-1.33Z"/>
        <path class="cls-2" d="M441.61,300.69c-.73,0-1.33.6-1.33,1.33s.6,1.33,1.33,1.33,1.33-.6,1.33-1.33-.6-1.33-1.33-1.33Z"/>
        <path class="cls-2" d="M450.41,300.69c-.73,0-1.33.6-1.33,1.33s.6,1.33,1.33,1.33,1.33-.6,1.33-1.33-.6-1.33-1.33-1.33Z"/>
        <path class="cls-2" d="M459.23,300.69c-.73,0-1.34.59-1.34,1.34s.61,1.32,1.34,1.32h.07l.02-.02c.27-.1.54-.22.83-.36l.02-.02c.24-.24.39-.58.39-.93,0-.75-.59-1.34-1.32-1.34Z"/>
        <path class="cls-2" d="M428.4,306.09c-.59,0-1.08.39-1.25.91.85.15,1.71.29,2.57.41-.02-.73-.59-1.32-1.32-1.32Z"/>
        <path class="cls-2" d="M437.2,306.09c-.75,0-1.34.61-1.34,1.34,0,.17.03.34.08.47.42.02.83.02,1.25.02s.83,0,1.24-.02c.05-.14.08-.31.08-.47,0-.73-.59-1.34-1.32-1.34Z"/>
        <path class="cls-2" d="M446.01,306.09c-.75,0-1.32.59-1.34,1.32.88-.1,1.73-.24,2.57-.41-.17-.53-.66-.91-1.24-.91Z"/>
      </g>
      <g>
        <path class="cls-2" d="M101.82,546.79c-.53.1-1.03.24-1.54.36.17.08.36.12.54.12.41,0,.76-.19,1-.47Z"/>
        <path class="cls-2" d="M109.63,547.26c.73,0,1.32-.59,1.32-1.34,0-.14-.02-.29-.07-.41-.86.05-1.71.12-2.56.2h-.02c-.02.07-.02.14-.02.2,0,.75.59,1.34,1.34,1.34Z"/>
        <path class="cls-2" d="M118.44,547.26c.73,0,1.32-.59,1.32-1.34,0-.07,0-.14-.02-.2h-.02c-.85-.08-1.69-.15-2.56-.2-.05.12-.07.27-.07.41,0,.75.59,1.34,1.34,1.34Z"/>
        <path class="cls-2" d="M127.79,547.14c-.51-.12-1.03-.25-1.56-.36.24.29.61.47,1.02.47.2,0,.37-.05.54-.12Z"/>
        <path class="cls-2" d="M88.91,551.43c-.66.34-1.32.69-1.97,1.07.19.1.42.17.66.17.69,0,1.27-.54,1.3-1.24Z"/>
        <path class="cls-2" d="M96.41,550.01c-.73,0-1.33.6-1.33,1.33s.6,1.33,1.33,1.33,1.33-.6,1.33-1.33-.6-1.33-1.33-1.33Z"/>
        <path class="cls-2" d="M105.22,550.01c-.73,0-1.33.6-1.33,1.33s.6,1.33,1.33,1.33,1.33-.6,1.33-1.33-.6-1.33-1.33-1.33Z"/>
        <path class="cls-2" d="M114.03,550.01c-.73,0-1.33.6-1.33,1.33s.6,1.33,1.33,1.33,1.33-.6,1.33-1.33-.6-1.33-1.33-1.33Z"/>
        <path class="cls-2" d="M122.84,550.01c-.73,0-1.33.6-1.33,1.33s.6,1.33,1.33,1.33,1.33-.6,1.33-1.33-.6-1.33-1.33-1.33Z"/>
        <path class="cls-2" d="M131.65,550.01c-.73,0-1.33.6-1.33,1.33s.6,1.33,1.33,1.33,1.33-.6,1.33-1.33-.6-1.33-1.33-1.33Z"/>
        <path class="cls-2" d="M140.46,552.66c.24,0,.47-.07.66-.19-.66-.36-1.32-.71-1.98-1.05.03.69.63,1.24,1.32,1.24Z"/>
        <path class="cls-2" d="M83.2,556.23c-.73,0-1.33.6-1.33,1.33s.6,1.33,1.33,1.33,1.33-.6,1.33-1.33-.6-1.33-1.33-1.33Z"/>
        <path class="cls-2" d="M92.01,556.23c-.73,0-1.33.6-1.33,1.33s.6,1.33,1.33,1.33,1.33-.6,1.33-1.33-.6-1.33-1.33-1.33Z"/>
        <path class="cls-2" d="M100.82,556.23c-.73,0-1.33.6-1.33,1.33s.6,1.33,1.33,1.33,1.33-.6,1.33-1.33-.6-1.33-1.33-1.33Z"/>
        <path class="cls-2" d="M109.63,556.23c-.73,0-1.33.6-1.33,1.33s.6,1.33,1.33,1.33,1.33-.6,1.33-1.33-.6-1.33-1.33-1.33Z"/>
        <path class="cls-2" d="M118.44,556.23c-.73,0-1.33.6-1.33,1.33s.6,1.33,1.33,1.33,1.33-.6,1.33-1.33-.6-1.33-1.33-1.33Z"/>
        <path class="cls-2" d="M127.25,556.23c-.73,0-1.33.6-1.33,1.33s.6,1.33,1.33,1.33,1.33-.6,1.33-1.33-.6-1.33-1.33-1.33Z"/>
        <path class="cls-2" d="M136.06,556.23c-.73,0-1.33.6-1.33,1.33s.6,1.33,1.33,1.33,1.33-.6,1.33-1.33-.6-1.33-1.33-1.33Z"/>
        <path class="cls-2" d="M144.86,556.23c-.73,0-1.33.6-1.33,1.33s.6,1.33,1.33,1.33,1.33-.6,1.33-1.33-.6-1.33-1.33-1.33Z"/>
        <path class="cls-2" d="M78.8,561.63c-.73,0-1.33.6-1.33,1.33s.6,1.33,1.33,1.33,1.33-.6,1.33-1.33-.6-1.33-1.33-1.33Z"/>
        <path class="cls-2" d="M87.6,561.63c-.73,0-1.33.6-1.33,1.33s.6,1.33,1.33,1.33,1.33-.6,1.33-1.33-.6-1.33-1.33-1.33Z"/>
        <path class="cls-2" d="M96.41,561.63c-.73,0-1.33.6-1.33,1.33s.6,1.33,1.33,1.33,1.33-.6,1.33-1.33-.6-1.33-1.33-1.33Z"/>
        <path class="cls-2" d="M105.22,561.63c-.73,0-1.33.6-1.33,1.33s.6,1.33,1.33,1.33,1.33-.6,1.33-1.33-.6-1.33-1.33-1.33Z"/>
        <path class="cls-2" d="M114.03,561.63c-.73,0-1.33.6-1.33,1.33s.6,1.33,1.33,1.33,1.33-.6,1.33-1.33-.6-1.33-1.33-1.33Z"/>
        <path class="cls-2" d="M122.84,561.63c-.73,0-1.33.6-1.33,1.33s.6,1.33,1.33,1.33,1.33-.6,1.33-1.33-.6-1.33-1.33-1.33Z"/>
        <path class="cls-2" d="M131.65,561.63c-.73,0-1.33.6-1.33,1.33s.6,1.33,1.33,1.33,1.33-.6,1.33-1.33-.6-1.33-1.33-1.33Z"/>
        <path class="cls-2" d="M140.46,561.63c-.73,0-1.33.6-1.33,1.33s.6,1.33,1.33,1.33,1.33-.6,1.33-1.33-.6-1.33-1.33-1.33Z"/>
        <path class="cls-2" d="M149.27,561.63c-.73,0-1.33.6-1.33,1.33s.6,1.33,1.33,1.33,1.33-.6,1.33-1.33-.6-1.33-1.33-1.33Z"/>
        <path class="cls-2" d="M74.39,567.85c-.73,0-1.33.6-1.33,1.33s.6,1.33,1.33,1.33,1.33-.6,1.33-1.33-.6-1.33-1.33-1.33Z"/>
        <path class="cls-2" d="M83.2,567.85c-.73,0-1.33.6-1.33,1.33s.6,1.33,1.33,1.33,1.33-.6,1.33-1.33-.6-1.33-1.33-1.33Z"/>
        <path class="cls-2" d="M92.01,567.85c-.73,0-1.33.6-1.33,1.33s.6,1.33,1.33,1.33,1.33-.6,1.33-1.33-.6-1.33-1.33-1.33Z"/>
        <path class="cls-2" d="M100.82,567.85c-.73,0-1.33.6-1.33,1.33s.6,1.33,1.33,1.33,1.33-.6,1.33-1.33-.6-1.33-1.33-1.33Z"/>
        <path class="cls-2" d="M109.63,567.85c-.73,0-1.33.6-1.33,1.33s.6,1.33,1.33,1.33,1.33-.6,1.33-1.33-.6-1.33-1.33-1.33Z"/>
        <path class="cls-2" d="M118.44,567.85c-.73,0-1.33.6-1.33,1.33s.6,1.33,1.33,1.33,1.33-.6,1.33-1.33-.6-1.33-1.33-1.33Z"/>
        <path class="cls-2" d="M127.25,567.85c-.73,0-1.33.6-1.33,1.33s.6,1.33,1.33,1.33,1.33-.6,1.33-1.33-.6-1.33-1.33-1.33Z"/>
        <path class="cls-2" d="M136.06,567.85c-.73,0-1.33.6-1.33,1.33s.6,1.33,1.33,1.33,1.33-.6,1.33-1.33-.6-1.33-1.33-1.33Z"/>
        <path class="cls-2" d="M144.86,567.85c-.73,0-1.33.6-1.33,1.33s.6,1.33,1.33,1.33,1.33-.6,1.33-1.33-.6-1.33-1.33-1.33Z"/>
        <path class="cls-2" d="M153.67,567.85c-.73,0-1.33.6-1.33,1.33s.6,1.33,1.33,1.33,1.33-.6,1.33-1.33-.6-1.33-1.33-1.33Z"/>
        <path class="cls-2" d="M69.99,573.26c-.73,0-1.33.6-1.33,1.33s.6,1.33,1.33,1.33,1.33-.6,1.33-1.33-.6-1.33-1.33-1.33Z"/>
        <path class="cls-2" d="M78.8,573.26c-.73,0-1.33.6-1.33,1.33s.6,1.33,1.33,1.33,1.33-.6,1.33-1.33-.6-1.33-1.33-1.33Z"/>
        <path class="cls-2" d="M87.6,573.26c-.73,0-1.33.6-1.33,1.33s.6,1.33,1.33,1.33,1.33-.6,1.33-1.33-.6-1.33-1.33-1.33Z"/>
        <path class="cls-2" d="M96.41,573.26c-.73,0-1.33.6-1.33,1.33s.6,1.33,1.33,1.33,1.33-.6,1.33-1.33-.6-1.33-1.33-1.33Z"/>
        <path class="cls-2" d="M105.22,573.26c-.73,0-1.33.6-1.33,1.33s.6,1.33,1.33,1.33,1.33-.6,1.33-1.33-.6-1.33-1.33-1.33Z"/>
        <path class="cls-2" d="M114.03,573.26c-.73,0-1.33.6-1.33,1.33s.6,1.33,1.33,1.33,1.33-.6,1.33-1.33-.6-1.33-1.33-1.33Z"/>
        <path class="cls-2" d="M122.84,573.26c-.73,0-1.33.6-1.33,1.33s.6,1.33,1.33,1.33,1.33-.6,1.33-1.33-.6-1.33-1.33-1.33Z"/>
        <path class="cls-2" d="M131.65,573.26c-.73,0-1.33.6-1.33,1.33s.6,1.33,1.33,1.33,1.33-.6,1.33-1.33-.6-1.33-1.33-1.33Z"/>
        <path class="cls-2" d="M140.46,573.26c-.73,0-1.33.6-1.33,1.33s.6,1.33,1.33,1.33,1.33-.6,1.33-1.33-.6-1.33-1.33-1.33Z"/>
        <path class="cls-2" d="M149.27,573.26c-.73,0-1.33.6-1.33,1.33s.6,1.33,1.33,1.33,1.33-.6,1.33-1.33-.6-1.33-1.33-1.33Z"/>
        <path class="cls-2" d="M158.08,573.26c-.73,0-1.33.6-1.33,1.33s.6,1.33,1.33,1.33,1.33-.6,1.33-1.33-.6-1.33-1.33-1.33Z"/>
        <path class="cls-2" d="M65.58,579.48c-.73,0-1.33.6-1.33,1.33s.6,1.33,1.33,1.33,1.33-.6,1.33-1.33-.6-1.33-1.33-1.33Z"/>
        <path class="cls-2" d="M74.39,579.48c-.73,0-1.33.6-1.33,1.33s.6,1.33,1.33,1.33,1.33-.6,1.33-1.33-.6-1.33-1.33-1.33Z"/>
        <path class="cls-2" d="M83.2,579.48c-.73,0-1.33.6-1.33,1.33s.6,1.33,1.33,1.33,1.33-.6,1.33-1.33-.6-1.33-1.33-1.33Z"/>
        <path class="cls-2" d="M92.01,579.48c-.73,0-1.33.6-1.33,1.33s.6,1.33,1.33,1.33,1.33-.6,1.33-1.33-.6-1.33-1.33-1.33Z"/>
        <path class="cls-2" d="M100.82,579.48c-.73,0-1.33.6-1.33,1.33s.6,1.33,1.33,1.33,1.33-.6,1.33-1.33-.6-1.33-1.33-1.33Z"/>
        <path class="cls-2" d="M109.63,579.48c-.73,0-1.33.6-1.33,1.33s.6,1.33,1.33,1.33,1.33-.6,1.33-1.33-.6-1.33-1.33-1.33Z"/>
        <path class="cls-2" d="M118.44,579.48c-.73,0-1.33.6-1.33,1.33s.6,1.33,1.33,1.33,1.33-.6,1.33-1.33-.6-1.33-1.33-1.33Z"/>
        <path class="cls-2" d="M127.25,579.48c-.73,0-1.33.6-1.33,1.33s.6,1.33,1.33,1.33,1.33-.6,1.33-1.33-.6-1.33-1.33-1.33Z"/>
        <path class="cls-2" d="M136.06,579.48c-.73,0-1.33.6-1.33,1.33s.6,1.33,1.33,1.33,1.33-.6,1.33-1.33-.6-1.33-1.33-1.33Z"/>
        <path class="cls-2" d="M144.86,579.48c-.73,0-1.33.6-1.33,1.33s.6,1.33,1.33,1.33,1.33-.6,1.33-1.33-.6-1.33-1.33-1.33Z"/>
        <path class="cls-2" d="M153.67,579.48c-.73,0-1.33.6-1.33,1.33s.6,1.33,1.33,1.33,1.33-.6,1.33-1.33-.6-1.33-1.33-1.33Z"/>
        <path class="cls-2" d="M162.48,579.48c-.73,0-1.33.6-1.33,1.33s.6,1.33,1.33,1.33,1.33-.6,1.33-1.33-.6-1.33-1.33-1.33Z"/>
        <path class="cls-2" d="M62.51,586.21c0-.73-.59-1.32-1.32-1.32-.12,0-.22.02-.32.05-.22.73-.42,1.47-.61,2.24.24.24.56.37.93.37.73,0,1.32-.59,1.32-1.34Z"/>
        <path class="cls-2" d="M69.99,584.88c-.73,0-1.33.6-1.33,1.33s.6,1.33,1.33,1.33,1.33-.6,1.33-1.33-.6-1.33-1.33-1.33Z"/>
        <path class="cls-2" d="M78.8,584.88c-.73,0-1.33.6-1.33,1.33s.6,1.33,1.33,1.33,1.33-.6,1.33-1.33-.6-1.33-1.33-1.33Z"/>
        <circle class="cls-2" cx="87.6" cy="586.21" r="1.33"/>
        <path class="cls-2" d="M96.41,584.88c-.73,0-1.33.6-1.33,1.33s.6,1.33,1.33,1.33,1.33-.6,1.33-1.33-.6-1.33-1.33-1.33Z"/>
        <path class="cls-2" d="M105.22,584.88c-.73,0-1.33.6-1.33,1.33s.6,1.33,1.33,1.33,1.33-.6,1.33-1.33-.6-1.33-1.33-1.33Z"/>
        <path class="cls-2" d="M114.03,584.88c-.73,0-1.33.6-1.33,1.33s.6,1.33,1.33,1.33,1.33-.6,1.33-1.33-.6-1.33-1.33-1.33Z"/>
        <path class="cls-2" d="M122.84,584.88c-.73,0-1.33.6-1.33,1.33s.6,1.33,1.33,1.33,1.33-.6,1.33-1.33-.6-1.33-1.33-1.33Z"/>
        <circle class="cls-2" cx="131.65" cy="586.21" r="1.33"/>
        <path class="cls-2" d="M140.46,584.88c-.73,0-1.33.6-1.33,1.33s.6,1.33,1.33,1.33,1.33-.6,1.33-1.33-.6-1.33-1.33-1.33Z"/>
        <path class="cls-2" d="M149.27,584.88c-.73,0-1.33.6-1.33,1.33s.6,1.33,1.33,1.33,1.33-.6,1.33-1.33-.6-1.33-1.33-1.33Z"/>
        <path class="cls-2" d="M158.08,584.88c-.73,0-1.33.6-1.33,1.33s.6,1.33,1.33,1.33,1.33-.6,1.33-1.33-.6-1.33-1.33-1.33Z"/>
        <path class="cls-2" d="M166.89,587.54c.36,0,.68-.14.93-.37-.19-.76-.39-1.51-.61-2.24-.1-.03-.2-.05-.32-.05-.73,0-1.32.59-1.32,1.32s.59,1.34,1.32,1.34Z"/>
        <path class="cls-2" d="M65.58,591.1c-.73,0-1.33.6-1.33,1.33s.6,1.33,1.33,1.33,1.33-.6,1.33-1.33-.6-1.33-1.33-1.33Z"/>
        <path class="cls-2" d="M74.39,591.1c-.73,0-1.33.6-1.33,1.33s.6,1.33,1.33,1.33,1.33-.6,1.33-1.33-.6-1.33-1.33-1.33Z"/>
        <path class="cls-2" d="M83.2,591.1c-.73,0-1.33.6-1.33,1.33s.6,1.33,1.33,1.33,1.33-.6,1.33-1.33-.6-1.33-1.33-1.33Z"/>
        <path class="cls-2" d="M92.01,591.1c-.73,0-1.33.6-1.33,1.33s.6,1.33,1.33,1.33,1.33-.6,1.33-1.33-.6-1.33-1.33-1.33Z"/>
        <path class="cls-2" d="M100.82,591.1c-.73,0-1.33.6-1.33,1.33s.6,1.33,1.33,1.33,1.33-.6,1.33-1.33-.6-1.33-1.33-1.33Z"/>
        <path class="cls-2" d="M109.63,591.1c-.73,0-1.33.6-1.33,1.33s.6,1.33,1.33,1.33,1.33-.6,1.33-1.33-.6-1.33-1.33-1.33Z"/>
        <path class="cls-2" d="M118.44,591.1c-.73,0-1.33.6-1.33,1.33s.6,1.33,1.33,1.33,1.33-.6,1.33-1.33-.6-1.33-1.33-1.33Z"/>
        <path class="cls-2" d="M127.25,591.1c-.73,0-1.33.6-1.33,1.33s.6,1.33,1.33,1.33,1.33-.6,1.33-1.33-.6-1.33-1.33-1.33Z"/>
        <path class="cls-2" d="M136.06,591.1c-.73,0-1.33.6-1.33,1.33s.6,1.33,1.33,1.33,1.33-.6,1.33-1.33-.6-1.33-1.33-1.33Z"/>
        <path class="cls-2" d="M144.86,591.1c-.73,0-1.33.6-1.33,1.33s.6,1.33,1.33,1.33,1.33-.6,1.33-1.33-.6-1.33-1.33-1.33Z"/>
        <path class="cls-2" d="M153.67,591.1c-.73,0-1.33.6-1.33,1.33s.6,1.33,1.33,1.33,1.33-.6,1.33-1.33-.6-1.33-1.33-1.33Z"/>
        <path class="cls-2" d="M162.48,591.1c-.73,0-1.33.6-1.33,1.33s.6,1.33,1.33,1.33,1.33-.6,1.33-1.33-.6-1.33-1.33-1.33Z"/>
        <path class="cls-2" d="M61.18,596.51c-.73,0-1.33.6-1.33,1.33s.6,1.33,1.33,1.33,1.33-.6,1.33-1.33-.6-1.33-1.33-1.33Z"/>
        <path class="cls-2" d="M69.99,596.51c-.73,0-1.33.6-1.33,1.33s.6,1.33,1.33,1.33,1.33-.6,1.33-1.33-.6-1.33-1.33-1.33Z"/>
        <path class="cls-2" d="M78.8,596.51c-.73,0-1.33.6-1.33,1.33s.6,1.33,1.33,1.33,1.33-.6,1.33-1.33-.6-1.33-1.33-1.33Z"/>
        <path class="cls-2" d="M87.6,596.51c-.73,0-1.33.6-1.33,1.33s.6,1.33,1.33,1.33,1.33-.6,1.33-1.33-.6-1.33-1.33-1.33Z"/>
        <path class="cls-2" d="M96.41,596.51c-.73,0-1.33.6-1.33,1.33s.6,1.33,1.33,1.33,1.33-.6,1.33-1.33-.6-1.33-1.33-1.33Z"/>
        <path class="cls-2" d="M105.22,596.51c-.73,0-1.33.6-1.33,1.33s.6,1.33,1.33,1.33,1.33-.6,1.33-1.33-.6-1.33-1.33-1.33Z"/>
        <path class="cls-2" d="M114.03,596.51c-.73,0-1.33.6-1.33,1.33s.6,1.33,1.33,1.33,1.33-.6,1.33-1.33-.6-1.33-1.33-1.33Z"/>
        <path class="cls-2" d="M122.84,596.51c-.73,0-1.33.6-1.33,1.33s.6,1.33,1.33,1.33,1.33-.6,1.33-1.33-.6-1.33-1.33-1.33Z"/>
        <path class="cls-2" d="M131.65,596.51c-.73,0-1.33.6-1.33,1.33s.6,1.33,1.33,1.33,1.33-.6,1.33-1.33-.6-1.33-1.33-1.33Z"/>
        <path class="cls-2" d="M140.46,596.51c-.73,0-1.33.6-1.33,1.33s.6,1.33,1.33,1.33,1.33-.6,1.33-1.33-.6-1.33-1.33-1.33Z"/>
        <path class="cls-2" d="M149.27,596.51c-.73,0-1.33.6-1.33,1.33s.6,1.33,1.33,1.33,1.33-.6,1.33-1.33-.6-1.33-1.33-1.33Z"/>
        <path class="cls-2" d="M158.08,596.51c-.73,0-1.33.6-1.33,1.33s.6,1.33,1.33,1.33,1.33-.6,1.33-1.33-.6-1.33-1.33-1.33Z"/>
        <path class="cls-2" d="M166.89,599.17c.73,0,1.33-.6,1.33-1.33s-.6-1.33-1.33-1.33-1.33.6-1.33,1.33.6,1.33,1.33,1.33Z"/>
        <path class="cls-2" d="M65.58,602.73c-.73,0-1.33.6-1.33,1.33s.6,1.33,1.33,1.33,1.33-.6,1.33-1.33-.6-1.33-1.33-1.33Z"/>
        <path class="cls-2" d="M74.39,602.73c-.73,0-1.33.6-1.33,1.33s.6,1.33,1.33,1.33,1.33-.6,1.33-1.33-.6-1.33-1.33-1.33Z"/>
        <path class="cls-2" d="M83.2,602.73c-.73,0-1.33.6-1.33,1.33s.6,1.33,1.33,1.33,1.33-.6,1.33-1.33-.6-1.33-1.33-1.33Z"/>
        <path class="cls-2" d="M92.01,602.73c-.73,0-1.33.6-1.33,1.33s.6,1.33,1.33,1.33,1.33-.6,1.33-1.33-.6-1.33-1.33-1.33Z"/>
        <path class="cls-2" d="M100.82,602.73c-.73,0-1.33.6-1.33,1.33s.6,1.33,1.33,1.33,1.33-.6,1.33-1.33-.6-1.33-1.33-1.33Z"/>
        <path class="cls-2" d="M109.63,602.73c-.73,0-1.33.6-1.33,1.33s.6,1.33,1.33,1.33,1.33-.6,1.33-1.33-.6-1.33-1.33-1.33Z"/>
        <path class="cls-2" d="M118.44,602.73c-.73,0-1.33.6-1.33,1.33s.6,1.33,1.33,1.33,1.33-.6,1.33-1.33-.6-1.33-1.33-1.33Z"/>
        <path class="cls-2" d="M127.25,602.73c-.73,0-1.33.6-1.33,1.33s.6,1.33,1.33,1.33,1.33-.6,1.33-1.33-.6-1.33-1.33-1.33Z"/>
        <path class="cls-2" d="M136.06,602.73c-.73,0-1.33.6-1.33,1.33s.6,1.33,1.33,1.33,1.33-.6,1.33-1.33-.6-1.33-1.33-1.33Z"/>
        <path class="cls-2" d="M144.86,602.73c-.73,0-1.33.6-1.33,1.33s.6,1.33,1.33,1.33,1.33-.6,1.33-1.33-.6-1.33-1.33-1.33Z"/>
        <path class="cls-2" d="M153.67,602.73c-.73,0-1.33.6-1.33,1.33s.6,1.33,1.33,1.33,1.33-.6,1.33-1.33-.6-1.33-1.33-1.33Z"/>
        <path class="cls-2" d="M162.48,602.73c-.73,0-1.33.6-1.33,1.33s.6,1.33,1.33,1.33,1.33-.6,1.33-1.33-.6-1.33-1.33-1.33Z"/>
        <path class="cls-2" d="M61.18,608.13c-.73,0-1.33.6-1.33,1.33s.6,1.33,1.33,1.33,1.33-.6,1.33-1.33-.6-1.33-1.33-1.33Z"/>
        <path class="cls-2" d="M69.99,608.13c-.73,0-1.33.6-1.33,1.33s.6,1.33,1.33,1.33,1.33-.6,1.33-1.33-.6-1.33-1.33-1.33Z"/>
        <path class="cls-2" d="M78.8,608.13c-.73,0-1.33.6-1.33,1.33s.6,1.33,1.33,1.33,1.33-.6,1.33-1.33-.6-1.33-1.33-1.33Z"/>
        <path class="cls-2" d="M87.6,608.13c-.73,0-1.33.6-1.33,1.33s.6,1.33,1.33,1.33,1.33-.6,1.33-1.33-.6-1.33-1.33-1.33Z"/>
        <path class="cls-2" d="M96.41,608.13c-.73,0-1.33.6-1.33,1.33s.6,1.33,1.33,1.33,1.33-.6,1.33-1.33-.6-1.33-1.33-1.33Z"/>
        <path class="cls-2" d="M105.22,608.13c-.73,0-1.33.6-1.33,1.33s.6,1.33,1.33,1.33,1.33-.6,1.33-1.33-.6-1.33-1.33-1.33Z"/>
        <path class="cls-2" d="M114.03,608.13c-.73,0-1.33.6-1.33,1.33s.6,1.33,1.33,1.33,1.33-.6,1.33-1.33-.6-1.33-1.33-1.33Z"/>
        <path class="cls-2" d="M122.84,608.13c-.73,0-1.33.6-1.33,1.33s.6,1.33,1.33,1.33,1.33-.6,1.33-1.33-.6-1.33-1.33-1.33Z"/>
        <path class="cls-2" d="M131.65,608.13c-.73,0-1.33.6-1.33,1.33s.6,1.33,1.33,1.33,1.33-.6,1.33-1.33-.6-1.33-1.33-1.33Z"/>
        <path class="cls-2" d="M140.46,608.13c-.73,0-1.33.6-1.33,1.33s.6,1.33,1.33,1.33,1.33-.6,1.33-1.33-.6-1.33-1.33-1.33Z"/>
        <path class="cls-2" d="M149.27,608.13c-.73,0-1.33.6-1.33,1.33s.6,1.33,1.33,1.33,1.33-.6,1.33-1.33-.6-1.33-1.33-1.33Z"/>
        <path class="cls-2" d="M158.08,608.13c-.73,0-1.33.6-1.33,1.33s.6,1.33,1.33,1.33,1.33-.6,1.33-1.33-.6-1.33-1.33-1.33Z"/>
        <path class="cls-2" d="M166.89,608.13c-.73,0-1.33.6-1.33,1.33s.6,1.33,1.33,1.33,1.33-.6,1.33-1.33-.6-1.33-1.33-1.33Z"/>
        <path class="cls-2" d="M65.58,614.35c-.73,0-1.33.6-1.33,1.33s.6,1.33,1.33,1.33,1.33-.6,1.33-1.33-.6-1.33-1.33-1.33Z"/>
        <path class="cls-2" d="M74.39,614.35c-.73,0-1.33.6-1.33,1.33s.6,1.33,1.33,1.33,1.33-.6,1.33-1.33-.6-1.33-1.33-1.33Z"/>
        <path class="cls-2" d="M83.2,614.35c-.73,0-1.33.6-1.33,1.33s.6,1.33,1.33,1.33,1.33-.6,1.33-1.33-.6-1.33-1.33-1.33Z"/>
        <path class="cls-2" d="M92.01,614.35c-.73,0-1.33.6-1.33,1.33s.6,1.33,1.33,1.33,1.33-.6,1.33-1.33-.6-1.33-1.33-1.33Z"/>
        <path class="cls-2" d="M100.82,614.35c-.73,0-1.33.6-1.33,1.33s.6,1.33,1.33,1.33,1.33-.6,1.33-1.33-.6-1.33-1.33-1.33Z"/>
        <path class="cls-2" d="M109.63,614.35c-.73,0-1.33.6-1.33,1.33s.6,1.33,1.33,1.33,1.33-.6,1.33-1.33-.6-1.33-1.33-1.33Z"/>
        <path class="cls-2" d="M118.44,614.35c-.73,0-1.33.6-1.33,1.33s.6,1.33,1.33,1.33,1.33-.6,1.33-1.33-.6-1.33-1.33-1.33Z"/>
        <path class="cls-2" d="M127.25,614.35c-.73,0-1.33.6-1.33,1.33s.6,1.33,1.33,1.33,1.33-.6,1.33-1.33-.6-1.33-1.33-1.33Z"/>
        <path class="cls-2" d="M136.06,614.35c-.73,0-1.33.6-1.33,1.33s.6,1.33,1.33,1.33,1.33-.6,1.33-1.33-.6-1.33-1.33-1.33Z"/>
        <path class="cls-2" d="M144.86,614.35c-.73,0-1.33.6-1.33,1.33s.6,1.33,1.33,1.33,1.33-.6,1.33-1.33-.6-1.33-1.33-1.33Z"/>
        <path class="cls-2" d="M153.67,614.35c-.73,0-1.33.6-1.33,1.33s.6,1.33,1.33,1.33,1.33-.6,1.33-1.33-.6-1.33-1.33-1.33Z"/>
        <path class="cls-2" d="M162.48,614.35c-.73,0-1.33.6-1.33,1.33s.6,1.33,1.33,1.33,1.33-.6,1.33-1.33-.6-1.33-1.33-1.33Z"/>
        <path class="cls-2" d="M62.44,621.47c.05-.12.07-.25.07-.39,0-.47-.25-.9-.64-1.13.19.51.39,1.02.58,1.52Z"/>
        <path class="cls-2" d="M69.99,619.76c-.73,0-1.33.6-1.33,1.33s.6,1.33,1.33,1.33,1.33-.6,1.33-1.33-.6-1.33-1.33-1.33Z"/>
        <path class="cls-2" d="M78.8,619.76c-.73,0-1.33.6-1.33,1.33s.6,1.33,1.33,1.33,1.33-.6,1.33-1.33-.6-1.33-1.33-1.33Z"/>
        <circle class="cls-2" cx="87.6" cy="621.09" r="1.33"/>
        <path class="cls-2" d="M96.41,619.76c-.73,0-1.33.6-1.33,1.33s.6,1.33,1.33,1.33,1.33-.6,1.33-1.33-.6-1.33-1.33-1.33Z"/>
        <path class="cls-2" d="M105.22,619.76c-.73,0-1.33.6-1.33,1.33s.6,1.33,1.33,1.33,1.33-.6,1.33-1.33-.6-1.33-1.33-1.33Z"/>
        <path class="cls-2" d="M114.03,619.76c-.73,0-1.33.6-1.33,1.33s.6,1.33,1.33,1.33,1.33-.6,1.33-1.33-.6-1.33-1.33-1.33Z"/>
        <path class="cls-2" d="M122.84,619.76c-.73,0-1.33.6-1.33,1.33s.6,1.33,1.33,1.33,1.33-.6,1.33-1.33-.6-1.33-1.33-1.33Z"/>
        <circle class="cls-2" cx="131.65" cy="621.09" r="1.33"/>
        <path class="cls-2" d="M140.46,619.76c-.73,0-1.33.6-1.33,1.33s.6,1.33,1.33,1.33,1.33-.6,1.33-1.33-.6-1.33-1.33-1.33Z"/>
        <path class="cls-2" d="M149.27,619.76c-.73,0-1.33.6-1.33,1.33s.6,1.33,1.33,1.33,1.33-.6,1.33-1.33-.6-1.33-1.33-1.33Z"/>
        <path class="cls-2" d="M158.08,619.76c-.73,0-1.33.6-1.33,1.33s.6,1.33,1.33,1.33,1.33-.6,1.33-1.33-.6-1.33-1.33-1.33Z"/>
        <path class="cls-2" d="M165.63,621.47c.19-.51.39-1.02.58-1.52-.39.24-.64.66-.64,1.13,0,.14.02.27.07.39Z"/>
        <path class="cls-2" d="M65.59,625.98c-.36,0-.68.14-.91.36.37.76.8,1.51,1.22,2.25.58-.12,1.02-.64,1.02-1.29,0-.73-.59-1.32-1.32-1.32Z"/>
        <path class="cls-2" d="M74.39,625.98c-.73,0-1.33.6-1.33,1.33s.6,1.33,1.33,1.33,1.33-.6,1.33-1.33-.6-1.33-1.33-1.33Z"/>
        <path class="cls-2" d="M83.2,625.98c-.73,0-1.33.6-1.33,1.33s.6,1.33,1.33,1.33,1.33-.6,1.33-1.33-.6-1.33-1.33-1.33Z"/>
        <path class="cls-2" d="M92.01,625.98c-.73,0-1.33.6-1.33,1.33s.6,1.33,1.33,1.33,1.33-.6,1.33-1.33-.6-1.33-1.33-1.33Z"/>
        <path class="cls-2" d="M100.82,625.98c-.73,0-1.33.6-1.33,1.33s.6,1.33,1.33,1.33,1.33-.6,1.33-1.33-.6-1.33-1.33-1.33Z"/>
        <path class="cls-2" d="M109.63,625.98c-.73,0-1.33.6-1.33,1.33s.6,1.33,1.33,1.33,1.33-.6,1.33-1.33-.6-1.33-1.33-1.33Z"/>
        <path class="cls-2" d="M118.44,625.98c-.73,0-1.33.6-1.33,1.33s.6,1.33,1.33,1.33,1.33-.6,1.33-1.33-.6-1.33-1.33-1.33Z"/>
        <path class="cls-2" d="M127.25,625.98c-.73,0-1.33.6-1.33,1.33s.6,1.33,1.33,1.33,1.33-.6,1.33-1.33-.6-1.33-1.33-1.33Z"/>
        <path class="cls-2" d="M136.06,625.98c-.73,0-1.33.6-1.33,1.33s.6,1.33,1.33,1.33,1.33-.6,1.33-1.33-.6-1.33-1.33-1.33Z"/>
        <path class="cls-2" d="M144.86,625.98c-.73,0-1.33.6-1.33,1.33s.6,1.33,1.33,1.33,1.33-.6,1.33-1.33-.6-1.33-1.33-1.33Z"/>
        <path class="cls-2" d="M153.67,625.98c-.73,0-1.33.6-1.33,1.33s.6,1.33,1.33,1.33,1.33-.6,1.33-1.33-.6-1.33-1.33-1.33Z"/>
        <path class="cls-2" d="M161.16,627.3c0,.64.44,1.17,1.02,1.29.42-.75.85-1.49,1.22-2.25-.24-.22-.56-.36-.91-.36-.73,0-1.32.59-1.32,1.32Z"/>
        <path class="cls-2" d="M69.99,631.38c-.75,0-1.34.59-1.34,1.32,0,.08,0,.17.03.25v.02c.22.3.44.59.66.9.19.1.41.17.64.17.73,0,1.32-.59,1.32-1.34s-.59-1.32-1.32-1.32Z"/>
        <path class="cls-2" d="M78.8,631.38c-.73,0-1.33.6-1.33,1.33s.6,1.33,1.33,1.33,1.33-.6,1.33-1.33-.6-1.33-1.33-1.33Z"/>
        <path class="cls-2" d="M87.6,631.38c-.73,0-1.33.6-1.33,1.33s.6,1.33,1.33,1.33,1.33-.6,1.33-1.33-.6-1.33-1.33-1.33Z"/>
        <path class="cls-2" d="M96.41,631.38c-.73,0-1.33.6-1.33,1.33s.6,1.33,1.33,1.33,1.33-.6,1.33-1.33-.6-1.33-1.33-1.33Z"/>
        <path class="cls-2" d="M105.22,631.38c-.73,0-1.33.6-1.33,1.33s.6,1.33,1.33,1.33,1.33-.6,1.33-1.33-.6-1.33-1.33-1.33Z"/>
        <path class="cls-2" d="M114.03,631.38c-.73,0-1.33.6-1.33,1.33s.6,1.33,1.33,1.33,1.33-.6,1.33-1.33-.6-1.33-1.33-1.33Z"/>
        <path class="cls-2" d="M122.84,631.38c-.73,0-1.33.6-1.33,1.33s.6,1.33,1.33,1.33,1.33-.6,1.33-1.33-.6-1.33-1.33-1.33Z"/>
        <path class="cls-2" d="M131.65,631.38c-.73,0-1.33.6-1.33,1.33s.6,1.33,1.33,1.33,1.33-.6,1.33-1.33-.6-1.33-1.33-1.33Z"/>
        <path class="cls-2" d="M140.46,631.38c-.73,0-1.33.6-1.33,1.33s.6,1.33,1.33,1.33,1.33-.6,1.33-1.33-.6-1.33-1.33-1.33Z"/>
        <path class="cls-2" d="M149.27,631.38c-.73,0-1.33.6-1.33,1.33s.6,1.33,1.33,1.33,1.33-.6,1.33-1.33-.6-1.33-1.33-1.33Z"/>
        <path class="cls-2" d="M158.08,631.38c-.73,0-1.34.59-1.34,1.32s.61,1.34,1.34,1.34c.24,0,.46-.07.64-.17.22-.3.44-.59.64-.9.02-.08.03-.19.03-.27,0-.73-.59-1.32-1.32-1.32Z"/>
        <path class="cls-2" d="M74.4,637.6c-.58,0-1.07.36-1.25.88.54.58,1.08,1.15,1.64,1.71.54-.15.93-.66.93-1.25,0-.75-.59-1.34-1.32-1.34Z"/>
        <path class="cls-2" d="M83.2,637.6c-.73,0-1.33.6-1.33,1.33s.6,1.33,1.33,1.33,1.33-.6,1.33-1.33-.6-1.33-1.33-1.33Z"/>
        <path class="cls-2" d="M92.01,637.6c-.73,0-1.33.6-1.33,1.33s.6,1.33,1.33,1.33,1.33-.6,1.33-1.33-.6-1.33-1.33-1.33Z"/>
        <path class="cls-2" d="M100.82,637.6c-.73,0-1.33.6-1.33,1.33s.6,1.33,1.33,1.33,1.33-.6,1.33-1.33-.6-1.33-1.33-1.33Z"/>
        <path class="cls-2" d="M109.63,637.6c-.73,0-1.33.6-1.33,1.33s.6,1.33,1.33,1.33,1.33-.6,1.33-1.33-.6-1.33-1.33-1.33Z"/>
        <path class="cls-2" d="M118.44,637.6c-.73,0-1.33.6-1.33,1.33s.6,1.33,1.33,1.33,1.33-.6,1.33-1.33-.6-1.33-1.33-1.33Z"/>
        <path class="cls-2" d="M127.25,637.6c-.73,0-1.33.6-1.33,1.33s.6,1.33,1.33,1.33,1.33-.6,1.33-1.33-.6-1.33-1.33-1.33Z"/>
        <path class="cls-2" d="M136.06,637.6c-.73,0-1.33.6-1.33,1.33s.6,1.33,1.33,1.33,1.33-.6,1.33-1.33-.6-1.33-1.33-1.33Z"/>
        <path class="cls-2" d="M144.86,637.6c-.73,0-1.33.6-1.33,1.33s.6,1.33,1.33,1.33,1.33-.6,1.33-1.33-.6-1.33-1.33-1.33Z"/>
        <path class="cls-2" d="M153.67,637.6c-.73,0-1.34.59-1.34,1.34,0,.59.41,1.1.95,1.25.56-.56,1.08-1.12,1.63-1.69-.17-.53-.66-.9-1.24-.9Z"/>
        <path class="cls-2" d="M78.8,643c-.27,0-.53.08-.73.22.64.54,1.29,1.08,1.96,1.59.05-.14.08-.3.08-.47,0-.75-.59-1.34-1.32-1.34Z"/>
        <path class="cls-2" d="M87.6,643.01c-.73,0-1.33.6-1.33,1.33s.6,1.33,1.33,1.33,1.33-.6,1.33-1.33-.6-1.33-1.33-1.33Z"/>
        <path class="cls-2" d="M96.41,643.01c-.73,0-1.33.6-1.33,1.33s.6,1.33,1.33,1.33,1.33-.6,1.33-1.33-.6-1.33-1.33-1.33Z"/>
        <path class="cls-2" d="M105.22,643.01c-.73,0-1.33.6-1.33,1.33s.6,1.33,1.33,1.33,1.33-.6,1.33-1.33-.6-1.33-1.33-1.33Z"/>
        <path class="cls-2" d="M114.03,643.01c-.73,0-1.33.6-1.33,1.33s.6,1.33,1.33,1.33,1.33-.6,1.33-1.33-.6-1.33-1.33-1.33Z"/>
        <path class="cls-2" d="M122.84,643.01c-.73,0-1.33.6-1.33,1.33s.6,1.33,1.33,1.33,1.33-.6,1.33-1.33-.6-1.33-1.33-1.33Z"/>
        <path class="cls-2" d="M131.65,643.01c-.73,0-1.33.6-1.33,1.33s.6,1.33,1.33,1.33,1.33-.6,1.33-1.33-.6-1.33-1.33-1.33Z"/>
        <path class="cls-2" d="M140.46,643.01c-.73,0-1.33.6-1.33,1.33s.6,1.33,1.33,1.33,1.33-.6,1.33-1.33-.6-1.33-1.33-1.33Z"/>
        <path class="cls-2" d="M147.93,644.34c0,.17.03.34.1.49.68-.53,1.32-1.07,1.96-1.61-.22-.14-.46-.22-.73-.22-.73,0-1.34.59-1.34,1.34Z"/>
        <path class="cls-2" d="M92.01,649.22c-.75,0-1.34.59-1.34,1.34,0,.36.15.69.39.93.29.14.58.25.86.37l.02.02h.07c.73,0,1.32-.59,1.32-1.32s-.59-1.34-1.32-1.34Z"/>
        <path class="cls-2" d="M100.82,649.23c-.73,0-1.33.6-1.33,1.33s.6,1.33,1.33,1.33,1.33-.6,1.33-1.33-.6-1.33-1.33-1.33Z"/>
        <path class="cls-2" d="M109.63,649.23c-.73,0-1.33.6-1.33,1.33s.6,1.33,1.33,1.33,1.33-.6,1.33-1.33-.6-1.33-1.33-1.33Z"/>
        <path class="cls-2" d="M118.44,649.23c-.73,0-1.33.6-1.33,1.33s.6,1.33,1.33,1.33,1.33-.6,1.33-1.33-.6-1.33-1.33-1.33Z"/>
        <path class="cls-2" d="M127.25,649.23c-.73,0-1.33.6-1.33,1.33s.6,1.33,1.33,1.33,1.33-.6,1.33-1.33-.6-1.33-1.33-1.33Z"/>
        <path class="cls-2" d="M136.06,649.22c-.73,0-1.34.59-1.34,1.34s.61,1.32,1.34,1.32h.07l.02-.02c.27-.1.54-.22.83-.36l.02-.02c.24-.24.39-.58.39-.93,0-.75-.59-1.34-1.32-1.34Z"/>
        <path class="cls-2" d="M105.23,654.62c-.59,0-1.08.39-1.25.91.85.15,1.71.29,2.57.41-.02-.73-.59-1.32-1.32-1.32Z"/>
        <path class="cls-2" d="M114.04,654.62c-.75,0-1.34.61-1.34,1.34,0,.17.03.34.08.47.42.02.83.02,1.25.02s.83,0,1.24-.02c.05-.14.08-.31.08-.47,0-.73-.59-1.34-1.32-1.34Z"/>
        <path class="cls-2" d="M122.84,654.62c-.75,0-1.32.59-1.34,1.32.88-.1,1.73-.24,2.57-.41-.17-.53-.66-.91-1.24-.91Z"/>
      </g>
      <circle class="cls-3" cx="251.65" cy="600.98" r="11.07" transform="translate(-381.88 753.12) rotate(-80.78)"/>
      <circle class="cls-3" cx="251.65" cy="634.56" r="11.07"/>
      <circle class="cls-3" cx="240.58" cy="11.07" r="11.07"/>
      <circle class="cls-2" cx="240.58" cy="44.65" r="11.07" transform="translate(141.86 268.54) rotate(-76.72)"/>
      <circle class="cls-3" cx="251.65" cy="668.14" r="11.07" transform="translate(-448.16 809.52) rotate(-80.78)"/>
      <path class="cls-2" d="M17.68,463.19c-6.57,0-11.92-5.35-11.92-11.92s5.35-11.92,11.92-11.92,11.92,5.35,11.92,11.92-5.35,11.92-11.92,11.92ZM17.68,441.05c-5.64,0-10.22,4.59-10.22,10.22s4.59,10.22,10.22,10.22,10.22-4.59,10.22-10.22-4.59-10.22-10.22-10.22Z"/>
      <circle class="cls-2" cx="17.68" cy="484.85" r="11.07"/>
      <circle class="cls-2" cx="17.68" cy="518.42" r="11.07" transform="translate(-197.05 46.23) rotate(-22.5)"/>
      <circle class="cls-2" cx="251.65" cy="701.71" r="11.07"/>
    </g>
  </g>
</svg>