<?xml version="1.0" encoding="UTF-8"?>
<svg id="Layer_2" data-name="Layer 2" xmlns="http://www.w3.org/2000/svg" viewBox="0 0 939.32 655.26">
  <defs>
    <style>
      .cls-1 {
        fill: #020202;
      }

      .cls-2 {
        fill: #1e1e1e;
      }

      .cls-3 {
        fill: #fcad1f;
      }
    </style>
  </defs>
  <g id="Layer_1-2" data-name="Layer 1">
    <g>
      <polygon class="cls-3" points="80.61 331.2 101.13 319.36 101.13 343.05 80.61 331.2"/>
      <path class="cls-2" d="M47.53,317.89v26.63l-23.06-13.31,23.06-13.31ZM45.84,341.58v-20.76l-17.98,10.38,17.98,10.38Z"/>
      <polygon class="cls-2" points="107.69 331.2 128.21 319.36 128.21 343.05 107.69 331.2"/>
      <polygon class="cls-3" points="875.61 84.93 896.12 73.08 896.12 96.78 875.61 84.93"/>
      <path class="cls-2" d="M842.53,71.62v26.63l-23.06-13.31,23.06-13.31ZM840.83,95.31v-20.76l-17.98,10.38,17.98,10.38Z"/>
      <polygon class="cls-2" points="902.68 84.93 923.2 73.08 923.2 96.78 902.68 84.93"/>
      <polygon class="cls-3" points="369.19 117.93 357.97 129.15 346.75 117.93 340.29 124.38 351.52 135.61 340.29 146.83 346.75 153.29 357.97 142.06 369.19 153.29 375.65 146.83 364.43 135.61 375.65 124.38 369.19 117.93"/>
      <polygon class="cls-2" points="656.89 9.5 645.67 20.72 634.44 9.5 627.99 15.95 639.21 27.18 627.99 38.4 634.44 44.86 645.67 33.63 656.89 44.86 663.34 38.4 652.12 27.18 663.34 15.95 656.89 9.5"/>
      <polygon class="cls-3" points="821.26 226.75 810.03 237.98 798.81 226.75 792.35 233.21 803.58 244.43 792.35 255.66 798.81 262.11 810.03 250.89 821.26 262.11 827.71 255.66 816.49 244.43 827.71 233.21 821.26 226.75"/>
      <path class="cls-2" d="M828.91,203.52l-7.65,7.65-11.22-11.22-11.22,11.22-7.65-7.65,11.22-11.22-11.22-11.22,7.65-7.65,11.22,11.22,11.22-11.22,7.65,7.65-11.22,11.22,11.22,11.22ZM815.29,192.3l11.22-11.22-5.26-5.26-11.22,11.22-11.22-11.22-5.26,5.26,11.22,11.22-11.22,11.22,5.26,5.26,11.22-11.22,11.22,11.22,5.26-5.26-11.22-11.22Z"/>
      <polygon class="cls-3" points="234.47 619.91 223.25 631.13 212.02 619.91 205.57 626.36 216.79 637.58 205.57 648.81 212.02 655.26 223.25 644.04 234.47 655.26 240.92 648.81 229.7 637.58 240.92 626.36 234.47 619.91"/>
      <polygon class="cls-2" points="281.35 619.91 270.13 631.13 258.91 619.91 252.45 626.36 263.68 637.58 252.45 648.81 258.91 655.26 270.13 644.04 281.35 655.26 287.81 648.81 276.58 637.58 287.81 626.36 281.35 619.91"/>
      <polygon class="cls-3" points="508.41 444.27 497.19 455.5 485.97 444.27 479.51 450.73 490.74 461.95 479.51 473.17 485.97 479.63 497.19 468.41 508.41 479.63 514.87 473.17 503.65 461.95 514.87 450.73 508.41 444.27"/>
      <path class="cls-3" d="M180.64,244.66c0,11.94,9.68,21.63,21.63,21.63s21.63-9.68,21.63-21.63-9.68-21.63-21.63-21.63-21.63,9.68-21.63,21.63ZM210.83,244.66c0,4.73-3.83,8.56-8.56,8.56s-8.56-3.83-8.56-8.56,3.83-8.56,8.56-8.56,8.56,3.83,8.56,8.56Z"/>
      <path class="cls-3" d="M882.57,577.8c0,11.94,9.68,21.63,21.63,21.63s21.63-9.68,21.63-21.63-9.68-21.63-21.63-21.63-21.63,9.68-21.63,21.63ZM912.76,577.8c0,4.73-3.83,8.56-8.56,8.56s-8.56-3.83-8.56-8.56,3.83-8.56,8.56-8.56,8.56,3.83,8.56,8.56Z"/>
      <path class="cls-2" d="M202.89,50.51c-19.9,0-36.04,16.13-36.04,36.04h72.07c0-19.9-16.13-36.04-36.04-36.04Z"/>
      <path class="cls-2" d="M589.28,292.25c-19.9,0-36.04,16.13-36.04,36.04h72.07c0-19.9-16.13-36.04-36.04-36.04Z"/>
      <g>
        <polygon class="cls-3" points="223.72 496.01 232.76 486.97 227.77 481.98 213.73 496.01 227.77 510.04 232.76 505.05 223.72 496.01"/>
        <polygon class="cls-3" points="262.16 510.04 267.15 505.05 258.11 496.01 267.15 486.97 262.16 481.98 248.13 496.01 262.16 510.04"/>
        <polygon class="cls-3" points="296.56 510.04 301.55 505.05 292.51 496.01 301.55 486.97 296.56 481.98 282.53 496.01 296.56 510.04"/>
      </g>
      <g>
        <path class="cls-2" d="M346.43,376.24c0,.1,0,.2,0,.3-.15,3.21-2.87,5.85-6.06,5.88-1.65.01-3.29-.69-4.48-1.93-1.19-1.24-1.82-2.88-1.74-4.54h0c.09-1.68.85-3.21,2.15-4.32,1.29-1.1,2.99-1.64,4.67-1.46,3.12.33,5.46,2.97,5.46,6.09ZM335.84,376.23c0,1.11.46,2.23,1.27,3.08.87.91,2.05,1.42,3.24,1.41,2.3-.02,4.27-1.93,4.38-4.26.15-2.37-1.58-4.37-3.94-4.62-1.21-.13-2.45.26-3.39,1.07-.94.8-1.49,1.91-1.55,3.12h0c0,.07,0,.14,0,.21Z"/>
        <path class="cls-2" d="M266.08,376.16c.04,2.32-2.09,4.4-4.4,4.31-2.2-.09-3.99-1.93-4.03-4.15-.05-2.43,1.93-4.37,4.36-4.27,2.21.09,4.03,1.93,4.07,4.12Z"/>
        <path class="cls-2" d="M320.48,376.22c0,1.49-.54,2.95-1.54,4.09-1.12,1.28-2.66,2.03-4.34,2.09-1.62.07-3.26-.59-4.5-1.81-1.24-1.22-1.95-2.84-1.91-4.47.06-3.19,2.72-5.88,5.94-6,3.3-.12,6.02,2.25,6.33,5.53.02.19.03.38.03.57ZM309.88,376.22c0,1.14.51,2.28,1.4,3.16.91.89,2.09,1.37,3.25,1.33h0c1.21-.05,2.32-.59,3.13-1.52.83-.94,1.21-2.15,1.1-3.39-.22-2.37-2.19-4.08-4.58-3.99-2.33.09-4.26,2.04-4.31,4.34,0,.02,0,.05,0,.07Z"/>
        <path class="cls-2" d="M293.95,376.2c0,1.47-.58,2.95-1.63,4.12-1.16,1.29-2.76,2.06-4.39,2.1h0c-3.18.08-5.98-2.48-6.23-5.7-.14-1.72.42-3.35,1.55-4.61,1.13-1.25,2.7-1.96,4.41-1.99,3.25-.07,6.01,2.4,6.28,5.62.01.15.02.31.02.46ZM287.88,380.73c1.17-.03,2.32-.59,3.17-1.54.85-.95,1.28-2.16,1.19-3.31-.2-2.33-2.2-4.12-4.55-4.07-1.24.03-2.38.54-3.19,1.44-.82.9-1.21,2.09-1.12,3.34.18,2.3,2.24,4.2,4.5,4.14h0Z"/>
        <path class="cls-2" d="M242.04,376.2c0,1.47-.58,2.95-1.63,4.12-1.16,1.29-2.76,2.06-4.39,2.1h0c-3.18.08-5.98-2.48-6.23-5.7-.14-1.72.42-3.35,1.55-4.61,1.13-1.25,2.7-1.96,4.41-1.99,3.25-.07,6.01,2.4,6.28,5.62.01.15.02.31.02.46ZM235.98,380.73c1.17-.03,2.32-.59,3.17-1.54.85-.95,1.27-2.16,1.19-3.31-.2-2.33-2.2-4.12-4.55-4.07-1.24.03-2.38.54-3.19,1.44-.82.9-1.22,2.09-1.12,3.34.18,2.3,2.24,4.2,4.5,4.14h0Z"/>
      </g>
      <g>
        <path class="cls-2" d="M497.13,33.3c0,.1,0,.2,0,.3-.15,3.22-2.87,5.85-6.06,5.88-1.65.01-3.29-.69-4.48-1.93-1.19-1.24-1.82-2.88-1.74-4.54h0c.09-1.68.85-3.21,2.15-4.32,1.29-1.1,2.99-1.64,4.67-1.46,3.12.33,5.46,2.97,5.46,6.09ZM486.54,33.29c0,1.11.46,2.23,1.27,3.08.87.91,2.05,1.42,3.24,1.41,2.3-.02,4.27-1.93,4.38-4.26.15-2.37-1.58-4.37-3.94-4.62-1.21-.13-2.45.26-3.39,1.07-.94.8-1.49,1.91-1.55,3.12h0c0,.07,0,.14,0,.21Z"/>
        <path class="cls-2" d="M416.77,33.23c.04,2.32-2.09,4.4-4.4,4.31-2.2-.09-3.99-1.93-4.03-4.15-.05-2.43,1.93-4.37,4.36-4.27,2.21.09,4.03,1.93,4.07,4.12Z"/>
        <path class="cls-2" d="M471.18,33.28c0,1.49-.54,2.95-1.54,4.09-1.12,1.28-2.66,2.03-4.34,2.09-1.62.07-3.26-.59-4.5-1.81-1.24-1.22-1.95-2.84-1.91-4.47.06-3.19,2.72-5.88,5.94-6,3.3-.12,6.02,2.25,6.32,5.53.02.19.03.38.03.57ZM460.58,33.28c0,1.14.51,2.28,1.4,3.16.91.89,2.09,1.37,3.25,1.33h0c1.21-.05,2.32-.59,3.13-1.52.83-.94,1.21-2.15,1.1-3.39-.22-2.37-2.19-4.08-4.58-3.99-2.33.09-4.26,2.04-4.31,4.34,0,.02,0,.05,0,.07Z"/>
        <path class="cls-2" d="M444.65,33.27c0,1.47-.58,2.95-1.63,4.12-1.16,1.29-2.76,2.06-4.39,2.1h0c-3.18.08-5.98-2.48-6.23-5.7-.14-1.72.42-3.35,1.55-4.61,1.13-1.25,2.7-1.96,4.41-1.99,3.25-.07,6.01,2.4,6.28,5.62.01.15.02.31.02.46ZM438.58,37.8c1.17-.03,2.32-.59,3.17-1.54.85-.95,1.28-2.16,1.19-3.31-.2-2.33-2.2-4.12-4.55-4.07-1.24.03-2.38.54-3.19,1.44-.82.9-1.21,2.09-1.12,3.34.18,2.3,2.24,4.2,4.5,4.14h0Z"/>
        <path class="cls-2" d="M392.74,33.27c0,1.47-.58,2.95-1.63,4.12-1.16,1.29-2.76,2.06-4.39,2.1h0c-3.18.08-5.98-2.48-6.23-5.7-.14-1.72.42-3.35,1.55-4.61,1.13-1.25,2.7-1.96,4.41-1.99,3.25-.07,6.01,2.4,6.28,5.62.01.15.02.31.02.46ZM386.68,37.8c1.17-.03,2.32-.59,3.17-1.54.85-.95,1.27-2.16,1.19-3.31-.2-2.33-2.2-4.12-4.55-4.07-1.24.03-2.38.54-3.19,1.44-.82.9-1.22,2.09-1.12,3.34.18,2.3,2.24,4.2,4.5,4.14h0Z"/>
      </g>
      <g>
        <path class="cls-2" d="M798.34,626.03c0,.1,0,.2,0,.3-.15,3.22-2.87,5.85-6.06,5.88-1.65.01-3.29-.69-4.48-1.93-1.19-1.24-1.82-2.88-1.74-4.54h0c.09-1.68.85-3.21,2.15-4.32,1.29-1.1,2.99-1.64,4.67-1.46,3.12.33,5.46,2.97,5.46,6.09ZM787.75,626.02c0,1.11.46,2.23,1.27,3.08.87.91,2.05,1.42,3.24,1.41,2.3-.02,4.27-1.93,4.38-4.26.15-2.37-1.58-4.37-3.94-4.62-1.21-.13-2.45.26-3.39,1.07-.94.8-1.49,1.91-1.55,3.12h0c0,.07,0,.14,0,.21Z"/>
        <path class="cls-2" d="M717.98,625.96c.04,2.32-2.09,4.4-4.4,4.31-2.2-.09-3.99-1.93-4.03-4.15-.05-2.43,1.93-4.37,4.36-4.27,2.21.09,4.03,1.93,4.07,4.12Z"/>
        <path class="cls-2" d="M772.38,626.01c0,1.49-.54,2.95-1.54,4.09-1.12,1.28-2.66,2.03-4.34,2.09-1.62.07-3.26-.59-4.5-1.81-1.24-1.22-1.95-2.84-1.91-4.47.06-3.19,2.72-5.88,5.94-6,3.3-.12,6.02,2.25,6.33,5.53.02.19.03.38.03.57ZM761.79,626.01c0,1.14.51,2.28,1.4,3.16.91.89,2.09,1.37,3.25,1.33h0c1.21-.05,2.32-.59,3.13-1.52.83-.94,1.21-2.15,1.1-3.39-.22-2.37-2.19-4.08-4.58-3.99-2.33.09-4.26,2.04-4.31,4.34,0,.02,0,.05,0,.07Z"/>
        <path class="cls-2" d="M745.85,626c0,1.47-.58,2.95-1.63,4.12-1.16,1.29-2.76,2.06-4.39,2.1h0c-3.18.08-5.98-2.48-6.23-5.7-.14-1.72.42-3.35,1.55-4.61,1.13-1.25,2.7-1.96,4.41-1.99,3.25-.07,6.01,2.4,6.28,5.62.01.15.02.31.02.46ZM739.79,630.53c1.17-.03,2.32-.59,3.17-1.54.85-.95,1.28-2.16,1.19-3.31-.2-2.33-2.2-4.12-4.55-4.07-1.24.03-2.38.54-3.19,1.44-.82.9-1.21,2.09-1.12,3.34.18,2.3,2.24,4.2,4.5,4.14h0Z"/>
        <path class="cls-2" d="M693.95,626c0,1.47-.58,2.95-1.63,4.12-1.16,1.29-2.76,2.06-4.39,2.1h0c-3.18.08-5.98-2.48-6.23-5.7-.14-1.72.42-3.35,1.55-4.61,1.13-1.25,2.7-1.96,4.41-1.99,3.25-.07,6.01,2.4,6.28,5.62.01.15.02.31.02.46ZM687.88,630.53c1.17-.03,2.32-.59,3.17-1.54.85-.95,1.27-2.16,1.19-3.31-.2-2.33-2.2-4.12-4.55-4.07-1.24.03-2.38.54-3.19,1.44-.82.9-1.22,2.09-1.12,3.34.18,2.3,2.24,4.2,4.5,4.14h0Z"/>
      </g>
      <g>
        <circle class="cls-1" cx="150.5" cy="469.43" r="2.64"/>
        <circle class="cls-1" cx="150.5" cy="493.36" r="2.64"/>
        <circle class="cls-1" cx="150.5" cy="517.3" r="2.64"/>
        <path class="cls-1" d="M153.14,541.23c0-1.46-1.18-2.64-2.64-2.64s-2.64,1.18-2.64,2.64,1.18,2.64,2.64,2.64,2.64-1.18,2.64-2.64Z"/>
        <circle class="cls-1" cx="150.5" cy="565.16" r="2.64"/>
        <circle class="cls-1" cx="150.5" cy="589.1" r="2.64"/>
        <circle class="cls-1" cx="150.5" cy="613.03" r="2.64"/>
        <circle class="cls-1" cx="129.09" cy="469.43" r="2.64"/>
        <circle class="cls-1" cx="129.09" cy="493.36" r="2.64"/>
        <circle class="cls-1" cx="129.09" cy="517.3" r="2.64"/>
        <path class="cls-1" d="M131.74,541.23c0-1.46-1.18-2.64-2.64-2.64s-2.64,1.18-2.64,2.64,1.18,2.64,2.64,2.64,2.64-1.18,2.64-2.64Z"/>
        <circle class="cls-1" cx="129.09" cy="565.16" r="2.64"/>
        <circle class="cls-1" cx="129.09" cy="589.1" r="2.64"/>
        <circle class="cls-1" cx="129.09" cy="613.03" r="2.64"/>
        <circle class="cls-1" cx="107.69" cy="469.43" r="2.64"/>
        <circle class="cls-1" cx="107.69" cy="493.36" r="2.64"/>
        <circle class="cls-1" cx="107.69" cy="517.3" r="2.64"/>
        <path class="cls-1" d="M110.33,541.23c0-1.46-1.18-2.64-2.64-2.64s-2.64,1.18-2.64,2.64,1.18,2.64,2.64,2.64,2.64-1.18,2.64-2.64Z"/>
        <circle class="cls-1" cx="107.69" cy="565.16" r="2.64"/>
        <circle class="cls-1" cx="107.69" cy="589.1" r="2.64"/>
        <circle class="cls-1" cx="107.69" cy="613.03" r="2.64"/>
        <circle class="cls-1" cx="86.28" cy="469.43" r="2.64"/>
        <circle class="cls-1" cx="86.28" cy="493.36" r="2.64"/>
        <circle class="cls-1" cx="86.28" cy="517.3" r="2.64"/>
        <path class="cls-1" d="M88.93,541.23c0-1.46-1.18-2.64-2.64-2.64s-2.64,1.18-2.64,2.64,1.18,2.64,2.64,2.64,2.64-1.18,2.64-2.64Z"/>
        <circle class="cls-1" cx="86.28" cy="565.16" r="2.64"/>
        <circle class="cls-1" cx="86.28" cy="589.1" r="2.64"/>
        <circle class="cls-1" cx="86.28" cy="613.03" r="2.64"/>
        <circle class="cls-1" cx="64.88" cy="469.43" r="2.64"/>
        <circle class="cls-1" cx="64.88" cy="493.36" r="2.64"/>
        <circle class="cls-1" cx="64.88" cy="517.3" r="2.64"/>
        <path class="cls-1" d="M67.52,541.23c0-1.46-1.18-2.64-2.64-2.64s-2.64,1.18-2.64,2.64,1.18,2.64,2.64,2.64,2.64-1.18,2.64-2.64Z"/>
        <circle class="cls-1" cx="64.88" cy="565.16" r="2.64"/>
        <circle class="cls-1" cx="64.88" cy="589.1" r="2.64"/>
        <circle class="cls-1" cx="64.88" cy="613.03" r="2.64"/>
      </g>
      <g>
        <circle class="cls-1" cx="835.01" cy="387.51" r="2.64"/>
        <path class="cls-1" d="M837.65,411.44c0-1.46-1.18-2.64-2.64-2.64s-2.64,1.18-2.64,2.64,1.18,2.64,2.64,2.64,2.64-1.18,2.64-2.64Z"/>
        <circle class="cls-1" cx="835.01" cy="435.37" r="2.64"/>
        <path class="cls-1" d="M837.65,459.31c0-1.46-1.18-2.64-2.64-2.64s-2.64,1.18-2.64,2.64,1.18,2.64,2.64,2.64,2.64-1.18,2.64-2.64Z"/>
        <circle class="cls-1" cx="835.01" cy="483.24" r="2.64"/>
        <circle class="cls-1" cx="835.01" cy="507.17" r="2.64"/>
        <circle class="cls-1" cx="835.01" cy="531.11" r="2.64"/>
        <circle class="cls-1" cx="813.6" cy="387.51" r="2.64"/>
        <path class="cls-1" d="M816.25,411.44c0-1.46-1.18-2.64-2.64-2.64s-2.64,1.18-2.64,2.64,1.18,2.64,2.64,2.64,2.64-1.18,2.64-2.64Z"/>
        <circle class="cls-1" cx="813.6" cy="435.37" r="2.64"/>
        <path class="cls-1" d="M816.25,459.31c0-1.46-1.18-2.64-2.64-2.64s-2.64,1.18-2.64,2.64,1.18,2.64,2.64,2.64,2.64-1.18,2.64-2.64Z"/>
        <circle class="cls-1" cx="813.6" cy="483.24" r="2.64"/>
        <circle class="cls-1" cx="813.6" cy="507.17" r="2.64"/>
        <circle class="cls-1" cx="813.6" cy="531.11" r="2.64"/>
        <circle class="cls-1" cx="792.2" cy="387.51" r="2.64"/>
        <path class="cls-1" d="M794.84,411.44c0-1.46-1.18-2.64-2.64-2.64s-2.64,1.18-2.64,2.64,1.18,2.64,2.64,2.64,2.64-1.18,2.64-2.64Z"/>
        <circle class="cls-1" cx="792.2" cy="435.37" r="2.64"/>
        <path class="cls-1" d="M794.84,459.31c0-1.46-1.18-2.64-2.64-2.64s-2.64,1.18-2.64,2.64,1.18,2.64,2.64,2.64,2.64-1.18,2.64-2.64Z"/>
        <circle class="cls-1" cx="792.2" cy="483.24" r="2.64"/>
        <circle class="cls-1" cx="792.2" cy="507.17" r="2.64"/>
        <circle class="cls-1" cx="792.2" cy="531.11" r="2.64"/>
        <circle class="cls-1" cx="770.79" cy="387.51" r="2.64"/>
        <path class="cls-1" d="M773.44,411.44c0-1.46-1.18-2.64-2.64-2.64s-2.64,1.18-2.64,2.64,1.18,2.64,2.64,2.64,2.64-1.18,2.64-2.64Z"/>
        <circle class="cls-1" cx="770.79" cy="435.37" r="2.64"/>
        <path class="cls-1" d="M773.44,459.31c0-1.46-1.18-2.64-2.64-2.64s-2.64,1.18-2.64,2.64,1.18,2.64,2.64,2.64,2.64-1.18,2.64-2.64Z"/>
        <circle class="cls-1" cx="770.79" cy="483.24" r="2.64"/>
        <circle class="cls-1" cx="770.79" cy="507.17" r="2.64"/>
        <circle class="cls-1" cx="770.79" cy="531.11" r="2.64"/>
        <circle class="cls-1" cx="749.39" cy="387.51" r="2.64"/>
        <path class="cls-1" d="M752.03,411.44c0-1.46-1.18-2.64-2.64-2.64s-2.64,1.18-2.64,2.64,1.18,2.64,2.64,2.64,2.64-1.18,2.64-2.64Z"/>
        <circle class="cls-1" cx="749.39" cy="435.37" r="2.64"/>
        <path class="cls-1" d="M752.03,459.31c0-1.46-1.18-2.64-2.64-2.64s-2.64,1.18-2.64,2.64,1.18,2.64,2.64,2.64,2.64-1.18,2.64-2.64Z"/>
        <circle class="cls-1" cx="749.39" cy="483.24" r="2.64"/>
        <circle class="cls-1" cx="749.39" cy="507.17" r="2.64"/>
        <circle class="cls-1" cx="749.39" cy="531.11" r="2.64"/>
      </g>
      <g>
        <path class="cls-1" d="M560.95,202.47c1.46,0,2.64-1.18,2.64-2.64s-1.18-2.64-2.64-2.64-2.64,1.18-2.64,2.64,1.18,2.64,2.64,2.64Z"/>
        <circle class="cls-1" cx="537.01" cy="199.82" r="2.64"/>
        <circle class="cls-1" cx="513.08" cy="199.82" r="2.64"/>
        <circle class="cls-1" cx="489.15" cy="199.82" r="2.64"/>
        <path class="cls-1" d="M465.21,202.47c1.46,0,2.64-1.18,2.64-2.64s-1.18-2.64-2.64-2.64-2.64,1.18-2.64,2.64,1.18,2.64,2.64,2.64Z"/>
        <circle class="cls-1" cx="441.28" cy="199.82" r="2.64"/>
        <circle class="cls-1" cx="417.35" cy="199.82" r="2.64"/>
        <path class="cls-1" d="M560.95,181.06c1.46,0,2.64-1.18,2.64-2.64s-1.18-2.64-2.64-2.64-2.64,1.18-2.64,2.64,1.18,2.64,2.64,2.64Z"/>
        <circle class="cls-1" cx="537.01" cy="178.42" r="2.64"/>
        <circle class="cls-1" cx="513.08" cy="178.42" r="2.64"/>
        <circle class="cls-1" cx="489.15" cy="178.42" r="2.64"/>
        <path class="cls-1" d="M465.21,181.06c1.46,0,2.64-1.18,2.64-2.64s-1.18-2.64-2.64-2.64-2.64,1.18-2.64,2.64,1.18,2.64,2.64,2.64Z"/>
        <circle class="cls-1" cx="441.28" cy="178.42" r="2.64"/>
        <circle class="cls-1" cx="417.35" cy="178.42" r="2.64"/>
        <path class="cls-1" d="M560.95,159.66c1.46,0,2.64-1.18,2.64-2.64s-1.18-2.64-2.64-2.64-2.64,1.18-2.64,2.64,1.18,2.64,2.64,2.64Z"/>
        <circle class="cls-1" cx="537.01" cy="157.01" r="2.64"/>
        <circle class="cls-1" cx="513.08" cy="157.01" r="2.64"/>
        <circle class="cls-1" cx="489.15" cy="157.01" r="2.64"/>
        <path class="cls-1" d="M465.21,159.66c1.46,0,2.64-1.18,2.64-2.64s-1.18-2.64-2.64-2.64-2.64,1.18-2.64,2.64,1.18,2.64,2.64,2.64Z"/>
        <circle class="cls-1" cx="441.28" cy="157.01" r="2.64"/>
        <circle class="cls-1" cx="417.35" cy="157.01" r="2.64"/>
        <path class="cls-1" d="M560.95,138.25c1.46,0,2.64-1.18,2.64-2.64s-1.18-2.64-2.64-2.64-2.64,1.18-2.64,2.64,1.18,2.64,2.64,2.64Z"/>
        <circle class="cls-1" cx="537.01" cy="135.61" r="2.64"/>
        <circle class="cls-1" cx="513.08" cy="135.61" r="2.64"/>
        <circle class="cls-1" cx="489.15" cy="135.61" r="2.64"/>
        <path class="cls-1" d="M465.21,138.25c1.46,0,2.64-1.18,2.64-2.64s-1.18-2.64-2.64-2.64-2.64,1.18-2.64,2.64,1.18,2.64,2.64,2.64Z"/>
        <circle class="cls-1" cx="441.28" cy="135.61" r="2.64"/>
        <circle class="cls-1" cx="417.35" cy="135.61" r="2.64"/>
        <path class="cls-1" d="M560.95,116.85c1.46,0,2.64-1.18,2.64-2.64s-1.18-2.64-2.64-2.64-2.64,1.18-2.64,2.64,1.18,2.64,2.64,2.64Z"/>
        <circle class="cls-1" cx="537.01" cy="114.2" r="2.64"/>
        <circle class="cls-1" cx="513.08" cy="114.2" r="2.64"/>
        <circle class="cls-1" cx="489.15" cy="114.2" r="2.64"/>
        <path class="cls-1" d="M465.21,116.85c1.46,0,2.64-1.18,2.64-2.64s-1.18-2.64-2.64-2.64-2.64,1.18-2.64,2.64,1.18,2.64,2.64,2.64Z"/>
        <circle class="cls-1" cx="441.28" cy="114.2" r="2.64"/>
        <circle class="cls-1" cx="417.35" cy="114.2" r="2.64"/>
      </g>
      <g>
        <path class="cls-2" d="M416.34,306.46c0-.81.03-1.61.09-2.4l-5.19-.41c-.07.92-.11,1.86-.11,2.81,0,19.37,15.76,35.12,35.12,35.12s35.12-15.76,35.12-35.12c0-.95-.04-1.88-.11-2.81l-5.19.41c.06.79.09,1.59.09,2.4,0,16.5-13.42,29.92-29.92,29.92s-29.92-13.42-29.92-29.92Z"/>
        <path class="cls-2" d="M415.95,288.69c-1,1.7-1.86,3.5-2.56,5.34l4.87,1.84c.59-1.57,1.33-3.1,2.18-4.54l-4.49-2.64Z"/>
        <path class="cls-2" d="M474.24,295.85l4.87-1.84c-.7-1.84-1.56-3.64-2.56-5.34l-4.48,2.64c.85,1.45,1.59,2.98,2.18,4.54Z"/>
        <path class="cls-2" d="M442.05,276.83l-.72-5.15c-1.95.27-3.89.72-5.77,1.32l1.58,4.96c1.6-.51,3.25-.89,4.91-1.12Z"/>
        <path class="cls-2" d="M450.44,276.83c1.66.23,3.31.61,4.91,1.12l1.58-4.96c-1.88-.6-3.82-1.04-5.77-1.31l-.72,5.15Z"/>
        <path class="cls-2" d="M426.69,277.29c-1.63,1.1-3.19,2.34-4.61,3.7l3.58,3.77c1.22-1.16,2.54-2.22,3.94-3.15l-2.9-4.32Z"/>
        <path class="cls-2" d="M466.84,284.74l3.58-3.78c-1.43-1.36-2.99-2.6-4.62-3.69l-2.9,4.32c1.39.94,2.72,2,3.94,3.15Z"/>
      </g>
      <g>
        <path class="cls-2" d="M874.28,303.99c0-.81.03-1.61.09-2.39l-5.19-.41c-.07.92-.11,1.86-.11,2.81,0,19.37,15.76,35.12,35.12,35.12s35.12-15.76,35.12-35.12c0-.95-.04-1.88-.11-2.81l-5.19.41c.06.79.09,1.59.09,2.39,0,16.5-13.42,29.92-29.92,29.92s-29.92-13.42-29.92-29.92Z"/>
        <path class="cls-2" d="M873.89,286.22c-1,1.7-1.86,3.5-2.56,5.34l4.87,1.84c.59-1.57,1.33-3.1,2.18-4.54l-4.49-2.64Z"/>
        <path class="cls-2" d="M932.18,293.37l4.87-1.84c-.7-1.84-1.56-3.64-2.56-5.34l-4.48,2.64c.85,1.45,1.59,2.98,2.18,4.54Z"/>
        <path class="cls-2" d="M899.99,274.36l-.72-5.15c-1.95.27-3.89.72-5.77,1.32l1.58,4.96c1.6-.51,3.25-.89,4.91-1.12Z"/>
        <path class="cls-2" d="M908.38,274.36c1.66.23,3.31.61,4.91,1.12l1.58-4.96c-1.88-.6-3.82-1.04-5.77-1.31l-.72,5.15Z"/>
        <path class="cls-2" d="M884.63,274.81c-1.63,1.1-3.19,2.34-4.61,3.7l3.58,3.77c1.22-1.16,2.54-2.22,3.94-3.15l-2.9-4.32Z"/>
        <path class="cls-2" d="M924.78,282.27l3.58-3.78c-1.43-1.36-2.99-2.6-4.62-3.69l-2.9,4.32c1.39.94,2.72,2,3.94,3.15Z"/>
      </g>
      <path class="cls-3" d="M13.37,222.78c0-9.3,7.7-13.89,14.49-17.95,6.55-3.9,12.2-7.28,12.2-13.91s-5.65-10-12.2-13.9c-6.79-4.05-14.49-8.65-14.49-17.95s7.7-13.89,14.49-17.94c6.54-3.9,12.2-7.27,12.2-13.89s-5.65-9.98-12.2-13.88c-6.79-4.05-14.49-8.64-14.49-17.92s7.7-13.88,14.49-17.93c6.54-3.9,12.2-7.27,12.2-13.89s-5.65-9.98-12.19-13.88c-6.79-4.05-14.49-8.64-14.49-17.93s7.7-13.88,14.49-17.93c6.54-3.9,12.2-7.27,12.2-13.88h4.71c0,9.29-7.7,13.88-14.49,17.93-6.54,3.9-12.2,7.27-12.2,13.88s5.65,9.99,12.2,13.89c6.79,4.05,14.49,8.64,14.49,17.93s-7.7,13.88-14.49,17.93c-6.54,3.9-12.2,7.27-12.2,13.89s5.65,9.98,12.2,13.88c6.79,4.05,14.49,8.64,14.49,17.92s-7.7,13.89-14.49,17.94c-6.54,3.9-12.2,7.27-12.2,13.89s5.65,10,12.2,13.91c6.79,4.05,14.49,8.65,14.49,17.95s-7.7,13.9-14.49,17.95c-6.54,3.9-12.2,7.28-12.2,13.9h-4.71Z"/>
      <path class="cls-3" d="M36.42,222.78c0-9.3,7.7-13.89,14.49-17.95,6.55-3.9,12.2-7.28,12.2-13.91s-5.65-10-12.2-13.9c-6.79-4.05-14.49-8.65-14.49-17.95s7.7-13.89,14.49-17.94c6.54-3.9,12.2-7.27,12.2-13.89s-5.65-9.98-12.2-13.88c-6.79-4.05-14.49-8.64-14.49-17.92s7.7-13.88,14.49-17.93c6.54-3.9,12.2-7.27,12.2-13.89s-5.65-9.98-12.19-13.88c-6.79-4.05-14.49-8.64-14.49-17.93s7.7-13.88,14.49-17.93c6.54-3.9,12.2-7.27,12.2-13.88h4.71c0,9.29-7.7,13.88-14.49,17.93-6.54,3.9-12.2,7.27-12.2,13.88s5.65,9.99,12.2,13.89c6.79,4.05,14.49,8.64,14.49,17.93s-7.7,13.88-14.49,17.93c-6.54,3.9-12.2,7.27-12.2,13.89s5.65,9.98,12.2,13.88c6.79,4.05,14.49,8.64,14.49,17.92s-7.7,13.89-14.49,17.94c-6.54,3.9-12.2,7.27-12.2,13.89s5.65,10,12.2,13.91c6.79,4.05,14.49,8.65,14.49,17.95s-7.7,13.9-14.49,17.95c-6.54,3.9-12.2,7.28-12.2,13.9h-4.71Z"/>
      <path class="cls-2" d="M685.56,289.86c0-9.3,7.7-13.89,14.49-17.95,6.55-3.9,12.2-7.28,12.2-13.91s-5.65-10-12.2-13.9c-6.79-4.05-14.49-8.65-14.49-17.95s7.7-13.89,14.49-17.94c6.54-3.9,12.2-7.27,12.2-13.89s-5.65-9.98-12.2-13.88c-6.79-4.05-14.49-8.64-14.49-17.92s7.7-13.88,14.49-17.93c6.54-3.9,12.2-7.27,12.2-13.89s-5.65-9.98-12.19-13.88c-6.79-4.05-14.49-8.64-14.49-17.93s7.7-13.88,14.49-17.93c6.54-3.9,12.2-7.27,12.2-13.88h4.71c0,9.29-7.7,13.88-14.49,17.93-6.54,3.9-12.2,7.27-12.2,13.88s5.65,9.99,12.2,13.89c6.79,4.05,14.49,8.64,14.49,17.93s-7.7,13.88-14.49,17.93c-6.54,3.9-12.2,7.27-12.2,13.89s5.65,9.98,12.2,13.88c6.79,4.05,14.49,8.64,14.49,17.92s-7.7,13.89-14.49,17.94c-6.54,3.9-12.2,7.27-12.2,13.89s5.65,10,12.2,13.91c6.79,4.05,14.49,8.65,14.49,17.95s-7.7,13.9-14.49,17.95c-6.54,3.9-12.2,7.28-12.2,13.9h-4.71Z"/>
      <path class="cls-3" d="M708.61,289.86c0-9.3,7.7-13.89,14.49-17.95,6.55-3.9,12.2-7.28,12.2-13.91s-5.65-10-12.2-13.9c-6.79-4.05-14.49-8.65-14.49-17.95s7.7-13.89,14.49-17.94c6.54-3.9,12.2-7.27,12.2-13.89s-5.65-9.98-12.2-13.88c-6.79-4.05-14.49-8.64-14.49-17.92s7.7-13.88,14.49-17.93c6.54-3.9,12.2-7.27,12.2-13.89s-5.65-9.98-12.19-13.88c-6.79-4.05-14.49-8.64-14.49-17.93s7.7-13.88,14.49-17.93c6.54-3.9,12.2-7.27,12.2-13.88h4.71c0,9.29-7.7,13.88-14.49,17.93-6.54,3.9-12.2,7.27-12.2,13.88s5.65,9.99,12.2,13.89c6.79,4.05,14.49,8.64,14.49,17.93s-7.7,13.88-14.49,17.93c-6.54,3.9-12.2,7.27-12.2,13.89s5.65,9.98,12.2,13.88c6.79,4.05,14.49,8.64,14.49,17.92s-7.7,13.89-14.49,17.94c-6.54,3.9-12.2,7.27-12.2,13.89s5.65,10,12.2,13.91c6.79,4.05,14.49,8.65,14.49,17.95s-7.7,13.9-14.49,17.95c-6.54,3.9-12.2,7.28-12.2,13.9h-4.71Z"/>
      <path class="cls-2" d="M59.48,222.78c0-9.3,7.7-13.89,14.49-17.95,6.55-3.9,12.2-7.28,12.2-13.91s-5.65-10-12.2-13.9c-6.79-4.05-14.49-8.65-14.49-17.95s7.7-13.89,14.49-17.94c6.54-3.9,12.2-7.27,12.2-13.89s-5.65-9.98-12.2-13.88c-6.79-4.05-14.49-8.64-14.49-17.92s7.7-13.88,14.49-17.93c6.54-3.9,12.2-7.27,12.2-13.89s-5.65-9.98-12.19-13.88c-6.79-4.05-14.49-8.64-14.49-17.93s7.7-13.88,14.49-17.93c6.54-3.9,12.2-7.27,12.2-13.88h4.71c0,9.29-7.7,13.88-14.49,17.93-6.54,3.9-12.2,7.27-12.2,13.88s5.65,9.99,12.2,13.89c6.79,4.05,14.49,8.64,14.49,17.93s-7.7,13.88-14.49,17.93c-6.54,3.9-12.2,7.27-12.2,13.89s5.65,9.98,12.2,13.88c6.79,4.05,14.49,8.64,14.49,17.92s-7.7,13.89-14.49,17.94c-6.54,3.9-12.2,7.27-12.2,13.89s5.65,10,12.2,13.91c6.79,4.05,14.49,8.65,14.49,17.95s-7.7,13.9-14.49,17.95c-6.54,3.9-12.2,7.28-12.2,13.9h-4.71Z"/>
      <path class="cls-2" d="M368.91,655.26c0-9.3,7.7-13.89,14.49-17.95,6.55-3.9,12.2-7.28,12.2-13.91s-5.65-10-12.2-13.9c-6.79-4.05-14.49-8.65-14.49-17.95s7.7-13.89,14.49-17.94c6.54-3.9,12.2-7.27,12.2-13.89s-5.65-9.98-12.2-13.88c-6.79-4.05-14.49-8.64-14.49-17.92s7.7-13.88,14.49-17.93c6.54-3.9,12.2-7.27,12.2-13.89s-5.65-9.98-12.19-13.88c-6.79-4.05-14.49-8.64-14.49-17.93s7.7-13.88,14.49-17.93c6.54-3.9,12.2-7.27,12.2-13.88h4.71c0,9.29-7.7,13.88-14.49,17.93-6.54,3.9-12.2,7.27-12.2,13.88s5.65,9.99,12.2,13.89c6.79,4.05,14.49,8.64,14.49,17.93s-7.7,13.88-14.49,17.93c-6.54,3.9-12.2,7.27-12.2,13.89s5.65,9.98,12.2,13.88c6.79,4.05,14.49,8.64,14.49,17.92s-7.7,13.89-14.49,17.94c-6.54,3.9-12.2,7.27-12.2,13.89s5.65,10,12.2,13.91c6.79,4.05,14.49,8.65,14.49,17.95s-7.7,13.9-14.49,17.95c-6.54,3.9-12.2,7.28-12.2,13.9h-4.71Z"/>
      <g>
        <path class="cls-2" d="M198.25,230.27c.1.53.24,1.03.36,1.54.08-.17.12-.36.12-.54,0-.41-.19-.76-.47-1Z"/>
        <path class="cls-2" d="M198.73,222.46c0-.73-.59-1.32-1.34-1.32-.14,0-.29.02-.41.07.05.86.12,1.71.2,2.56v.02c.07.02.14.02.2.02.75,0,1.34-.59,1.34-1.34Z"/>
        <path class="cls-2" d="M198.73,213.65c0-.73-.59-1.32-1.34-1.32-.07,0-.14,0-.2.02v.02c-.08.85-.15,1.69-.2,2.56.12.05.27.07.41.07.75,0,1.34-.59,1.34-1.34Z"/>
        <path class="cls-2" d="M198.61,204.3c-.12.51-.25,1.03-.36,1.56.29-.24.47-.61.47-1.02,0-.2-.05-.37-.12-.54Z"/>
        <path class="cls-2" d="M202.89,243.18c.34.66.69,1.32,1.07,1.97.1-.19.17-.42.17-.66,0-.69-.54-1.27-1.24-1.3Z"/>
        <path class="cls-2" d="M201.47,235.68c0,.73.6,1.33,1.33,1.33s1.33-.6,1.33-1.33-.6-1.33-1.33-1.33-1.33.6-1.33,1.33Z"/>
        <path class="cls-2" d="M201.47,226.87c0,.73.6,1.33,1.33,1.33s1.33-.6,1.33-1.33-.6-1.33-1.33-1.33-1.33.6-1.33,1.33Z"/>
        <path class="cls-2" d="M201.47,218.06c0,.73.6,1.33,1.33,1.33s1.33-.6,1.33-1.33-.6-1.33-1.33-1.33-1.33.6-1.33,1.33Z"/>
        <path class="cls-2" d="M201.47,209.25c0,.73.6,1.33,1.33,1.33s1.33-.6,1.33-1.33-.6-1.33-1.33-1.33-1.33.6-1.33,1.33Z"/>
        <path class="cls-2" d="M201.47,200.44c0,.73.6,1.33,1.33,1.33s1.33-.6,1.33-1.33-.6-1.33-1.33-1.33-1.33.6-1.33,1.33Z"/>
        <path class="cls-2" d="M204.13,191.63c0-.24-.07-.47-.19-.66-.36.66-.71,1.32-1.05,1.98.69-.03,1.24-.63,1.24-1.32Z"/>
        <path class="cls-2" d="M207.69,248.89c0,.73.6,1.33,1.33,1.33s1.33-.6,1.33-1.33-.6-1.33-1.33-1.33-1.33.6-1.33,1.33Z"/>
        <path class="cls-2" d="M207.69,240.09c0,.73.6,1.33,1.33,1.33s1.33-.6,1.33-1.33-.6-1.33-1.33-1.33-1.33.6-1.33,1.33Z"/>
        <path class="cls-2" d="M207.69,231.28c0,.73.6,1.33,1.33,1.33s1.33-.6,1.33-1.33-.6-1.33-1.33-1.33-1.33.6-1.33,1.33Z"/>
        <circle class="cls-2" cx="209.02" cy="222.47" r="1.33"/>
        <circle class="cls-2" cx="209.02" cy="213.66" r="1.33"/>
        <path class="cls-2" d="M207.69,204.85c0,.73.6,1.33,1.33,1.33s1.33-.6,1.33-1.33-.6-1.33-1.33-1.33-1.33.6-1.33,1.33Z"/>
        <path class="cls-2" d="M207.69,196.04c0,.73.6,1.33,1.33,1.33s1.33-.6,1.33-1.33-.6-1.33-1.33-1.33-1.33.6-1.33,1.33Z"/>
        <path class="cls-2" d="M207.69,187.23c0,.73.6,1.33,1.33,1.33s1.33-.6,1.33-1.33-.6-1.33-1.33-1.33-1.33.6-1.33,1.33Z"/>
        <path class="cls-2" d="M213.1,253.3c0,.73.6,1.33,1.33,1.33s1.33-.6,1.33-1.33-.6-1.33-1.33-1.33-1.33.6-1.33,1.33Z"/>
        <path class="cls-2" d="M213.1,244.49c0,.73.6,1.33,1.33,1.33s1.33-.6,1.33-1.33-.6-1.33-1.33-1.33-1.33.6-1.33,1.33Z"/>
        <path class="cls-2" d="M213.1,235.68c0,.73.6,1.33,1.33,1.33s1.33-.6,1.33-1.33-.6-1.33-1.33-1.33-1.33.6-1.33,1.33Z"/>
        <path class="cls-2" d="M213.1,226.87c0,.73.6,1.33,1.33,1.33s1.33-.6,1.33-1.33-.6-1.33-1.33-1.33-1.33.6-1.33,1.33Z"/>
        <path class="cls-2" d="M213.1,218.06c0,.73.6,1.33,1.33,1.33s1.33-.6,1.33-1.33-.6-1.33-1.33-1.33-1.33.6-1.33,1.33Z"/>
        <path class="cls-2" d="M213.1,209.25c0,.73.6,1.33,1.33,1.33s1.33-.6,1.33-1.33-.6-1.33-1.33-1.33-1.33.6-1.33,1.33Z"/>
        <path class="cls-2" d="M213.1,200.44c0,.73.6,1.33,1.33,1.33s1.33-.6,1.33-1.33-.6-1.33-1.33-1.33-1.33.6-1.33,1.33Z"/>
        <path class="cls-2" d="M213.1,191.63c0,.73.6,1.33,1.33,1.33s1.33-.6,1.33-1.33-.6-1.33-1.33-1.33-1.33.6-1.33,1.33Z"/>
        <path class="cls-2" d="M213.1,182.82c0,.73.6,1.33,1.33,1.33s1.33-.6,1.33-1.33-.6-1.33-1.33-1.33-1.33.6-1.33,1.33Z"/>
        <path class="cls-2" d="M219.32,257.7c0,.73.6,1.33,1.33,1.33s1.33-.6,1.33-1.33-.6-1.33-1.33-1.33-1.33.6-1.33,1.33Z"/>
        <path class="cls-2" d="M219.32,248.89c0,.73.6,1.33,1.33,1.33s1.33-.6,1.33-1.33-.6-1.33-1.33-1.33-1.33.6-1.33,1.33Z"/>
        <path class="cls-2" d="M219.32,240.09c0,.73.6,1.33,1.33,1.33s1.33-.6,1.33-1.33-.6-1.33-1.33-1.33-1.33.6-1.33,1.33Z"/>
        <path class="cls-2" d="M219.32,231.28c0,.73.6,1.33,1.33,1.33s1.33-.6,1.33-1.33-.6-1.33-1.33-1.33-1.33.6-1.33,1.33Z"/>
        <path class="cls-2" d="M219.32,222.47c0,.73.6,1.33,1.33,1.33s1.33-.6,1.33-1.33-.6-1.33-1.33-1.33-1.33.6-1.33,1.33Z"/>
        <path class="cls-2" d="M219.32,213.66c0,.73.6,1.33,1.33,1.33s1.33-.6,1.33-1.33-.6-1.33-1.33-1.33-1.33.6-1.33,1.33Z"/>
        <path class="cls-2" d="M219.32,204.85c0,.73.6,1.33,1.33,1.33s1.33-.6,1.33-1.33-.6-1.33-1.33-1.33-1.33.6-1.33,1.33Z"/>
        <path class="cls-2" d="M219.32,196.04c0,.73.6,1.33,1.33,1.33s1.33-.6,1.33-1.33-.6-1.33-1.33-1.33-1.33.6-1.33,1.33Z"/>
        <path class="cls-2" d="M219.32,187.23c0,.73.6,1.33,1.33,1.33s1.33-.6,1.33-1.33-.6-1.33-1.33-1.33-1.33.6-1.33,1.33Z"/>
        <path class="cls-2" d="M219.32,178.42c0,.73.6,1.33,1.33,1.33s1.33-.6,1.33-1.33-.6-1.33-1.33-1.33-1.33.6-1.33,1.33Z"/>
        <path class="cls-2" d="M224.72,262.11c0,.73.6,1.33,1.33,1.33s1.33-.6,1.33-1.33-.6-1.33-1.33-1.33-1.33.6-1.33,1.33Z"/>
        <path class="cls-2" d="M224.72,253.3c0,.73.6,1.33,1.33,1.33s1.33-.6,1.33-1.33-.6-1.33-1.33-1.33-1.33.6-1.33,1.33Z"/>
        <path class="cls-2" d="M224.72,244.49c0,.73.6,1.33,1.33,1.33s1.33-.6,1.33-1.33-.6-1.33-1.33-1.33-1.33.6-1.33,1.33Z"/>
        <path class="cls-2" d="M224.72,235.68c0,.73.6,1.33,1.33,1.33s1.33-.6,1.33-1.33-.6-1.33-1.33-1.33-1.33.6-1.33,1.33Z"/>
        <path class="cls-2" d="M224.72,226.87c0,.73.6,1.33,1.33,1.33s1.33-.6,1.33-1.33-.6-1.33-1.33-1.33-1.33.6-1.33,1.33Z"/>
        <path class="cls-2" d="M224.72,218.06c0,.73.6,1.33,1.33,1.33s1.33-.6,1.33-1.33-.6-1.33-1.33-1.33-1.33.6-1.33,1.33Z"/>
        <path class="cls-2" d="M224.72,209.25c0,.73.6,1.33,1.33,1.33s1.33-.6,1.33-1.33-.6-1.33-1.33-1.33-1.33.6-1.33,1.33Z"/>
        <path class="cls-2" d="M224.72,200.44c0,.73.6,1.33,1.33,1.33s1.33-.6,1.33-1.33-.6-1.33-1.33-1.33-1.33.6-1.33,1.33Z"/>
        <path class="cls-2" d="M224.72,191.63c0,.73.6,1.33,1.33,1.33s1.33-.6,1.33-1.33-.6-1.33-1.33-1.33-1.33.6-1.33,1.33Z"/>
        <path class="cls-2" d="M224.72,182.82c0,.73.6,1.33,1.33,1.33s1.33-.6,1.33-1.33-.6-1.33-1.33-1.33-1.33.6-1.33,1.33Z"/>
        <path class="cls-2" d="M224.72,174.02c0,.73.6,1.33,1.33,1.33s1.33-.6,1.33-1.33-.6-1.33-1.33-1.33-1.33.6-1.33,1.33Z"/>
        <path class="cls-2" d="M230.94,266.51c0,.73.6,1.33,1.33,1.33s1.33-.6,1.33-1.33-.6-1.33-1.33-1.33-1.33.6-1.33,1.33Z"/>
        <path class="cls-2" d="M230.94,257.7c0,.73.6,1.33,1.33,1.33s1.33-.6,1.33-1.33-.6-1.33-1.33-1.33-1.33.6-1.33,1.33Z"/>
        <path class="cls-2" d="M230.94,248.89c0,.73.6,1.33,1.33,1.33s1.33-.6,1.33-1.33-.6-1.33-1.33-1.33-1.33.6-1.33,1.33Z"/>
        <path class="cls-2" d="M230.94,240.09c0,.73.6,1.33,1.33,1.33s1.33-.6,1.33-1.33-.6-1.33-1.33-1.33-1.33.6-1.33,1.33Z"/>
        <path class="cls-2" d="M230.94,231.28c0,.73.6,1.33,1.33,1.33s1.33-.6,1.33-1.33-.6-1.33-1.33-1.33-1.33.6-1.33,1.33Z"/>
        <path class="cls-2" d="M230.94,222.47c0,.73.6,1.33,1.33,1.33s1.33-.6,1.33-1.33-.6-1.33-1.33-1.33-1.33.6-1.33,1.33Z"/>
        <path class="cls-2" d="M230.94,213.66c0,.73.6,1.33,1.33,1.33s1.33-.6,1.33-1.33-.6-1.33-1.33-1.33-1.33.6-1.33,1.33Z"/>
        <path class="cls-2" d="M230.94,204.85c0,.73.6,1.33,1.33,1.33s1.33-.6,1.33-1.33-.6-1.33-1.33-1.33-1.33.6-1.33,1.33Z"/>
        <path class="cls-2" d="M230.94,196.04c0,.73.6,1.33,1.33,1.33s1.33-.6,1.33-1.33-.6-1.33-1.33-1.33-1.33.6-1.33,1.33Z"/>
        <path class="cls-2" d="M230.94,187.23c0,.73.6,1.33,1.33,1.33s1.33-.6,1.33-1.33-.6-1.33-1.33-1.33-1.33.6-1.33,1.33Z"/>
        <path class="cls-2" d="M230.94,178.42c0,.73.6,1.33,1.33,1.33s1.33-.6,1.33-1.33-.6-1.33-1.33-1.33-1.33.6-1.33,1.33Z"/>
        <path class="cls-2" d="M230.94,169.61c0,.73.6,1.33,1.33,1.33s1.33-.6,1.33-1.33-.6-1.33-1.33-1.33-1.33.6-1.33,1.33Z"/>
        <path class="cls-2" d="M237.67,269.59c-.73,0-1.32.59-1.32,1.32,0,.12.02.22.05.32.73.22,1.47.42,2.24.61.24-.24.37-.56.37-.93,0-.73-.59-1.32-1.34-1.32Z"/>
        <path class="cls-2" d="M236.35,262.11c0,.73.6,1.33,1.33,1.33s1.33-.6,1.33-1.33-.6-1.33-1.33-1.33-1.33.6-1.33,1.33Z"/>
        <path class="cls-2" d="M236.35,253.3c0,.73.6,1.33,1.33,1.33s1.33-.6,1.33-1.33-.6-1.33-1.33-1.33-1.33.6-1.33,1.33Z"/>
        <circle class="cls-2" cx="237.68" cy="244.49" r="1.33"/>
        <path class="cls-2" d="M236.35,235.68c0,.73.6,1.33,1.33,1.33s1.33-.6,1.33-1.33-.6-1.33-1.33-1.33-1.33.6-1.33,1.33Z"/>
        <path class="cls-2" d="M236.35,226.87c0,.73.6,1.33,1.33,1.33s1.33-.6,1.33-1.33-.6-1.33-1.33-1.33-1.33.6-1.33,1.33Z"/>
        <path class="cls-2" d="M236.35,218.06c0,.73.6,1.33,1.33,1.33s1.33-.6,1.33-1.33-.6-1.33-1.33-1.33-1.33.6-1.33,1.33Z"/>
        <path class="cls-2" d="M236.35,209.25c0,.73.6,1.33,1.33,1.33s1.33-.6,1.33-1.33-.6-1.33-1.33-1.33-1.33.6-1.33,1.33Z"/>
        <path class="cls-2" d="M236.35,200.44c0,.73.6,1.33,1.33,1.33s1.33-.6,1.33-1.33-.6-1.33-1.33-1.33-1.33.6-1.33,1.33Z"/>
        <path class="cls-2" d="M236.35,191.63c0,.73.6,1.33,1.33,1.33s1.33-.6,1.33-1.33-.6-1.33-1.33-1.33-1.33.6-1.33,1.33Z"/>
        <circle class="cls-2" cx="237.68" cy="182.82" r="1.33"/>
        <path class="cls-2" d="M236.35,174.02c0,.73.6,1.33,1.33,1.33s1.33-.6,1.33-1.33-.6-1.33-1.33-1.33-1.33.6-1.33,1.33Z"/>
        <path class="cls-2" d="M239.01,165.21c0-.36-.14-.68-.37-.93-.76.19-1.51.39-2.24.61-.03.1-.05.2-.05.32,0,.73.59,1.32,1.32,1.32s1.34-.59,1.34-1.32Z"/>
        <path class="cls-2" d="M242.57,266.51c0,.73.6,1.33,1.33,1.33s1.33-.6,1.33-1.33-.6-1.33-1.33-1.33-1.33.6-1.33,1.33Z"/>
        <path class="cls-2" d="M242.57,257.7c0,.73.6,1.33,1.33,1.33s1.33-.6,1.33-1.33-.6-1.33-1.33-1.33-1.33.6-1.33,1.33Z"/>
        <path class="cls-2" d="M242.57,248.89c0,.73.6,1.33,1.33,1.33s1.33-.6,1.33-1.33-.6-1.33-1.33-1.33-1.33.6-1.33,1.33Z"/>
        <path class="cls-2" d="M242.57,240.09c0,.73.6,1.33,1.33,1.33s1.33-.6,1.33-1.33-.6-1.33-1.33-1.33-1.33.6-1.33,1.33Z"/>
        <path class="cls-2" d="M242.57,231.28c0,.73.6,1.33,1.33,1.33s1.33-.6,1.33-1.33-.6-1.33-1.33-1.33-1.33.6-1.33,1.33Z"/>
        <path class="cls-2" d="M242.57,222.47c0,.73.6,1.33,1.33,1.33s1.33-.6,1.33-1.33-.6-1.33-1.33-1.33-1.33.6-1.33,1.33Z"/>
        <path class="cls-2" d="M242.57,213.66c0,.73.6,1.33,1.33,1.33s1.33-.6,1.33-1.33-.6-1.33-1.33-1.33-1.33.6-1.33,1.33Z"/>
        <path class="cls-2" d="M242.57,204.85c0,.73.6,1.33,1.33,1.33s1.33-.6,1.33-1.33-.6-1.33-1.33-1.33-1.33.6-1.33,1.33Z"/>
        <path class="cls-2" d="M242.57,196.04c0,.73.6,1.33,1.33,1.33s1.33-.6,1.33-1.33-.6-1.33-1.33-1.33-1.33.6-1.33,1.33Z"/>
        <path class="cls-2" d="M242.57,187.23c0,.73.6,1.33,1.33,1.33s1.33-.6,1.33-1.33-.6-1.33-1.33-1.33-1.33.6-1.33,1.33Z"/>
        <path class="cls-2" d="M242.57,178.42c0,.73.6,1.33,1.33,1.33s1.33-.6,1.33-1.33-.6-1.33-1.33-1.33-1.33.6-1.33,1.33Z"/>
        <path class="cls-2" d="M242.57,169.61c0,.73.6,1.33,1.33,1.33s1.33-.6,1.33-1.33-.6-1.33-1.33-1.33-1.33.6-1.33,1.33Z"/>
        <path class="cls-2" d="M247.97,270.92c0,.73.6,1.33,1.33,1.33s1.33-.6,1.33-1.33-.6-1.33-1.33-1.33-1.33.6-1.33,1.33Z"/>
        <path class="cls-2" d="M247.97,262.11c0,.73.6,1.33,1.33,1.33s1.33-.6,1.33-1.33-.6-1.33-1.33-1.33-1.33.6-1.33,1.33Z"/>
        <path class="cls-2" d="M247.97,253.3c0,.73.6,1.33,1.33,1.33s1.33-.6,1.33-1.33-.6-1.33-1.33-1.33-1.33.6-1.33,1.33Z"/>
        <path class="cls-2" d="M247.97,244.49c0,.73.6,1.33,1.33,1.33s1.33-.6,1.33-1.33-.6-1.33-1.33-1.33-1.33.6-1.33,1.33Z"/>
        <path class="cls-2" d="M247.97,235.68c0,.73.6,1.33,1.33,1.33s1.33-.6,1.33-1.33-.6-1.33-1.33-1.33-1.33.6-1.33,1.33Z"/>
        <path class="cls-2" d="M247.97,226.87c0,.73.6,1.33,1.33,1.33s1.33-.6,1.33-1.33-.6-1.33-1.33-1.33-1.33.6-1.33,1.33Z"/>
        <path class="cls-2" d="M247.97,218.06c0,.73.6,1.33,1.33,1.33s1.33-.6,1.33-1.33-.6-1.33-1.33-1.33-1.33.6-1.33,1.33Z"/>
        <path class="cls-2" d="M247.97,209.25c0,.73.6,1.33,1.33,1.33s1.33-.6,1.33-1.33-.6-1.33-1.33-1.33-1.33.6-1.33,1.33Z"/>
        <path class="cls-2" d="M247.97,200.44c0,.73.6,1.33,1.33,1.33s1.33-.6,1.33-1.33-.6-1.33-1.33-1.33-1.33.6-1.33,1.33Z"/>
        <path class="cls-2" d="M247.97,191.63c0,.73.6,1.33,1.33,1.33s1.33-.6,1.33-1.33-.6-1.33-1.33-1.33-1.33.6-1.33,1.33Z"/>
        <path class="cls-2" d="M247.97,182.82c0,.73.6,1.33,1.33,1.33s1.33-.6,1.33-1.33-.6-1.33-1.33-1.33-1.33.6-1.33,1.33Z"/>
        <path class="cls-2" d="M247.97,174.02c0,.73.6,1.33,1.33,1.33s1.33-.6,1.33-1.33-.6-1.33-1.33-1.33-1.33.6-1.33,1.33Z"/>
        <path class="cls-2" d="M250.63,165.21c0-.73-.6-1.33-1.33-1.33s-1.33.6-1.33,1.33.6,1.33,1.33,1.33,1.33-.6,1.33-1.33Z"/>
        <path class="cls-2" d="M254.19,266.51c0,.73.6,1.33,1.33,1.33s1.33-.6,1.33-1.33-.6-1.33-1.33-1.33-1.33.6-1.33,1.33Z"/>
        <path class="cls-2" d="M254.19,257.7c0,.73.6,1.33,1.33,1.33s1.33-.6,1.33-1.33-.6-1.33-1.33-1.33-1.33.6-1.33,1.33Z"/>
        <path class="cls-2" d="M254.19,248.89c0,.73.6,1.33,1.33,1.33s1.33-.6,1.33-1.33-.6-1.33-1.33-1.33-1.33.6-1.33,1.33Z"/>
        <path class="cls-2" d="M254.19,240.09c0,.73.6,1.33,1.33,1.33s1.33-.6,1.33-1.33-.6-1.33-1.33-1.33-1.33.6-1.33,1.33Z"/>
        <path class="cls-2" d="M254.19,231.28c0,.73.6,1.33,1.33,1.33s1.33-.6,1.33-1.33-.6-1.33-1.33-1.33-1.33.6-1.33,1.33Z"/>
        <path class="cls-2" d="M254.19,222.47c0,.73.6,1.33,1.33,1.33s1.33-.6,1.33-1.33-.6-1.33-1.33-1.33-1.33.6-1.33,1.33Z"/>
        <path class="cls-2" d="M254.19,213.66c0,.73.6,1.33,1.33,1.33s1.33-.6,1.33-1.33-.6-1.33-1.33-1.33-1.33.6-1.33,1.33Z"/>
        <path class="cls-2" d="M254.19,204.85c0,.73.6,1.33,1.33,1.33s1.33-.6,1.33-1.33-.6-1.33-1.33-1.33-1.33.6-1.33,1.33Z"/>
        <path class="cls-2" d="M254.19,196.04c0,.73.6,1.33,1.33,1.33s1.33-.6,1.33-1.33-.6-1.33-1.33-1.33-1.33.6-1.33,1.33Z"/>
        <path class="cls-2" d="M254.19,187.23c0,.73.6,1.33,1.33,1.33s1.33-.6,1.33-1.33-.6-1.33-1.33-1.33-1.33.6-1.33,1.33Z"/>
        <path class="cls-2" d="M254.19,178.42c0,.73.6,1.33,1.33,1.33s1.33-.6,1.33-1.33-.6-1.33-1.33-1.33-1.33.6-1.33,1.33Z"/>
        <path class="cls-2" d="M254.19,169.61c0,.73.6,1.33,1.33,1.33s1.33-.6,1.33-1.33-.6-1.33-1.33-1.33-1.33.6-1.33,1.33Z"/>
        <path class="cls-2" d="M259.6,270.92c0,.73.6,1.33,1.33,1.33s1.33-.6,1.33-1.33-.6-1.33-1.33-1.33-1.33.6-1.33,1.33Z"/>
        <path class="cls-2" d="M259.6,262.11c0,.73.6,1.33,1.33,1.33s1.33-.6,1.33-1.33-.6-1.33-1.33-1.33-1.33.6-1.33,1.33Z"/>
        <path class="cls-2" d="M259.6,253.3c0,.73.6,1.33,1.33,1.33s1.33-.6,1.33-1.33-.6-1.33-1.33-1.33-1.33.6-1.33,1.33Z"/>
        <path class="cls-2" d="M259.6,244.49c0,.73.6,1.33,1.33,1.33s1.33-.6,1.33-1.33-.6-1.33-1.33-1.33-1.33.6-1.33,1.33Z"/>
        <path class="cls-2" d="M259.6,235.68c0,.73.6,1.33,1.33,1.33s1.33-.6,1.33-1.33-.6-1.33-1.33-1.33-1.33.6-1.33,1.33Z"/>
        <path class="cls-2" d="M259.6,226.87c0,.73.6,1.33,1.33,1.33s1.33-.6,1.33-1.33-.6-1.33-1.33-1.33-1.33.6-1.33,1.33Z"/>
        <path class="cls-2" d="M259.6,218.06c0,.73.6,1.33,1.33,1.33s1.33-.6,1.33-1.33-.6-1.33-1.33-1.33-1.33.6-1.33,1.33Z"/>
        <path class="cls-2" d="M259.6,209.25c0,.73.6,1.33,1.33,1.33s1.33-.6,1.33-1.33-.6-1.33-1.33-1.33-1.33.6-1.33,1.33Z"/>
        <path class="cls-2" d="M259.6,200.44c0,.73.6,1.33,1.33,1.33s1.33-.6,1.33-1.33-.6-1.33-1.33-1.33-1.33.6-1.33,1.33Z"/>
        <path class="cls-2" d="M259.6,191.63c0,.73.6,1.33,1.33,1.33s1.33-.6,1.33-1.33-.6-1.33-1.33-1.33-1.33.6-1.33,1.33Z"/>
        <path class="cls-2" d="M259.6,182.82c0,.73.6,1.33,1.33,1.33s1.33-.6,1.33-1.33-.6-1.33-1.33-1.33-1.33.6-1.33,1.33Z"/>
        <path class="cls-2" d="M259.6,174.02c0,.73.6,1.33,1.33,1.33s1.33-.6,1.33-1.33-.6-1.33-1.33-1.33-1.33.6-1.33,1.33Z"/>
        <path class="cls-2" d="M259.6,165.21c0,.73.6,1.33,1.33,1.33s1.33-.6,1.33-1.33-.6-1.33-1.33-1.33-1.33.6-1.33,1.33Z"/>
        <path class="cls-2" d="M265.82,266.51c0,.73.6,1.33,1.33,1.33s1.33-.6,1.33-1.33-.6-1.33-1.33-1.33-1.33.6-1.33,1.33Z"/>
        <path class="cls-2" d="M265.82,257.7c0,.73.6,1.33,1.33,1.33s1.33-.6,1.33-1.33-.6-1.33-1.33-1.33-1.33.6-1.33,1.33Z"/>
        <path class="cls-2" d="M265.82,248.89c0,.73.6,1.33,1.33,1.33s1.33-.6,1.33-1.33-.6-1.33-1.33-1.33-1.33.6-1.33,1.33Z"/>
        <path class="cls-2" d="M265.82,240.09c0,.73.6,1.33,1.33,1.33s1.33-.6,1.33-1.33-.6-1.33-1.33-1.33-1.33.6-1.33,1.33Z"/>
        <path class="cls-2" d="M265.82,231.28c0,.73.6,1.33,1.33,1.33s1.33-.6,1.33-1.33-.6-1.33-1.33-1.33-1.33.6-1.33,1.33Z"/>
        <path class="cls-2" d="M265.82,222.47c0,.73.6,1.33,1.33,1.33s1.33-.6,1.33-1.33-.6-1.33-1.33-1.33-1.33.6-1.33,1.33Z"/>
        <path class="cls-2" d="M265.82,213.66c0,.73.6,1.33,1.33,1.33s1.33-.6,1.33-1.33-.6-1.33-1.33-1.33-1.33.6-1.33,1.33Z"/>
        <path class="cls-2" d="M265.82,204.85c0,.73.6,1.33,1.33,1.33s1.33-.6,1.33-1.33-.6-1.33-1.33-1.33-1.33.6-1.33,1.33Z"/>
        <path class="cls-2" d="M265.82,196.04c0,.73.6,1.33,1.33,1.33s1.33-.6,1.33-1.33-.6-1.33-1.33-1.33-1.33.6-1.33,1.33Z"/>
        <path class="cls-2" d="M265.82,187.23c0,.73.6,1.33,1.33,1.33s1.33-.6,1.33-1.33-.6-1.33-1.33-1.33-1.33.6-1.33,1.33Z"/>
        <path class="cls-2" d="M265.82,178.42c0,.73.6,1.33,1.33,1.33s1.33-.6,1.33-1.33-.6-1.33-1.33-1.33-1.33.6-1.33,1.33Z"/>
        <path class="cls-2" d="M265.82,169.61c0,.73.6,1.33,1.33,1.33s1.33-.6,1.33-1.33-.6-1.33-1.33-1.33-1.33.6-1.33,1.33Z"/>
        <path class="cls-2" d="M272.94,269.66c-.12-.05-.25-.07-.39-.07-.47,0-.9.25-1.14.64.51-.19,1.02-.39,1.52-.58Z"/>
        <path class="cls-2" d="M271.22,262.11c0,.73.6,1.33,1.33,1.33s1.33-.6,1.33-1.33-.6-1.33-1.33-1.33-1.33.6-1.33,1.33Z"/>
        <path class="cls-2" d="M271.22,253.3c0,.73.6,1.33,1.33,1.33s1.33-.6,1.33-1.33-.6-1.33-1.33-1.33-1.33.6-1.33,1.33Z"/>
        <circle class="cls-2" cx="272.55" cy="244.49" r="1.33"/>
        <path class="cls-2" d="M271.22,235.68c0,.73.6,1.33,1.33,1.33s1.33-.6,1.33-1.33-.6-1.33-1.33-1.33-1.33.6-1.33,1.33Z"/>
        <path class="cls-2" d="M271.22,226.87c0,.73.6,1.33,1.33,1.33s1.33-.6,1.33-1.33-.6-1.33-1.33-1.33-1.33.6-1.33,1.33Z"/>
        <path class="cls-2" d="M271.22,218.06c0,.73.6,1.33,1.33,1.33s1.33-.6,1.33-1.33-.6-1.33-1.33-1.33-1.33.6-1.33,1.33Z"/>
        <path class="cls-2" d="M271.22,209.25c0,.73.6,1.33,1.33,1.33s1.33-.6,1.33-1.33-.6-1.33-1.33-1.33-1.33.6-1.33,1.33Z"/>
        <path class="cls-2" d="M271.22,200.44c0,.73.6,1.33,1.33,1.33s1.33-.6,1.33-1.33-.6-1.33-1.33-1.33-1.33.6-1.33,1.33Z"/>
        <path class="cls-2" d="M271.22,191.63c0,.73.6,1.33,1.33,1.33s1.33-.6,1.33-1.33-.6-1.33-1.33-1.33-1.33.6-1.33,1.33Z"/>
        <circle class="cls-2" cx="272.55" cy="182.82" r="1.33"/>
        <path class="cls-2" d="M271.22,174.02c0,.73.6,1.33,1.33,1.33s1.33-.6,1.33-1.33-.6-1.33-1.33-1.33-1.33.6-1.33,1.33Z"/>
        <path class="cls-2" d="M272.94,166.46c-.51-.19-1.02-.39-1.52-.58.24.39.66.64,1.14.64.14,0,.27-.02.39-.07Z"/>
        <path class="cls-2" d="M277.45,266.51c0,.36.14.68.36.91.76-.37,1.51-.8,2.25-1.22-.12-.58-.64-1.02-1.29-1.02-.73,0-1.32.59-1.32,1.32Z"/>
        <path class="cls-2" d="M277.44,257.7c0,.73.6,1.33,1.33,1.33s1.33-.6,1.33-1.33-.6-1.33-1.33-1.33-1.33.6-1.33,1.33Z"/>
        <path class="cls-2" d="M277.44,248.89c0,.73.6,1.33,1.33,1.33s1.33-.6,1.33-1.33-.6-1.33-1.33-1.33-1.33.6-1.33,1.33Z"/>
        <path class="cls-2" d="M277.44,240.09c0,.73.6,1.33,1.33,1.33s1.33-.6,1.33-1.33-.6-1.33-1.33-1.33-1.33.6-1.33,1.33Z"/>
        <path class="cls-2" d="M277.44,231.28c0,.73.6,1.33,1.33,1.33s1.33-.6,1.33-1.33-.6-1.33-1.33-1.33-1.33.6-1.33,1.33Z"/>
        <path class="cls-2" d="M277.44,222.47c0,.73.6,1.33,1.33,1.33s1.33-.6,1.33-1.33-.6-1.33-1.33-1.33-1.33.6-1.33,1.33Z"/>
        <path class="cls-2" d="M277.44,213.66c0,.73.6,1.33,1.33,1.33s1.33-.6,1.33-1.33-.6-1.33-1.33-1.33-1.33.6-1.33,1.33Z"/>
        <path class="cls-2" d="M277.44,204.85c0,.73.6,1.33,1.33,1.33s1.33-.6,1.33-1.33-.6-1.33-1.33-1.33-1.33.6-1.33,1.33Z"/>
        <path class="cls-2" d="M277.44,196.04c0,.73.6,1.33,1.33,1.33s1.33-.6,1.33-1.33-.6-1.33-1.33-1.33-1.33.6-1.33,1.33Z"/>
        <path class="cls-2" d="M277.44,187.23c0,.73.6,1.33,1.33,1.33s1.33-.6,1.33-1.33-.6-1.33-1.33-1.33-1.33.6-1.33,1.33Z"/>
        <path class="cls-2" d="M277.44,178.42c0,.73.6,1.33,1.33,1.33s1.33-.6,1.33-1.33-.6-1.33-1.33-1.33-1.33.6-1.33,1.33Z"/>
        <path class="cls-2" d="M278.77,170.93c.64,0,1.17-.44,1.29-1.02-.75-.42-1.49-.85-2.25-1.22-.22.24-.36.56-.36.91,0,.73.59,1.32,1.32,1.32Z"/>
        <path class="cls-2" d="M282.85,262.1c0,.75.59,1.34,1.32,1.34.08,0,.17,0,.25-.03h.02c.3-.22.59-.44.9-.66.1-.19.17-.41.17-.64,0-.73-.59-1.32-1.34-1.32s-1.32.59-1.32,1.32Z"/>
        <path class="cls-2" d="M282.85,253.3c0,.73.6,1.33,1.33,1.33s1.33-.6,1.33-1.33-.6-1.33-1.33-1.33-1.33.6-1.33,1.33Z"/>
        <path class="cls-2" d="M282.85,244.49c0,.73.6,1.33,1.33,1.33s1.33-.6,1.33-1.33-.6-1.33-1.33-1.33-1.33.6-1.33,1.33Z"/>
        <path class="cls-2" d="M282.85,235.68c0,.73.6,1.33,1.33,1.33s1.33-.6,1.33-1.33-.6-1.33-1.33-1.33-1.33.6-1.33,1.33Z"/>
        <path class="cls-2" d="M282.85,226.87c0,.73.6,1.33,1.33,1.33s1.33-.6,1.33-1.33-.6-1.33-1.33-1.33-1.33.6-1.33,1.33Z"/>
        <path class="cls-2" d="M282.85,218.06c0,.73.6,1.33,1.33,1.33s1.33-.6,1.33-1.33-.6-1.33-1.33-1.33-1.33.6-1.33,1.33Z"/>
        <path class="cls-2" d="M282.85,209.25c0,.73.6,1.33,1.33,1.33s1.33-.6,1.33-1.33-.6-1.33-1.33-1.33-1.33.6-1.33,1.33Z"/>
        <path class="cls-2" d="M282.85,200.44c0,.73.6,1.33,1.33,1.33s1.33-.6,1.33-1.33-.6-1.33-1.33-1.33-1.33.6-1.33,1.33Z"/>
        <path class="cls-2" d="M282.85,191.63c0,.73.6,1.33,1.33,1.33s1.33-.6,1.33-1.33-.6-1.33-1.33-1.33-1.33.6-1.33,1.33Z"/>
        <path class="cls-2" d="M282.85,182.82c0,.73.6,1.33,1.33,1.33s1.33-.6,1.33-1.33-.6-1.33-1.33-1.33-1.33.6-1.33,1.33Z"/>
        <path class="cls-2" d="M282.85,174.02c0,.73.59,1.34,1.32,1.34s1.34-.61,1.34-1.34c0-.24-.07-.46-.17-.64-.3-.22-.59-.44-.9-.64-.08-.02-.19-.03-.27-.03-.73,0-1.32.59-1.32,1.32Z"/>
        <path class="cls-2" d="M289.07,257.7c0,.58.36,1.07.88,1.25.58-.54,1.15-1.08,1.71-1.64-.15-.54-.66-.93-1.25-.93-.75,0-1.34.59-1.34,1.32Z"/>
        <path class="cls-2" d="M289.07,248.89c0,.73.6,1.33,1.33,1.33s1.33-.6,1.33-1.33-.6-1.33-1.33-1.33-1.33.6-1.33,1.33Z"/>
        <path class="cls-2" d="M289.07,240.09c0,.73.6,1.33,1.33,1.33s1.33-.6,1.33-1.33-.6-1.33-1.33-1.33-1.33.6-1.33,1.33Z"/>
        <path class="cls-2" d="M289.07,231.28c0,.73.6,1.33,1.33,1.33s1.33-.6,1.33-1.33-.6-1.33-1.33-1.33-1.33.6-1.33,1.33Z"/>
        <path class="cls-2" d="M289.07,222.47c0,.73.6,1.33,1.33,1.33s1.33-.6,1.33-1.33-.6-1.33-1.33-1.33-1.33.6-1.33,1.33Z"/>
        <path class="cls-2" d="M289.07,213.66c0,.73.6,1.33,1.33,1.33s1.33-.6,1.33-1.33-.6-1.33-1.33-1.33-1.33.6-1.33,1.33Z"/>
        <path class="cls-2" d="M289.07,204.85c0,.73.6,1.33,1.33,1.33s1.33-.6,1.33-1.33-.6-1.33-1.33-1.33-1.33.6-1.33,1.33Z"/>
        <path class="cls-2" d="M289.07,196.04c0,.73.6,1.33,1.33,1.33s1.33-.6,1.33-1.33-.6-1.33-1.33-1.33-1.33.6-1.33,1.33Z"/>
        <path class="cls-2" d="M289.07,187.23c0,.73.6,1.33,1.33,1.33s1.33-.6,1.33-1.33-.6-1.33-1.33-1.33-1.33.6-1.33,1.33Z"/>
        <path class="cls-2" d="M289.07,178.42c0,.73.59,1.34,1.34,1.34.59,0,1.1-.41,1.25-.95-.56-.56-1.12-1.08-1.69-1.63-.53.17-.9.66-.9,1.24Z"/>
        <path class="cls-2" d="M294.47,253.29c0,.27.08.53.22.73.54-.64,1.08-1.29,1.59-1.97-.14-.05-.3-.08-.47-.08-.75,0-1.34.59-1.34,1.32Z"/>
        <path class="cls-2" d="M294.47,244.49c0,.73.6,1.33,1.33,1.33s1.33-.6,1.33-1.33-.6-1.33-1.33-1.33-1.33.6-1.33,1.33Z"/>
        <path class="cls-2" d="M294.47,235.68c0,.73.6,1.33,1.33,1.33s1.33-.6,1.33-1.33-.6-1.33-1.33-1.33-1.33.6-1.33,1.33Z"/>
        <path class="cls-2" d="M294.47,226.87c0,.73.6,1.33,1.33,1.33s1.33-.6,1.33-1.33-.6-1.33-1.33-1.33-1.33.6-1.33,1.33Z"/>
        <path class="cls-2" d="M294.47,218.06c0,.73.6,1.33,1.33,1.33s1.33-.6,1.33-1.33-.6-1.33-1.33-1.33-1.33.6-1.33,1.33Z"/>
        <path class="cls-2" d="M294.47,209.25c0,.73.6,1.33,1.33,1.33s1.33-.6,1.33-1.33-.6-1.33-1.33-1.33-1.33.6-1.33,1.33Z"/>
        <path class="cls-2" d="M294.47,200.44c0,.73.6,1.33,1.33,1.33s1.33-.6,1.33-1.33-.6-1.33-1.33-1.33-1.33.6-1.33,1.33Z"/>
        <path class="cls-2" d="M294.47,191.63c0,.73.6,1.33,1.33,1.33s1.33-.6,1.33-1.33-.6-1.33-1.33-1.33-1.33.6-1.33,1.33Z"/>
        <path class="cls-2" d="M295.81,184.16c.17,0,.34-.03.49-.1-.53-.68-1.07-1.32-1.61-1.97-.14.22-.22.46-.22.73,0,.73.59,1.34,1.34,1.34Z"/>
        <path class="cls-2" d="M300.69,240.08c0,.75.59,1.34,1.34,1.34.36,0,.69-.15.93-.39.14-.29.25-.58.37-.86l.02-.02v-.07c0-.73-.59-1.32-1.32-1.32s-1.34.59-1.34,1.32Z"/>
        <path class="cls-2" d="M300.69,231.28c0,.73.6,1.33,1.33,1.33s1.33-.6,1.33-1.33-.6-1.33-1.33-1.33-1.33.6-1.33,1.33Z"/>
        <path class="cls-2" d="M300.69,222.47c0,.73.6,1.33,1.33,1.33s1.33-.6,1.33-1.33-.6-1.33-1.33-1.33-1.33.6-1.33,1.33Z"/>
        <path class="cls-2" d="M300.69,213.66c0,.73.6,1.33,1.33,1.33s1.33-.6,1.33-1.33-.6-1.33-1.33-1.33-1.33.6-1.33,1.33Z"/>
        <path class="cls-2" d="M300.69,204.85c0,.73.6,1.33,1.33,1.33s1.33-.6,1.33-1.33-.6-1.33-1.33-1.33-1.33.6-1.33,1.33Z"/>
        <path class="cls-2" d="M300.69,196.04c0,.73.59,1.34,1.34,1.34s1.32-.61,1.32-1.34v-.07l-.02-.02c-.1-.27-.22-.54-.36-.83l-.02-.02c-.24-.24-.58-.39-.93-.39-.75,0-1.34.59-1.34,1.32Z"/>
        <path class="cls-2" d="M306.09,226.87c0,.59.39,1.08.91,1.25.15-.85.29-1.71.41-2.57-.73.02-1.32.59-1.32,1.32Z"/>
        <path class="cls-2" d="M306.09,218.06c0,.75.61,1.34,1.34,1.34.17,0,.34-.03.47-.08.02-.42.02-.83.02-1.25s0-.83-.02-1.24c-.14-.05-.31-.08-.47-.08-.73,0-1.34.59-1.34,1.32Z"/>
        <path class="cls-2" d="M306.09,209.25c0,.75.59,1.32,1.32,1.34-.1-.88-.24-1.73-.41-2.57-.53.17-.91.66-.91,1.24Z"/>
      </g>
      <g>
        <path class="cls-2" d="M546.79,553.44c.1.53.24,1.03.36,1.54.08-.17.12-.36.12-.54,0-.41-.19-.76-.47-1Z"/>
        <path class="cls-2" d="M547.26,545.63c0-.73-.59-1.32-1.34-1.32-.14,0-.29.02-.41.07.05.86.12,1.71.2,2.56v.02c.07.02.14.02.2.02.75,0,1.34-.59,1.34-1.34Z"/>
        <path class="cls-2" d="M547.26,536.82c0-.73-.59-1.32-1.34-1.32-.07,0-.14,0-.2.02v.02c-.08.85-.15,1.69-.2,2.56.12.05.27.07.41.07.75,0,1.34-.59,1.34-1.34Z"/>
        <path class="cls-2" d="M547.14,527.47c-.12.51-.25,1.03-.36,1.56.29-.24.47-.61.47-1.02,0-.2-.05-.37-.12-.54Z"/>
        <path class="cls-2" d="M551.43,566.35c.34.66.69,1.32,1.07,1.97.1-.19.17-.42.17-.66,0-.69-.54-1.27-1.24-1.3Z"/>
        <path class="cls-2" d="M550.01,558.85c0,.73.6,1.33,1.33,1.33s1.33-.6,1.33-1.33-.6-1.33-1.33-1.33-1.33.6-1.33,1.33Z"/>
        <path class="cls-2" d="M550.01,550.04c0,.73.6,1.33,1.33,1.33s1.33-.6,1.33-1.33-.6-1.33-1.33-1.33-1.33.6-1.33,1.33Z"/>
        <path class="cls-2" d="M550.01,541.23c0,.73.6,1.33,1.33,1.33s1.33-.6,1.33-1.33-.6-1.33-1.33-1.33-1.33.6-1.33,1.33Z"/>
        <path class="cls-2" d="M550.01,532.42c0,.73.6,1.33,1.33,1.33s1.33-.6,1.33-1.33-.6-1.33-1.33-1.33-1.33.6-1.33,1.33Z"/>
        <path class="cls-2" d="M550.01,523.61c0,.73.6,1.33,1.33,1.33s1.33-.6,1.33-1.33-.6-1.33-1.33-1.33-1.33.6-1.33,1.33Z"/>
        <path class="cls-2" d="M552.66,514.8c0-.24-.07-.47-.19-.66-.36.66-.71,1.32-1.05,1.98.69-.03,1.24-.63,1.24-1.32Z"/>
        <path class="cls-2" d="M556.23,572.06c0,.73.6,1.33,1.33,1.33s1.33-.6,1.33-1.33-.6-1.33-1.33-1.33-1.33.6-1.33,1.33Z"/>
        <path class="cls-2" d="M556.23,563.25c0,.73.6,1.33,1.33,1.33s1.33-.6,1.33-1.33-.6-1.33-1.33-1.33-1.33.6-1.33,1.33Z"/>
        <path class="cls-2" d="M556.23,554.44c0,.73.6,1.33,1.33,1.33s1.33-.6,1.33-1.33-.6-1.33-1.33-1.33-1.33.6-1.33,1.33Z"/>
        <path class="cls-2" d="M556.23,545.64c0,.73.6,1.33,1.33,1.33s1.33-.6,1.33-1.33-.6-1.33-1.33-1.33-1.33.6-1.33,1.33Z"/>
        <path class="cls-2" d="M556.23,536.83c0,.73.6,1.33,1.33,1.33s1.33-.6,1.33-1.33-.6-1.33-1.33-1.33-1.33.6-1.33,1.33Z"/>
        <path class="cls-2" d="M556.23,528.02c0,.73.6,1.33,1.33,1.33s1.33-.6,1.33-1.33-.6-1.33-1.33-1.33-1.33.6-1.33,1.33Z"/>
        <path class="cls-2" d="M556.23,519.21c0,.73.6,1.33,1.33,1.33s1.33-.6,1.33-1.33-.6-1.33-1.33-1.33-1.33.6-1.33,1.33Z"/>
        <path class="cls-2" d="M556.23,510.4c0,.73.6,1.33,1.33,1.33s1.33-.6,1.33-1.33-.6-1.33-1.33-1.33-1.33.6-1.33,1.33Z"/>
        <path class="cls-2" d="M561.63,576.47c0,.73.6,1.33,1.33,1.33s1.33-.6,1.33-1.33-.6-1.33-1.33-1.33-1.33.6-1.33,1.33Z"/>
        <path class="cls-2" d="M561.63,567.66c0,.73.6,1.33,1.33,1.33s1.33-.6,1.33-1.33-.6-1.33-1.33-1.33-1.33.6-1.33,1.33Z"/>
        <path class="cls-2" d="M561.63,558.85c0,.73.6,1.33,1.33,1.33s1.33-.6,1.33-1.33-.6-1.33-1.33-1.33-1.33.6-1.33,1.33Z"/>
        <path class="cls-2" d="M561.63,550.04c0,.73.6,1.33,1.33,1.33s1.33-.6,1.33-1.33-.6-1.33-1.33-1.33-1.33.6-1.33,1.33Z"/>
        <path class="cls-2" d="M561.63,541.23c0,.73.6,1.33,1.33,1.33s1.33-.6,1.33-1.33-.6-1.33-1.33-1.33-1.33.6-1.33,1.33Z"/>
        <path class="cls-2" d="M561.63,532.42c0,.73.6,1.33,1.33,1.33s1.33-.6,1.33-1.33-.6-1.33-1.33-1.33-1.33.6-1.33,1.33Z"/>
        <path class="cls-2" d="M561.63,523.61c0,.73.6,1.33,1.33,1.33s1.33-.6,1.33-1.33-.6-1.33-1.33-1.33-1.33.6-1.33,1.33Z"/>
        <path class="cls-2" d="M561.63,514.8c0,.73.6,1.33,1.33,1.33s1.33-.6,1.33-1.33-.6-1.33-1.33-1.33-1.33.6-1.33,1.33Z"/>
        <path class="cls-2" d="M561.63,505.99c0,.73.6,1.33,1.33,1.33s1.33-.6,1.33-1.33-.6-1.33-1.33-1.33-1.33.6-1.33,1.33Z"/>
        <path class="cls-2" d="M567.85,580.87c0,.73.6,1.33,1.33,1.33s1.33-.6,1.33-1.33-.6-1.33-1.33-1.33-1.33.6-1.33,1.33Z"/>
        <path class="cls-2" d="M567.85,572.06c0,.73.6,1.33,1.33,1.33s1.33-.6,1.33-1.33-.6-1.33-1.33-1.33-1.33.6-1.33,1.33Z"/>
        <path class="cls-2" d="M567.85,563.25c0,.73.6,1.33,1.33,1.33s1.33-.6,1.33-1.33-.6-1.33-1.33-1.33-1.33.6-1.33,1.33Z"/>
        <path class="cls-2" d="M567.85,554.44c0,.73.6,1.33,1.33,1.33s1.33-.6,1.33-1.33-.6-1.33-1.33-1.33-1.33.6-1.33,1.33Z"/>
        <path class="cls-2" d="M567.85,545.64c0,.73.6,1.33,1.33,1.33s1.33-.6,1.33-1.33-.6-1.33-1.33-1.33-1.33.6-1.33,1.33Z"/>
        <path class="cls-2" d="M567.85,536.83c0,.73.6,1.33,1.33,1.33s1.33-.6,1.33-1.33-.6-1.33-1.33-1.33-1.33.6-1.33,1.33Z"/>
        <path class="cls-2" d="M567.85,528.02c0,.73.6,1.33,1.33,1.33s1.33-.6,1.33-1.33-.6-1.33-1.33-1.33-1.33.6-1.33,1.33Z"/>
        <path class="cls-2" d="M567.85,519.21c0,.73.6,1.33,1.33,1.33s1.33-.6,1.33-1.33-.6-1.33-1.33-1.33-1.33.6-1.33,1.33Z"/>
        <path class="cls-2" d="M567.85,510.4c0,.73.6,1.33,1.33,1.33s1.33-.6,1.33-1.33-.6-1.33-1.33-1.33-1.33.6-1.33,1.33Z"/>
        <path class="cls-2" d="M567.85,501.59c0,.73.6,1.33,1.33,1.33s1.33-.6,1.33-1.33-.6-1.33-1.33-1.33-1.33.6-1.33,1.33Z"/>
        <path class="cls-2" d="M573.26,585.28c0,.73.6,1.33,1.33,1.33s1.33-.6,1.33-1.33-.6-1.33-1.33-1.33-1.33.6-1.33,1.33Z"/>
        <path class="cls-2" d="M573.26,576.47c0,.73.6,1.33,1.33,1.33s1.33-.6,1.33-1.33-.6-1.33-1.33-1.33-1.33.6-1.33,1.33Z"/>
        <path class="cls-2" d="M573.26,567.66c0,.73.6,1.33,1.33,1.33s1.33-.6,1.33-1.33-.6-1.33-1.33-1.33-1.33.6-1.33,1.33Z"/>
        <path class="cls-2" d="M573.26,558.85c0,.73.6,1.33,1.33,1.33s1.33-.6,1.33-1.33-.6-1.33-1.33-1.33-1.33.6-1.33,1.33Z"/>
        <path class="cls-2" d="M573.26,550.04c0,.73.6,1.33,1.33,1.33s1.33-.6,1.33-1.33-.6-1.33-1.33-1.33-1.33.6-1.33,1.33Z"/>
        <path class="cls-2" d="M573.26,541.23c0,.73.6,1.33,1.33,1.33s1.33-.6,1.33-1.33-.6-1.33-1.33-1.33-1.33.6-1.33,1.33Z"/>
        <path class="cls-2" d="M573.26,532.42c0,.73.6,1.33,1.33,1.33s1.33-.6,1.33-1.33-.6-1.33-1.33-1.33-1.33.6-1.33,1.33Z"/>
        <path class="cls-2" d="M573.26,523.61c0,.73.6,1.33,1.33,1.33s1.33-.6,1.33-1.33-.6-1.33-1.33-1.33-1.33.6-1.33,1.33Z"/>
        <path class="cls-2" d="M573.26,514.8c0,.73.6,1.33,1.33,1.33s1.33-.6,1.33-1.33-.6-1.33-1.33-1.33-1.33.6-1.33,1.33Z"/>
        <path class="cls-2" d="M573.26,505.99c0,.73.6,1.33,1.33,1.33s1.33-.6,1.33-1.33-.6-1.33-1.33-1.33-1.33.6-1.33,1.33Z"/>
        <path class="cls-2" d="M573.26,497.18c0,.73.6,1.33,1.33,1.33s1.33-.6,1.33-1.33-.6-1.33-1.33-1.33-1.33.6-1.33,1.33Z"/>
        <path class="cls-2" d="M579.48,589.68c0,.73.6,1.33,1.33,1.33s1.33-.6,1.33-1.33-.6-1.33-1.33-1.33-1.33.6-1.33,1.33Z"/>
        <path class="cls-2" d="M579.48,580.87c0,.73.6,1.33,1.33,1.33s1.33-.6,1.33-1.33-.6-1.33-1.33-1.33-1.33.6-1.33,1.33Z"/>
        <path class="cls-2" d="M579.48,572.06c0,.73.6,1.33,1.33,1.33s1.33-.6,1.33-1.33-.6-1.33-1.33-1.33-1.33.6-1.33,1.33Z"/>
        <path class="cls-2" d="M579.48,563.25c0,.73.6,1.33,1.33,1.33s1.33-.6,1.33-1.33-.6-1.33-1.33-1.33-1.33.6-1.33,1.33Z"/>
        <path class="cls-2" d="M579.48,554.44c0,.73.6,1.33,1.33,1.33s1.33-.6,1.33-1.33-.6-1.33-1.33-1.33-1.33.6-1.33,1.33Z"/>
        <path class="cls-2" d="M579.48,545.64c0,.73.6,1.33,1.33,1.33s1.33-.6,1.33-1.33-.6-1.33-1.33-1.33-1.33.6-1.33,1.33Z"/>
        <path class="cls-2" d="M579.48,536.83c0,.73.6,1.33,1.33,1.33s1.33-.6,1.33-1.33-.6-1.33-1.33-1.33-1.33.6-1.33,1.33Z"/>
        <path class="cls-2" d="M579.48,528.02c0,.73.6,1.33,1.33,1.33s1.33-.6,1.33-1.33-.6-1.33-1.33-1.33-1.33.6-1.33,1.33Z"/>
        <path class="cls-2" d="M579.48,519.21c0,.73.6,1.33,1.33,1.33s1.33-.6,1.33-1.33-.6-1.33-1.33-1.33-1.33.6-1.33,1.33Z"/>
        <path class="cls-2" d="M579.48,510.4c0,.73.6,1.33,1.33,1.33s1.33-.6,1.33-1.33-.6-1.33-1.33-1.33-1.33.6-1.33,1.33Z"/>
        <path class="cls-2" d="M579.48,501.59c0,.73.6,1.33,1.33,1.33s1.33-.6,1.33-1.33-.6-1.33-1.33-1.33-1.33.6-1.33,1.33Z"/>
        <path class="cls-2" d="M579.48,492.78c0,.73.6,1.33,1.33,1.33s1.33-.6,1.33-1.33-.6-1.33-1.33-1.33-1.33.6-1.33,1.33Z"/>
        <path class="cls-2" d="M586.21,592.76c-.73,0-1.32.59-1.32,1.32,0,.12.02.22.05.32.73.22,1.47.42,2.24.61.24-.24.37-.56.37-.93,0-.73-.59-1.32-1.34-1.32Z"/>
        <path class="cls-2" d="M584.88,585.28c0,.73.6,1.33,1.33,1.33s1.33-.6,1.33-1.33-.6-1.33-1.33-1.33-1.33.6-1.33,1.33Z"/>
        <path class="cls-2" d="M584.88,576.47c0,.73.6,1.33,1.33,1.33s1.33-.6,1.33-1.33-.6-1.33-1.33-1.33-1.33.6-1.33,1.33Z"/>
        <circle class="cls-2" cx="586.21" cy="567.66" r="1.33"/>
        <path class="cls-2" d="M584.88,558.85c0,.73.6,1.33,1.33,1.33s1.33-.6,1.33-1.33-.6-1.33-1.33-1.33-1.33.6-1.33,1.33Z"/>
        <path class="cls-2" d="M584.88,550.04c0,.73.6,1.33,1.33,1.33s1.33-.6,1.33-1.33-.6-1.33-1.33-1.33-1.33.6-1.33,1.33Z"/>
        <path class="cls-2" d="M584.88,541.23c0,.73.6,1.33,1.33,1.33s1.33-.6,1.33-1.33-.6-1.33-1.33-1.33-1.33.6-1.33,1.33Z"/>
        <path class="cls-2" d="M584.88,532.42c0,.73.6,1.33,1.33,1.33s1.33-.6,1.33-1.33-.6-1.33-1.33-1.33-1.33.6-1.33,1.33Z"/>
        <circle class="cls-2" cx="586.21" cy="523.61" r="1.33"/>
        <path class="cls-2" d="M584.88,514.8c0,.73.6,1.33,1.33,1.33s1.33-.6,1.33-1.33-.6-1.33-1.33-1.33-1.33.6-1.33,1.33Z"/>
        <path class="cls-2" d="M584.88,505.99c0,.73.6,1.33,1.33,1.33s1.33-.6,1.33-1.33-.6-1.33-1.33-1.33-1.33.6-1.33,1.33Z"/>
        <path class="cls-2" d="M584.88,497.18c0,.73.6,1.33,1.33,1.33s1.33-.6,1.33-1.33-.6-1.33-1.33-1.33-1.33.6-1.33,1.33Z"/>
        <path class="cls-2" d="M587.54,488.38c0-.36-.14-.68-.37-.93-.76.19-1.51.39-2.24.61-.03.1-.05.2-.05.32,0,.73.59,1.32,1.32,1.32s1.34-.59,1.34-1.32Z"/>
        <path class="cls-2" d="M591.1,589.68c0,.73.6,1.33,1.33,1.33s1.33-.6,1.33-1.33-.6-1.33-1.33-1.33-1.33.6-1.33,1.33Z"/>
        <path class="cls-2" d="M591.1,580.87c0,.73.6,1.33,1.33,1.33s1.33-.6,1.33-1.33-.6-1.33-1.33-1.33-1.33.6-1.33,1.33Z"/>
        <path class="cls-2" d="M591.1,572.06c0,.73.6,1.33,1.33,1.33s1.33-.6,1.33-1.33-.6-1.33-1.33-1.33-1.33.6-1.33,1.33Z"/>
        <path class="cls-2" d="M591.1,563.25c0,.73.6,1.33,1.33,1.33s1.33-.6,1.33-1.33-.6-1.33-1.33-1.33-1.33.6-1.33,1.33Z"/>
        <path class="cls-2" d="M591.1,554.44c0,.73.6,1.33,1.33,1.33s1.33-.6,1.33-1.33-.6-1.33-1.33-1.33-1.33.6-1.33,1.33Z"/>
        <path class="cls-2" d="M591.1,545.64c0,.73.6,1.33,1.33,1.33s1.33-.6,1.33-1.33-.6-1.33-1.33-1.33-1.33.6-1.33,1.33Z"/>
        <path class="cls-2" d="M591.1,536.83c0,.73.6,1.33,1.33,1.33s1.33-.6,1.33-1.33-.6-1.33-1.33-1.33-1.33.6-1.33,1.33Z"/>
        <path class="cls-2" d="M591.1,528.02c0,.73.6,1.33,1.33,1.33s1.33-.6,1.33-1.33-.6-1.33-1.33-1.33-1.33.6-1.33,1.33Z"/>
        <path class="cls-2" d="M591.1,519.21c0,.73.6,1.33,1.33,1.33s1.33-.6,1.33-1.33-.6-1.33-1.33-1.33-1.33.6-1.33,1.33Z"/>
        <path class="cls-2" d="M591.1,510.4c0,.73.6,1.33,1.33,1.33s1.33-.6,1.33-1.33-.6-1.33-1.33-1.33-1.33.6-1.33,1.33Z"/>
        <path class="cls-2" d="M591.1,501.59c0,.73.6,1.33,1.33,1.33s1.33-.6,1.33-1.33-.6-1.33-1.33-1.33-1.33.6-1.33,1.33Z"/>
        <path class="cls-2" d="M591.1,492.78c0,.73.6,1.33,1.33,1.33s1.33-.6,1.33-1.33-.6-1.33-1.33-1.33-1.33.6-1.33,1.33Z"/>
        <path class="cls-2" d="M596.51,594.09c0,.73.6,1.33,1.33,1.33s1.33-.6,1.33-1.33-.6-1.33-1.33-1.33-1.33.6-1.33,1.33Z"/>
        <path class="cls-2" d="M596.51,585.28c0,.73.6,1.33,1.33,1.33s1.33-.6,1.33-1.33-.6-1.33-1.33-1.33-1.33.6-1.33,1.33Z"/>
        <path class="cls-2" d="M596.51,576.47c0,.73.6,1.33,1.33,1.33s1.33-.6,1.33-1.33-.6-1.33-1.33-1.33-1.33.6-1.33,1.33Z"/>
        <path class="cls-2" d="M596.51,567.66c0,.73.6,1.33,1.33,1.33s1.33-.6,1.33-1.33-.6-1.33-1.33-1.33-1.33.6-1.33,1.33Z"/>
        <path class="cls-2" d="M596.51,558.85c0,.73.6,1.33,1.33,1.33s1.33-.6,1.33-1.33-.6-1.33-1.33-1.33-1.33.6-1.33,1.33Z"/>
        <path class="cls-2" d="M596.51,550.04c0,.73.6,1.33,1.33,1.33s1.33-.6,1.33-1.33-.6-1.33-1.33-1.33-1.33.6-1.33,1.33Z"/>
        <path class="cls-2" d="M596.51,541.23c0,.73.6,1.33,1.33,1.33s1.33-.6,1.33-1.33-.6-1.33-1.33-1.33-1.33.6-1.33,1.33Z"/>
        <path class="cls-2" d="M596.51,532.42c0,.73.6,1.33,1.33,1.33s1.33-.6,1.33-1.33-.6-1.33-1.33-1.33-1.33.6-1.33,1.33Z"/>
        <path class="cls-2" d="M596.51,523.61c0,.73.6,1.33,1.33,1.33s1.33-.6,1.33-1.33-.6-1.33-1.33-1.33-1.33.6-1.33,1.33Z"/>
        <path class="cls-2" d="M596.51,514.8c0,.73.6,1.33,1.33,1.33s1.33-.6,1.33-1.33-.6-1.33-1.33-1.33-1.33.6-1.33,1.33Z"/>
        <path class="cls-2" d="M596.51,505.99c0,.73.6,1.33,1.33,1.33s1.33-.6,1.33-1.33-.6-1.33-1.33-1.33-1.33.6-1.33,1.33Z"/>
        <path class="cls-2" d="M596.51,497.18c0,.73.6,1.33,1.33,1.33s1.33-.6,1.33-1.33-.6-1.33-1.33-1.33-1.33.6-1.33,1.33Z"/>
        <path class="cls-2" d="M599.17,488.38c0-.73-.6-1.33-1.33-1.33s-1.33.6-1.33,1.33.6,1.33,1.33,1.33,1.33-.6,1.33-1.33Z"/>
        <path class="cls-2" d="M602.73,589.68c0,.73.6,1.33,1.33,1.33s1.33-.6,1.33-1.33-.6-1.33-1.33-1.33-1.33.6-1.33,1.33Z"/>
        <path class="cls-2" d="M602.73,580.87c0,.73.6,1.33,1.33,1.33s1.33-.6,1.33-1.33-.6-1.33-1.33-1.33-1.33.6-1.33,1.33Z"/>
        <path class="cls-2" d="M602.73,572.06c0,.73.6,1.33,1.33,1.33s1.33-.6,1.33-1.33-.6-1.33-1.33-1.33-1.33.6-1.33,1.33Z"/>
        <path class="cls-2" d="M602.73,563.25c0,.73.6,1.33,1.33,1.33s1.33-.6,1.33-1.33-.6-1.33-1.33-1.33-1.33.6-1.33,1.33Z"/>
        <path class="cls-2" d="M602.73,554.44c0,.73.6,1.33,1.33,1.33s1.33-.6,1.33-1.33-.6-1.33-1.33-1.33-1.33.6-1.33,1.33Z"/>
        <path class="cls-2" d="M602.73,545.64c0,.73.6,1.33,1.33,1.33s1.33-.6,1.33-1.33-.6-1.33-1.33-1.33-1.33.6-1.33,1.33Z"/>
        <path class="cls-2" d="M602.73,536.83c0,.73.6,1.33,1.33,1.33s1.33-.6,1.33-1.33-.6-1.33-1.33-1.33-1.33.6-1.33,1.33Z"/>
        <path class="cls-2" d="M602.73,528.02c0,.73.6,1.33,1.33,1.33s1.33-.6,1.33-1.33-.6-1.33-1.33-1.33-1.33.6-1.33,1.33Z"/>
        <path class="cls-2" d="M602.73,519.21c0,.73.6,1.33,1.33,1.33s1.33-.6,1.33-1.33-.6-1.33-1.33-1.33-1.33.6-1.33,1.33Z"/>
        <path class="cls-2" d="M602.73,510.4c0,.73.6,1.33,1.33,1.33s1.33-.6,1.33-1.33-.6-1.33-1.33-1.33-1.33.6-1.33,1.33Z"/>
        <path class="cls-2" d="M602.73,501.59c0,.73.6,1.33,1.33,1.33s1.33-.6,1.33-1.33-.6-1.33-1.33-1.33-1.33.6-1.33,1.33Z"/>
        <path class="cls-2" d="M602.73,492.78c0,.73.6,1.33,1.33,1.33s1.33-.6,1.33-1.33-.6-1.33-1.33-1.33-1.33.6-1.33,1.33Z"/>
        <path class="cls-2" d="M608.13,594.09c0,.73.6,1.33,1.33,1.33s1.33-.6,1.33-1.33-.6-1.33-1.33-1.33-1.33.6-1.33,1.33Z"/>
        <path class="cls-2" d="M608.13,585.28c0,.73.6,1.33,1.33,1.33s1.33-.6,1.33-1.33-.6-1.33-1.33-1.33-1.33.6-1.33,1.33Z"/>
        <path class="cls-2" d="M608.13,576.47c0,.73.6,1.33,1.33,1.33s1.33-.6,1.33-1.33-.6-1.33-1.33-1.33-1.33.6-1.33,1.33Z"/>
        <path class="cls-2" d="M608.13,567.66c0,.73.6,1.33,1.33,1.33s1.33-.6,1.33-1.33-.6-1.33-1.33-1.33-1.33.6-1.33,1.33Z"/>
        <path class="cls-2" d="M608.13,558.85c0,.73.6,1.33,1.33,1.33s1.33-.6,1.33-1.33-.6-1.33-1.33-1.33-1.33.6-1.33,1.33Z"/>
        <path class="cls-2" d="M608.13,550.04c0,.73.6,1.33,1.33,1.33s1.33-.6,1.33-1.33-.6-1.33-1.33-1.33-1.33.6-1.33,1.33Z"/>
        <path class="cls-2" d="M608.13,541.23c0,.73.6,1.33,1.33,1.33s1.33-.6,1.33-1.33-.6-1.33-1.33-1.33-1.33.6-1.33,1.33Z"/>
        <path class="cls-2" d="M608.13,532.42c0,.73.6,1.33,1.33,1.33s1.33-.6,1.33-1.33-.6-1.33-1.33-1.33-1.33.6-1.33,1.33Z"/>
        <path class="cls-2" d="M608.13,523.61c0,.73.6,1.33,1.33,1.33s1.33-.6,1.33-1.33-.6-1.33-1.33-1.33-1.33.6-1.33,1.33Z"/>
        <path class="cls-2" d="M608.13,514.8c0,.73.6,1.33,1.33,1.33s1.33-.6,1.33-1.33-.6-1.33-1.33-1.33-1.33.6-1.33,1.33Z"/>
        <path class="cls-2" d="M608.13,505.99c0,.73.6,1.33,1.33,1.33s1.33-.6,1.33-1.33-.6-1.33-1.33-1.33-1.33.6-1.33,1.33Z"/>
        <path class="cls-2" d="M608.13,497.18c0,.73.6,1.33,1.33,1.33s1.33-.6,1.33-1.33-.6-1.33-1.33-1.33-1.33.6-1.33,1.33Z"/>
        <path class="cls-2" d="M608.13,488.38c0,.73.6,1.33,1.33,1.33s1.33-.6,1.33-1.33-.6-1.33-1.33-1.33-1.33.6-1.33,1.33Z"/>
        <path class="cls-2" d="M614.35,589.68c0,.73.6,1.33,1.33,1.33s1.33-.6,1.33-1.33-.6-1.33-1.33-1.33-1.33.6-1.33,1.33Z"/>
        <path class="cls-2" d="M614.35,580.87c0,.73.6,1.33,1.33,1.33s1.33-.6,1.33-1.33-.6-1.33-1.33-1.33-1.33.6-1.33,1.33Z"/>
        <path class="cls-2" d="M614.35,572.06c0,.73.6,1.33,1.33,1.33s1.33-.6,1.33-1.33-.6-1.33-1.33-1.33-1.33.6-1.33,1.33Z"/>
        <path class="cls-2" d="M614.35,563.25c0,.73.6,1.33,1.33,1.33s1.33-.6,1.33-1.33-.6-1.33-1.33-1.33-1.33.6-1.33,1.33Z"/>
        <path class="cls-2" d="M614.35,554.44c0,.73.6,1.33,1.33,1.33s1.33-.6,1.33-1.33-.6-1.33-1.33-1.33-1.33.6-1.33,1.33Z"/>
        <path class="cls-2" d="M614.35,545.64c0,.73.6,1.33,1.33,1.33s1.33-.6,1.33-1.33-.6-1.33-1.33-1.33-1.33.6-1.33,1.33Z"/>
        <path class="cls-2" d="M614.35,536.83c0,.73.6,1.33,1.33,1.33s1.33-.6,1.33-1.33-.6-1.33-1.33-1.33-1.33.6-1.33,1.33Z"/>
        <path class="cls-2" d="M614.35,528.02c0,.73.6,1.33,1.33,1.33s1.33-.6,1.33-1.33-.6-1.33-1.33-1.33-1.33.6-1.33,1.33Z"/>
        <path class="cls-2" d="M614.35,519.21c0,.73.6,1.33,1.33,1.33s1.33-.6,1.33-1.33-.6-1.33-1.33-1.33-1.33.6-1.33,1.33Z"/>
        <path class="cls-2" d="M614.35,510.4c0,.73.6,1.33,1.33,1.33s1.33-.6,1.33-1.33-.6-1.33-1.33-1.33-1.33.6-1.33,1.33Z"/>
        <path class="cls-2" d="M614.35,501.59c0,.73.6,1.33,1.33,1.33s1.33-.6,1.33-1.33-.6-1.33-1.33-1.33-1.33.6-1.33,1.33Z"/>
        <path class="cls-2" d="M614.35,492.78c0,.73.6,1.33,1.33,1.33s1.33-.6,1.33-1.33-.6-1.33-1.33-1.33-1.33.6-1.33,1.33Z"/>
        <path class="cls-2" d="M621.47,592.83c-.12-.05-.25-.07-.39-.07-.47,0-.9.25-1.13.64.51-.19,1.02-.39,1.52-.58Z"/>
        <path class="cls-2" d="M619.76,585.28c0,.73.6,1.33,1.33,1.33s1.33-.6,1.33-1.33-.6-1.33-1.33-1.33-1.33.6-1.33,1.33Z"/>
        <path class="cls-2" d="M619.76,576.47c0,.73.6,1.33,1.33,1.33s1.33-.6,1.33-1.33-.6-1.33-1.33-1.33-1.33.6-1.33,1.33Z"/>
        <circle class="cls-2" cx="621.09" cy="567.66" r="1.33"/>
        <path class="cls-2" d="M619.76,558.85c0,.73.6,1.33,1.33,1.33s1.33-.6,1.33-1.33-.6-1.33-1.33-1.33-1.33.6-1.33,1.33Z"/>
        <path class="cls-2" d="M619.76,550.04c0,.73.6,1.33,1.33,1.33s1.33-.6,1.33-1.33-.6-1.33-1.33-1.33-1.33.6-1.33,1.33Z"/>
        <path class="cls-2" d="M619.76,541.23c0,.73.6,1.33,1.33,1.33s1.33-.6,1.33-1.33-.6-1.33-1.33-1.33-1.33.6-1.33,1.33Z"/>
        <path class="cls-2" d="M619.76,532.42c0,.73.6,1.33,1.33,1.33s1.33-.6,1.33-1.33-.6-1.33-1.33-1.33-1.33.6-1.33,1.33Z"/>
        <circle class="cls-2" cx="621.09" cy="523.61" r="1.33"/>
        <path class="cls-2" d="M619.76,514.8c0,.73.6,1.33,1.33,1.33s1.33-.6,1.33-1.33-.6-1.33-1.33-1.33-1.33.6-1.33,1.33Z"/>
        <path class="cls-2" d="M619.76,505.99c0,.73.6,1.33,1.33,1.33s1.33-.6,1.33-1.33-.6-1.33-1.33-1.33-1.33.6-1.33,1.33Z"/>
        <path class="cls-2" d="M619.76,497.18c0,.73.6,1.33,1.33,1.33s1.33-.6,1.33-1.33-.6-1.33-1.33-1.33-1.33.6-1.33,1.33Z"/>
        <path class="cls-2" d="M621.47,489.63c-.51-.19-1.02-.39-1.52-.58.24.39.66.64,1.13.64.14,0,.27-.02.39-.07Z"/>
        <path class="cls-2" d="M625.98,589.67c0,.36.14.68.36.91.76-.37,1.51-.8,2.25-1.22-.12-.58-.64-1.02-1.29-1.02-.73,0-1.32.59-1.32,1.32Z"/>
        <path class="cls-2" d="M625.98,580.87c0,.73.6,1.33,1.33,1.33s1.33-.6,1.33-1.33-.6-1.33-1.33-1.33-1.33.6-1.33,1.33Z"/>
        <path class="cls-2" d="M625.98,572.06c0,.73.6,1.33,1.33,1.33s1.33-.6,1.33-1.33-.6-1.33-1.33-1.33-1.33.6-1.33,1.33Z"/>
        <path class="cls-2" d="M625.98,563.25c0,.73.6,1.33,1.33,1.33s1.33-.6,1.33-1.33-.6-1.33-1.33-1.33-1.33.6-1.33,1.33Z"/>
        <path class="cls-2" d="M625.98,554.44c0,.73.6,1.33,1.33,1.33s1.33-.6,1.33-1.33-.6-1.33-1.33-1.33-1.33.6-1.33,1.33Z"/>
        <path class="cls-2" d="M625.98,545.64c0,.73.6,1.33,1.33,1.33s1.33-.6,1.33-1.33-.6-1.33-1.33-1.33-1.33.6-1.33,1.33Z"/>
        <path class="cls-2" d="M625.98,536.83c0,.73.6,1.33,1.33,1.33s1.33-.6,1.33-1.33-.6-1.33-1.33-1.33-1.33.6-1.33,1.33Z"/>
        <path class="cls-2" d="M625.98,528.02c0,.73.6,1.33,1.33,1.33s1.33-.6,1.33-1.33-.6-1.33-1.33-1.33-1.33.6-1.33,1.33Z"/>
        <path class="cls-2" d="M625.98,519.21c0,.73.6,1.33,1.33,1.33s1.33-.6,1.33-1.33-.6-1.33-1.33-1.33-1.33.6-1.33,1.33Z"/>
        <path class="cls-2" d="M625.98,510.4c0,.73.6,1.33,1.33,1.33s1.33-.6,1.33-1.33-.6-1.33-1.33-1.33-1.33.6-1.33,1.33Z"/>
        <path class="cls-2" d="M625.98,501.59c0,.73.6,1.33,1.33,1.33s1.33-.6,1.33-1.33-.6-1.33-1.33-1.33-1.33.6-1.33,1.33Z"/>
        <path class="cls-2" d="M627.3,494.1c.64,0,1.17-.44,1.29-1.02-.75-.42-1.49-.85-2.25-1.22-.22.24-.36.56-.36.91,0,.73.59,1.32,1.32,1.32Z"/>
        <path class="cls-2" d="M631.38,585.27c0,.75.59,1.34,1.32,1.34.08,0,.17,0,.25-.03h.02c.3-.22.59-.44.9-.66.1-.19.17-.41.17-.64,0-.73-.59-1.32-1.34-1.32s-1.32.59-1.32,1.32Z"/>
        <path class="cls-2" d="M631.38,576.47c0,.73.6,1.33,1.33,1.33s1.33-.6,1.33-1.33-.6-1.33-1.33-1.33-1.33.6-1.33,1.33Z"/>
        <path class="cls-2" d="M631.38,567.66c0,.73.6,1.33,1.33,1.33s1.33-.6,1.33-1.33-.6-1.33-1.33-1.33-1.33.6-1.33,1.33Z"/>
        <path class="cls-2" d="M631.38,558.85c0,.73.6,1.33,1.33,1.33s1.33-.6,1.33-1.33-.6-1.33-1.33-1.33-1.33.6-1.33,1.33Z"/>
        <path class="cls-2" d="M631.38,550.04c0,.73.6,1.33,1.33,1.33s1.33-.6,1.33-1.33-.6-1.33-1.33-1.33-1.33.6-1.33,1.33Z"/>
        <path class="cls-2" d="M631.38,541.23c0,.73.6,1.33,1.33,1.33s1.33-.6,1.33-1.33-.6-1.33-1.33-1.33-1.33.6-1.33,1.33Z"/>
        <path class="cls-2" d="M631.38,532.42c0,.73.6,1.33,1.33,1.33s1.33-.6,1.33-1.33-.6-1.33-1.33-1.33-1.33.6-1.33,1.33Z"/>
        <path class="cls-2" d="M631.38,523.61c0,.73.6,1.33,1.33,1.33s1.33-.6,1.33-1.33-.6-1.33-1.33-1.33-1.33.6-1.33,1.33Z"/>
        <path class="cls-2" d="M631.38,514.8c0,.73.6,1.33,1.33,1.33s1.33-.6,1.33-1.33-.6-1.33-1.33-1.33-1.33.6-1.33,1.33Z"/>
        <path class="cls-2" d="M631.38,505.99c0,.73.6,1.33,1.33,1.33s1.33-.6,1.33-1.33-.6-1.33-1.33-1.33-1.33.6-1.33,1.33Z"/>
        <path class="cls-2" d="M631.38,497.18c0,.73.59,1.34,1.32,1.34s1.34-.61,1.34-1.34c0-.24-.07-.46-.17-.64-.3-.22-.59-.44-.9-.64-.08-.02-.19-.03-.27-.03-.73,0-1.32.59-1.32,1.32Z"/>
        <path class="cls-2" d="M637.6,580.87c0,.58.36,1.07.88,1.25.58-.54,1.15-1.08,1.71-1.64-.15-.54-.66-.93-1.25-.93-.75,0-1.34.59-1.34,1.32Z"/>
        <path class="cls-2" d="M637.6,572.06c0,.73.6,1.33,1.33,1.33s1.33-.6,1.33-1.33-.6-1.33-1.33-1.33-1.33.6-1.33,1.33Z"/>
        <path class="cls-2" d="M637.6,563.25c0,.73.6,1.33,1.33,1.33s1.33-.6,1.33-1.33-.6-1.33-1.33-1.33-1.33.6-1.33,1.33Z"/>
        <path class="cls-2" d="M637.6,554.44c0,.73.6,1.33,1.33,1.33s1.33-.6,1.33-1.33-.6-1.33-1.33-1.33-1.33.6-1.33,1.33Z"/>
        <path class="cls-2" d="M637.6,545.64c0,.73.6,1.33,1.33,1.33s1.33-.6,1.33-1.33-.6-1.33-1.33-1.33-1.33.6-1.33,1.33Z"/>
        <path class="cls-2" d="M637.6,536.83c0,.73.6,1.33,1.33,1.33s1.33-.6,1.33-1.33-.6-1.33-1.33-1.33-1.33.6-1.33,1.33Z"/>
        <path class="cls-2" d="M637.6,528.02c0,.73.6,1.33,1.33,1.33s1.33-.6,1.33-1.33-.6-1.33-1.33-1.33-1.33.6-1.33,1.33Z"/>
        <path class="cls-2" d="M637.6,519.21c0,.73.6,1.33,1.33,1.33s1.33-.6,1.33-1.33-.6-1.33-1.33-1.33-1.33.6-1.33,1.33Z"/>
        <path class="cls-2" d="M637.6,510.4c0,.73.6,1.33,1.33,1.33s1.33-.6,1.33-1.33-.6-1.33-1.33-1.33-1.33.6-1.33,1.33Z"/>
        <path class="cls-2" d="M637.6,501.59c0,.73.59,1.34,1.34,1.34.59,0,1.1-.41,1.25-.95-.56-.56-1.12-1.08-1.69-1.63-.53.17-.9.66-.9,1.24Z"/>
        <path class="cls-2" d="M643,576.46c0,.27.08.53.22.73.54-.64,1.08-1.29,1.59-1.96-.14-.05-.3-.08-.47-.08-.75,0-1.34.59-1.34,1.32Z"/>
        <path class="cls-2" d="M643.01,567.66c0,.73.6,1.33,1.33,1.33s1.33-.6,1.33-1.33-.6-1.33-1.33-1.33-1.33.6-1.33,1.33Z"/>
        <path class="cls-2" d="M643.01,558.85c0,.73.6,1.33,1.33,1.33s1.33-.6,1.33-1.33-.6-1.33-1.33-1.33-1.33.6-1.33,1.33Z"/>
        <path class="cls-2" d="M643.01,550.04c0,.73.6,1.33,1.33,1.33s1.33-.6,1.33-1.33-.6-1.33-1.33-1.33-1.33.6-1.33,1.33Z"/>
        <path class="cls-2" d="M643.01,541.23c0,.73.6,1.33,1.33,1.33s1.33-.6,1.33-1.33-.6-1.33-1.33-1.33-1.33.6-1.33,1.33Z"/>
        <path class="cls-2" d="M643.01,532.42c0,.73.6,1.33,1.33,1.33s1.33-.6,1.33-1.33-.6-1.33-1.33-1.33-1.33.6-1.33,1.33Z"/>
        <path class="cls-2" d="M643.01,523.61c0,.73.6,1.33,1.33,1.33s1.33-.6,1.33-1.33-.6-1.33-1.33-1.33-1.33.6-1.33,1.33Z"/>
        <path class="cls-2" d="M643.01,514.8c0,.73.6,1.33,1.33,1.33s1.33-.6,1.33-1.33-.6-1.33-1.33-1.33-1.33.6-1.33,1.33Z"/>
        <path class="cls-2" d="M644.34,507.33c.17,0,.34-.03.49-.1-.53-.68-1.07-1.32-1.61-1.96-.14.22-.22.46-.22.73,0,.73.59,1.34,1.34,1.34Z"/>
        <path class="cls-2" d="M649.22,563.25c0,.75.59,1.34,1.34,1.34.36,0,.69-.15.93-.39.14-.29.25-.58.37-.86l.02-.02v-.07c0-.73-.59-1.32-1.32-1.32s-1.34.59-1.34,1.32Z"/>
        <path class="cls-2" d="M649.23,554.44c0,.73.6,1.33,1.33,1.33s1.33-.6,1.33-1.33-.6-1.33-1.33-1.33-1.33.6-1.33,1.33Z"/>
        <path class="cls-2" d="M649.23,545.64c0,.73.6,1.33,1.33,1.33s1.33-.6,1.33-1.33-.6-1.33-1.33-1.33-1.33.6-1.33,1.33Z"/>
        <path class="cls-2" d="M649.23,536.83c0,.73.6,1.33,1.33,1.33s1.33-.6,1.33-1.33-.6-1.33-1.33-1.33-1.33.6-1.33,1.33Z"/>
        <path class="cls-2" d="M649.23,528.02c0,.73.6,1.33,1.33,1.33s1.33-.6,1.33-1.33-.6-1.33-1.33-1.33-1.33.6-1.33,1.33Z"/>
        <path class="cls-2" d="M649.22,519.21c0,.73.59,1.34,1.34,1.34s1.32-.61,1.32-1.34v-.07l-.02-.02c-.1-.27-.22-.54-.36-.83l-.02-.02c-.24-.24-.58-.39-.93-.39-.75,0-1.34.59-1.34,1.32Z"/>
        <path class="cls-2" d="M654.62,550.04c0,.59.39,1.08.91,1.25.15-.85.29-1.71.41-2.57-.73.02-1.32.59-1.32,1.32Z"/>
        <path class="cls-2" d="M654.62,541.23c0,.75.61,1.34,1.34,1.34.17,0,.34-.03.47-.08.02-.42.02-.83.02-1.25s0-.83-.02-1.24c-.14-.05-.31-.08-.47-.08-.73,0-1.34.59-1.34,1.32Z"/>
        <path class="cls-2" d="M654.62,532.42c0,.75.59,1.32,1.32,1.34-.1-.88-.24-1.73-.41-2.57-.53.17-.91.66-.91,1.24Z"/>
      </g>
      <circle class="cls-3" cx="600.98" cy="403.61" r="11.07" transform="translate(106.32 932.18) rotate(-80.78)"/>
      <circle class="cls-3" cx="634.56" cy="403.61" r="11.07"/>
      <circle class="cls-3" cx="11.07" cy="414.68" r="11.07"/>
      <circle class="cls-2" cx="44.65" cy="414.68" r="11.07" transform="translate(-369.2 362.86) rotate(-76.72)"/>
      <circle class="cls-3" cx="668.14" cy="403.61" r="11.07" transform="translate(162.72 998.47) rotate(-80.78)"/>
      <path class="cls-2" d="M463.19,637.58c0,6.57-5.35,11.92-11.92,11.92s-11.92-5.35-11.92-11.92,5.35-11.92,11.92-11.92,11.92,5.35,11.92,11.92ZM441.05,637.58c0,5.64,4.59,10.22,10.22,10.22s10.22-4.59,10.22-10.22-4.59-10.22-10.22-10.22-10.22,4.59-10.22,10.22Z"/>
      <circle class="cls-2" cx="484.85" cy="637.58" r="11.07"/>
      <circle class="cls-2" cx="518.42" cy="637.58" r="11.07" transform="translate(-204.53 246.92) rotate(-22.5)"/>
      <circle class="cls-2" cx="701.71" cy="403.61" r="11.07"/>
    </g>
  </g>
</svg>